<?xml version="1.0" standalone="no"?>
<!DOCTYPE svg PUBLIC "-//W3C//DTD SVG 1.1//EN" "http://www.w3.org/Graphics/SVG/1.1/DTD/svg11.dtd" >
<svg>
<metadata>
Created by FontForge 20090914 at Tue Feb 16 22:55:08 2016
 By www-data
Copyright (c) 2011 by GM. All rights reserved.
</metadata>
<defs>
<font id="Louis-BoldItalic" horiz-adv-x="570" >
  <font-face 
    font-family="Louis Bold Italic"
    font-weight="475"
    font-style="italic"
    font-stretch="normal"
    units-per-em="1000"
    panose-1="2 0 0 0 0 0 0 0 0 0"
    ascent="750"
    descent="-250"
    x-height="560"
    cap-height="750"
    bbox="-144 -287.004 1214 1041"
    underline-thickness="50"
    underline-position="-50"
    unicode-range="U+0020-U+FB02"
  />
<missing-glyph 
d="M500 0h-490l132 750h490zM174 655l-99 -562l217 281zM467 93l99 562l-217 -281zM329 421l216 279h-333zM98 50h330l-116 276z" />
    <glyph glyph-name="fi" unicode="fi" horiz-adv-x="600" 
d="M438 441l-153.999 -0.000976562l-104 -594h-138l104 594h-81l21 119h81l8 43c6 35.333 16 65.333 30 90s31 44.667 51 60s43.167 26.333 69.5 33s55.166 10 86.499 10c6.66699 0 14 -0.166992 22 -0.5l23.5 -1c7.66699 -0.333008 14.5 -0.666016 20.5 -0.999023
s10 -0.5 12 -0.5l-23 -130c-6 0.666992 -14.167 1.16699 -24.5 1.5s-18.5 0.5 -24.5 0.5c-32 0 -56.833 -5.5 -74.5 -16.5s-29.167 -31.833 -34.5 -62.5l-4 -26h292l-98 -560h-138z" />
    <glyph glyph-name="fl" unicode="fl" horiz-adv-x="617" 
d="M378 0l116.005 662.999c-14.667 1.33301 -28.5 2 -41.5 2h-34.5c-32 0 -56.833 -5.5 -74.5 -16.5s-29.167 -31.833 -34.5 -62.5l-4 -26h111l-21 -119h-111l-104 -594h-138l104 594h-81l21 119h81l8 43c6 35.333 15.833 65.333 29.5 90s30.667 44.667 51 60
s43.666 26.333 69.999 33s55.166 10 86.499 10c16 0 34.667 -0.333008 56 -1s43.166 -1.5 65.499 -2.5s44.166 -2.16699 65.499 -3.5s39.666 -2.66602 54.999 -3.99902l-138 -785h-138z" />
    <glyph glyph-name=".notdef" 
d="M500 0h-490l132 750h490zM174 655l-99 -562l217 281zM467 93l99 562l-217 -281zM329 421l216 279h-333zM98 50h330l-116 276z" />
    <glyph glyph-name="space" unicode=" " horiz-adv-x="220" 
 />
    <glyph glyph-name="exclam" unicode="!" horiz-adv-x="281" 
d="M100 251l66 499h153l-111 -499h-108zM36 0l27 157h149l-27 -157h-149z" />
    <glyph glyph-name="quotedbl" unicode="&#x22;" horiz-adv-x="415" 
d="M289 750l-76 -284h-113l50 284h139zM484 750l-77 -284h-113l50 284h140z" />
    <glyph glyph-name="numbersign" unicode="#" 
d="M306 521h113l50 179h93l-50 -179h86l-15 -88h-95l-47 -166h97l-16 -88h-105l-49 -179h-93l48 179h-112l-49 -179h-93l49 179h-85l16 88h93l47 166h-95l15 88h104l51 179h93zM236 267h112l47 166h-113z" />
    <glyph glyph-name="dollar" unicode="$" 
d="M569 550c0 -6.66699 -0.331055 -13.6631 -0.998047 -20.9961s-1.66699 -16 -3 -26h-130c2.66699 20 1 38.667 -5 56s-17.333 29.666 -34 36.999l-29 -165c22 -9.33301 43.167 -20.333 63.5 -33s37.833 -27.5 52.5 -44.5s25.667 -36.833 33 -59.5
s9.33301 -48.334 6 -77.001c-3.33301 -30 -11.833 -56.5 -25.5 -79.5s-30.834 -42.5 -51.501 -58.5s-43.834 -28.333 -69.501 -37s-52.5 -13.334 -80.5 -14.001l-17 -98h-58l18 102c-28 5.33301 -52.667 14.666 -74 27.999s-39.166 29.5 -53.499 48.5s-25 40.667 -32 65
s-9.5 50.166 -7.5 77.499h129c-1.33301 -22.667 3.16699 -43.167 13.5 -61.5s25.5 -31.166 45.5 -38.499l32 183c-27.333 12 -51.5 24.833 -72.5 38.5s-38 29 -51 46s-22.167 36 -27.5 57s-6 44.833 -2 71.5c4 28.667 12.667 53.667 26 75s30.166 39.333 50.499 54
s43 25.667 68 33s50.833 11.333 77.5 12l15 89h58l-16 -94c44.667 -7.33301 81.167 -24.833 109.5 -52.5s42.5 -65.5 42.5 -113.5zM393.002 230.004c1.33301 18.667 -3 34.334 -13 47.001s-21.667 23 -35 31l-28 -160c20 4.66699 37.167 14.167 51.5 28.5
s22.5 32.166 24.5 53.499zM267.002 534.004c-2 -20 1.16602 -35.999 9.49902 -47.999s20.5 -22.333 36.5 -31l26 147c-24 -3.33301 -41.667 -11.833 -53 -25.5s-17.666 -27.834 -18.999 -42.501z" />
    <glyph glyph-name="percent" unicode="%" 
d="M37 0l485 750h83l-486 -750h-82zM208 526c14.667 0 26.834 6.16699 36.501 18.5s17.167 29.166 22.5 50.499c6 26.667 5.83301 46.334 -0.5 59.001s-16.833 19 -31.5 19s-26.834 -6.16699 -36.501 -18.5s-17.167 -29.166 -22.5 -50.499
c-6 -26.667 -5.83301 -46.334 0.5 -59.001s16.833 -19 31.5 -19zM243 760c20 0 38.167 -3.66699 54.5 -11s30 -18.166 41 -32.499s18.5 -31.666 22.5 -51.999s3.33301 -43.5 -2 -69.5c-9.33301 -48 -28.166 -86.167 -56.499 -114.5s-62.5 -42.5 -102.5 -42.5
c-20 0 -38.167 3.66699 -54.5 11s-30 18.166 -41 32.499s-18.5 31.666 -22.5 51.999s-3.33301 43.5 2 69.5c9.33301 48 28.166 86.167 56.499 114.5s62.5 42.5 102.5 42.5zM405 78c14.667 0 26.834 6.16699 36.501 18.5s17.167 29.166 22.5 50.499
c6 26.667 5.83301 46.334 -0.5 59.001s-16.833 19 -31.5 19s-26.834 -6.16699 -36.501 -18.5s-17.167 -29.166 -22.5 -50.499c-6 -26.667 -5.83301 -46.334 0.5 -59.001s16.833 -19 31.5 -19zM440 312c20 0 38.167 -3.66699 54.5 -11s30 -18.166 41 -32.499
s18.5 -31.666 22.5 -51.999s3.33301 -43.5 -2 -69.5c-9.33301 -48 -28.166 -86.167 -56.499 -114.5s-62.5 -42.5 -102.5 -42.5c-20 0 -38.167 3.66699 -54.5 11s-30 18.166 -41 32.499s-18.5 31.666 -22.5 51.999s-3.33301 43.5 2 69.5
c9.33301 48 28.166 86.167 56.499 114.5s62.5 42.5 102.5 42.5z" />
    <glyph glyph-name="ampersand" unicode="&#x26;" horiz-adv-x="643" 
d="M454 261c8 18.667 15.498 38.0029 22.498 58.0029s13.167 39.667 18.5 59h129c-9.33301 -39.333 -22.333 -79 -39 -119s-36 -78.667 -58 -116l79 -127l-2 -16h-147l-29 45c-22.667 -16.667 -47.667 -30 -75 -40s-56 -15 -86 -15c-33.333 0 -63.666 5 -90.999 15
s-50.833 24.167 -70.5 42.5s-35 40.166 -46 65.499s-16.5 53 -16.5 83c0 29.333 4.5 55.666 13.5 78.999s20.833 44.333 35.5 63s31.334 34.834 50.001 48.501s37.667 25.5 57 35.5c-10.667 18.667 -20 38.667 -28 60s-12 44.666 -12 69.999
c0 35.333 6.16699 66.166 18.5 92.499s28.333 48 48 65s41.667 29.667 66 38s48.5 12.5 72.5 12.5c28.667 0 54.667 -4 78 -12s43.333 -19 60 -33s29.5 -30.833 38.5 -50.5s13.5 -41.5 13.5 -65.5c0 -42 -14 -82 -42 -120s-71.667 -72.333 -131 -103zM179.998 202.003
c0 -29.333 9.33301 -51.8311 28 -67.498s40.667 -23.5 66 -23.5c16 0 32 3 48 9s30.667 14.333 44 25l-109 178c-20 -12.667 -37.833 -28.834 -53.5 -48.501s-23.5 -43.834 -23.5 -72.501zM361.998 639.005c-19.333 0 -36.001 -7.16797 -50.001 -21.501
s-21 -32.166 -21 -53.499c0 -13.333 2.83301 -27.833 8.5 -43.5s13.167 -31.5 22.5 -47.5c32.667 15.333 57.334 33.333 74.001 54s25 40.667 25 60c0 13.333 -4.83301 25.333 -14.5 36s-24.5 16 -44.5 16z" />
    <glyph glyph-name="quotesingle" unicode="'" horiz-adv-x="220" 
d="M289 750l-76 -284h-113l50 284h139z" />
    <glyph glyph-name="parenleft" unicode="(" horiz-adv-x="366" 
d="M94 359c14.667 84 42.667 166.167 84 246.5s101 162.166 179 245.499h121c-74 -86 -131.667 -171.833 -173 -257.5s-69 -172.167 -83 -259.5s-16 -173.666 -6 -258.999s36.333 -171 79 -257h-116c-25.333 44 -45.5 89 -60.5 135s-25.5 92 -31.5 138
s-8.16699 91.667 -6.5 137s6.16699 89 13.5 131z" />
    <glyph glyph-name="parenright" unicode=")" horiz-adv-x="366" 
d="M329 310c-7.33301 -42 -17.832 -83.499 -31.499 -124.499s-31.167 -81.667 -52.5 -122s-46.833 -80.833 -76.5 -121.5s-63.834 -82 -102.501 -124h-121c74 86 131.667 171.833 173 257.5s69 172.167 83 259.5s16 173.666 6 258.999s-36.333 171 -79 257h116
c25.333 -44 45.5 -89 60.5 -135s25.5 -92 31.5 -138s8.16699 -91.667 6.5 -137s-6.16699 -89 -13.5 -131z" />
    <glyph glyph-name="asterisk" unicode="*" horiz-adv-x="457" 
d="M368 760l-25 -143l136 54l23 -102l-140 -34l82 -108l-93 -65l-62 121l-83 -121l-81 65l102 108l-134 34l41 102l125 -54l1 143h108z" />
    <glyph glyph-name="plus" unicode="+" 
d="M576 359l-21 -118h-199l-39 -221h-118l39 221h-199l21 118h199l39 221h118l-39 -221h199z" />
    <glyph glyph-name="comma" unicode="," horiz-adv-x="252" 
d="M41 173l167.997 -0.00390625l-23 -131c-2.66699 -14 -5.66699 -28.167 -9 -42.5s-7.66602 -27.166 -12.999 -38.499c-7.33301 -18 -16.666 -35.167 -27.999 -51.5s-24.666 -31.166 -39.999 -44.499s-33.166 -24.666 -53.499 -33.999s-43.166 -15.666 -68.499 -18.999
l11 61c18.667 6 34.667 13.333 48 22s24.166 18 32.499 28s14.666 20.5 18.999 31.5s7.5 21.5 9.5 31.5c2 9.33301 -1 14 -9 14h-74z" />
    <glyph glyph-name="hyphen" unicode="-" horiz-adv-x="435" 
d="M66 331l21 118h359l-21 -118h-359z" />
    <glyph glyph-name="period" unicode="." horiz-adv-x="262" 
d="M49 173h164l-30 -173h-164z" />
    <glyph glyph-name="slash" unicode="/" horiz-adv-x="432" 
d="M-28 -77l435 881h120l-435 -881h-120z" />
    <glyph glyph-name="zero" unicode="0" horiz-adv-x="583" 
d="M275 -10c-38 0 -71.168 7.16699 -99.501 21.5s-51.166 33.833 -68.499 58.5s-29 53.834 -35 87.501s-5.66699 69.834 1 108.501l43 244c6 34.667 15.667 67.167 29 97.5s30.833 56.833 52.5 79.5s47.5 40.5 77.5 53.5s64.667 19.5 104 19.5c38 0 71 -7.16699 99 -21.5
s50.833 -33.833 68.5 -58.5s29.5 -53.834 35.5 -87.501s5.66699 -69.834 -1 -108.501l-43 -244c-6 -34.667 -15.667 -67.167 -29 -97.5s-30.833 -56.833 -52.5 -79.5s-47.5 -40.5 -77.5 -53.5s-64.667 -19.5 -104 -19.5zM366.999 619
c-17.333 0 -32.3301 -3.33301 -44.9971 -10s-23.334 -15.834 -32.001 -27.501s-15.834 -25.167 -21.501 -40.5s-9.83398 -31.666 -12.501 -48.999l-42 -233c-2.66699 -13.333 -3.83398 -27.5 -3.50098 -42.5s3.16602 -28.833 8.49902 -41.5s13.333 -23.167 24 -31.5
s25.334 -12.5 44.001 -12.5c17.333 0 32.333 3.33301 45 10s23.334 15.667 32.001 27s15.667 24.833 21 40.5s9.66602 32.167 12.999 49.5l42 233c2.66699 13.333 3.83398 27.5 3.50098 42.5s-3.16602 28.833 -8.49902 41.5s-13.333 23.167 -24 31.5
s-25.334 12.5 -44.001 12.5z" />
    <glyph glyph-name="one" unicode="1" horiz-adv-x="396" 
d="M97 616l194 134h123l-132 -750h-143l101 578l-170 -118z" />
    <glyph glyph-name="two" unicode="2" horiz-adv-x="545" 
d="M32 60c6.66699 39.333 17.5029 74.668 32.5029 106.001s32.333 59.5 52 84.5s41 47.333 64 67s46.167 37.834 69.5 54.501l62 43.5c20 14.333 37.833 28.833 53.5 43.5s28.5 30.167 38.5 46.5s16 34.166 18 53.499c2 24 -3.5 42.167 -16.5 54.5s-31.167 18.5 -54.5 18.5
c-10 0 -19.833 -1.33301 -29.5 -4s-18.834 -7.33398 -27.501 -14.001s-16 -16 -22 -28s-10 -27.333 -12 -46l-2 -24h-139l2 22c1.33301 16.667 4.16602 33 8.49902 49s9.16602 29.667 14.499 41c19.333 40.667 48.333 72.834 87 96.501s82 35.5 130 35.5
c31.333 0 60.166 -4.66699 86.499 -14s48.833 -22.833 67.5 -40.5s32.5 -38.834 41.5 -63.501s12.167 -52.334 9.5 -83.001c-2 -29.333 -9.5 -56.166 -22.5 -80.499s-29.167 -47 -48.5 -68s-40.666 -40.667 -63.999 -59l-70 -52.5l-48.5 -35.5
c-17 -13 -33.333 -26.667 -49 -41s-29.167 -29 -40.5 -44s-19 -29.5 -23 -43.5h295l-24 -135h-449z" />
    <glyph glyph-name="three" unicode="3" horiz-adv-x="557" 
d="M566 570c-3.33301 -40 -17.001 -75.835 -41.001 -107.502s-55 -54.834 -93 -69.501c18 -10 32.833 -22.167 44.5 -36.5s20.834 -29.5 27.501 -45.5s11.167 -32.5 13.5 -49.5s2.83301 -33.167 1.5 -48.5c-2.66699 -31.333 -11.334 -60.5 -26.001 -87.5
s-33.5 -50.5 -56.5 -70.5s-49.833 -35.833 -80.5 -47.5s-63.334 -17.5 -98.001 -17.5c-37.333 0 -70.166 5.5 -98.499 16.5s-52 26.5 -71 46.5s-32.833 44.167 -41.5 72.5s-11.334 60.166 -8.00098 95.499h138c-2.66699 -32.667 4 -57.167 20 -73.5s40.333 -24.5 73 -24.5
c29.333 0 54 9.16699 74 27.5s31.667 43.5 35 75.5c0.666992 12.667 -0.833008 25.334 -4.5 38.001s-10 24 -19 34s-21 18.167 -36 24.5s-33.5 9.5 -55.5 9.5h-50l22 126h70c18.667 0 35 2.66699 49 8s25.833 12.333 35.5 21s16.834 18.834 21.501 30.501
s7.66699 23.5 9 35.5c2 22.667 -4.16699 41.167 -18.5 55.5s-32.833 21.5 -55.5 21.5c-30 0 -52.667 -8.16699 -68 -24.5s-24.333 -38.166 -27 -65.499h-140c2.66699 32 10.667 61.5 24 88.5s30.833 50.333 52.5 70s46.834 34.834 75.501 45.501s60 16 94 16
c33.333 0 63.333 -4.83301 90 -14.5s49.167 -23 67.5 -40s31.833 -37.167 40.5 -60.5s12 -48.333 10 -75z" />
    <glyph glyph-name="four" unicode="4" horiz-adv-x="581" 
d="M568 760l-80 -454h97l-23 -129h-97l-31 -177h-142l31 177h-290l21 121l343 462h171zM346 306l43 249h-1c-3.33301 -4.66699 -6.33301 -9.66699 -9 -15l-10 -14.5l-10 -15.5l-143 -204h130z" />
    <glyph glyph-name="five" unicode="5" horiz-adv-x="575" 
d="M209 232c-2 -36 4.16895 -62.333 18.502 -79s34.166 -25 59.499 -25c31.333 0 55 10.833 71 32.5s26.667 47.834 32 78.501l7 44c1.33301 9.33301 2.16602 18.833 2.49902 28.5s-0.166992 17.5 -1.5 23.5c-3.33301 17.333 -11.333 30.666 -24 39.999s-29.667 14 -51 14
c-22 0 -41.333 -5.83301 -58 -17.5s-30.334 -25.167 -41.001 -40.5l-127 1l74 418h416l-24 -135h-274l-24 -133c16 12 33.667 21.833 53 29.5s40.333 11.5 63 11.5c35.333 0 64.5 -6.66699 87.5 -20s40.833 -31 53.5 -53s20.334 -47 23.001 -75s1.66699 -56.333 -3 -85
l-9 -52c-6 -35.333 -15.167 -68 -27.5 -98s-28.833 -56.167 -49.5 -78.5s-45.834 -39.833 -75.501 -52.5s-64.5 -19 -104.5 -19c-32.667 0 -62.167 5.5 -88.5 16.5s-48.666 27 -66.999 48s-32 46.5 -41 76.5s-12.5 63.667 -10.5 101h140z" />
    <glyph glyph-name="six" unicode="6" horiz-adv-x="577" 
d="M244 428c15.333 17.333 35.332 31.668 59.999 43.001s49.334 17 74.001 17c20 0 39.333 -3 58 -9s35.5 -14.833 50.5 -26.5s27.667 -26.334 38 -44.001s17.166 -38.167 20.499 -61.5c1.33301 -11.333 2 -23.5 2 -36.5s-1.66699 -28.833 -5 -47.5l-4 -23
c-6 -34.667 -15.667 -67.167 -29 -97.5s-30.833 -56.833 -52.5 -79.5s-47.5 -40.5 -77.5 -53.5s-64.667 -19.5 -104 -19.5c-38 0 -71.167 7.16699 -99.5 21.5s-51.166 33.833 -68.499 58.5s-29 53.834 -35 87.501s-5.66699 69.834 1 108.501l43 244
c6 34.667 15.667 67.167 29 97.5s30.833 56.833 52.5 79.5s47.5 40.5 77.5 53.5s64.667 19.5 104 19.5c32 0 60.5 -4.83301 85.5 -14.5s46.167 -23.334 63.5 -41.001s30.666 -38.667 39.999 -63s14.333 -51.5 15 -81.5h-144c-2.66699 17.333 -9.33398 32.166 -20.001 44.499
s-27.667 18.5 -51 18.5c-17.333 0 -32.166 -3.33301 -44.499 -10s-23 -15.834 -32 -27.501s-16.167 -25.167 -21.5 -40.5s-9.66602 -31.666 -12.999 -48.999zM397.999 255.002c2 12 2.66797 23.834 2.00098 35.501s-3.33398 22.167 -8.00098 31.5s-12 17 -22 23
s-23.333 9 -40 9c-28 0 -52.5 -9.16699 -73.5 -27.5s-35.167 -43.5 -42.5 -75.5l-2 -9c-3.33301 -14 -4.5 -27.667 -3.5 -41s4.33301 -25.333 10 -36s14.167 -19.334 25.5 -26.001s26 -10 44 -10c32.667 0 57.5 10.833 74.5 32.5s28.167 48.5 33.5 80.5z" />
    <glyph glyph-name="seven" unicode="7" horiz-adv-x="515" 
d="M87 0c12.667 48.667 30.168 99.501 52.501 152.501s47.166 106.167 74.499 159.5s56.833 105.666 88.5 156.999s63.5 100 95.5 146h-288l24 135h453l-21 -115c-36 -50 -70.5 -102.167 -103.5 -156.5s-63.333 -108.666 -91 -162.999s-52.167 -108.333 -73.5 -162
s-38.333 -104.834 -51 -153.501h-160z" />
    <glyph glyph-name="eight" unicode="8" horiz-adv-x="575" 
d="M585 562c-2 -18 -6.33301 -35.6709 -13 -53.0039s-15.5 -33.666 -26.5 -48.999s-23.667 -29 -38 -41s-30.166 -21.667 -47.499 -29c28 -16.667 49.167 -40.167 63.5 -70.5s19.833 -64.166 16.5 -101.499c-2.66699 -31.333 -10.834 -60.833 -24.501 -88.5
s-31.834 -51.834 -54.501 -72.501s-49.667 -37 -81 -49s-66.333 -18 -105 -18s-72.667 6 -102 18s-53.5 28.333 -72.5 49s-32.833 44.834 -41.5 72.501s-11.667 57.167 -9 88.5c2 20 6.66699 40 14 60s17.333 38.5 30 55.5s27.667 31.667 45 44s36.666 21.5 57.999 27.5
c-25.333 18.667 -44 41.834 -56 69.501s-16.333 56.834 -13 87.501c2.66699 30.667 10.5 58.334 23.5 83.001s30.167 45.5 51.5 62.5s46.333 30 75 39s60.334 13.5 95.001 13.5s65.667 -4.5 93 -13.5s50.333 -22 69 -39s32.334 -37.833 41.001 -62.5
s11.667 -52.334 9 -83.001zM304 324.996c-17.333 0 -32.6689 -2.83301 -46.002 -8.5s-24.666 -13 -33.999 -22s-16.666 -19.333 -21.999 -31s-8.33301 -23.5 -9 -35.5c-3.33301 -32.667 3.33398 -58.834 20.001 -78.501s41 -29.5 73 -29.5s58 9.83301 78 29.5
s31.667 45.834 35 78.501c0.666992 12 -0.5 23.833 -3.5 35.5s-8.33301 22 -16 31s-17.834 16.333 -30.501 22s-27.667 8.5 -45 8.5zM362.997 637.996c-25.333 0 -46.667 -6.66699 -64 -20s-27 -32.666 -29 -57.999c-2 -23.333 3.5 -43.5 16.5 -60.5s33.5 -25.5 61.5 -25.5
s50.167 8.5 66.5 25.5s25.5 37.167 27.5 60.5c2 25.333 -4.33301 44.666 -19 57.999s-34.667 20 -60 20z" />
    <glyph glyph-name="nine" unicode="9" horiz-adv-x="577" 
d="M404 322c-15.333 -17.333 -35.3311 -31.668 -59.998 -43.001s-49.334 -17 -74.001 -17c-20 0 -39.333 3 -58 9s-35.5 14.833 -50.5 26.5s-27.833 26.334 -38.5 44.001s-17.334 38.167 -20.001 61.5c-1.33301 11.333 -2 23.5 -2 36.5s1.66699 28.833 5 47.5l4 23
c6 34.667 15.667 67.167 29 97.5s30.833 56.833 52.5 79.5s47.5 40.5 77.5 53.5s64.667 19.5 104 19.5c38 0 71 -7.16699 99 -21.5s50.833 -33.833 68.5 -58.5s29.5 -53.834 35.5 -87.501s5.66699 -69.834 -1 -108.501l-43 -244c-6 -34.667 -15.667 -67.167 -29 -97.5
s-30.833 -56.833 -52.5 -79.5s-47.5 -40.5 -77.5 -53.5s-64.667 -19.5 -104 -19.5c-32 0 -60.5 4.83301 -85.5 14.5s-46.167 23.334 -63.5 41.001s-30.666 38.667 -39.999 63s-14.333 51.5 -15 81.5h144c2.66699 -17.333 9.33398 -32.166 20.001 -44.499
s27.667 -18.5 51 -18.5c17.333 0 32.166 3.33301 44.499 10s23 15.667 32 27s16.167 24.833 21.5 40.5s9.66602 32.167 12.999 49.5zM250.002 494.998c-2 -12 -2.66797 -23.834 -2.00098 -35.501s3.33398 -22.167 8.00098 -31.5s11.834 -17 21.501 -23s23.167 -9 40.5 -9
c28 0 52.5 9.16699 73.5 27.5s35.167 43.5 42.5 75.5l2 9c2.66699 14 3.66699 27.667 3 41s-3.83398 25.333 -9.50098 36s-14.167 19.334 -25.5 26.001s-26 10 -44 10c-32.667 0 -57.5 -10.833 -74.5 -32.5s-28.167 -48.5 -33.5 -80.5z" />
    <glyph glyph-name="colon" unicode=":" horiz-adv-x="278" 
d="M126 560h163l-30 -173h-163zM58 173h163l-30 -173h-163z" />
    <glyph glyph-name="semicolon" unicode=";" horiz-adv-x="278" 
d="M57 173l166.996 -0.00390625l-23 -131c-2.66699 -14 -5.66699 -28.167 -9 -42.5s-7.33301 -27.166 -12 -38.499c-7.33301 -18 -16.666 -35.167 -27.999 -51.5s-24.666 -31.166 -39.999 -44.499s-33.166 -24.666 -53.499 -33.999s-43.166 -15.666 -68.499 -18.999l11 61
c18.667 6 34.5 13.333 47.5 22s23.833 18 32.5 28s15.167 20.5 19.5 31.5s7.5 21.5 9.5 31.5c2 9.33301 -1.33301 14 -10 14h-73zM124.996 559.996h164l-30 -173h-164z" />
    <glyph glyph-name="less" unicode="&#x3c;" horiz-adv-x="552" 
d="M196 294l302 -146l-22 -124l-414 215l21 122l490 215l-24 -136z" />
    <glyph glyph-name="equal" unicode="=" horiz-adv-x="537" 
d="M76 351l21 118h447l-21 -118h-447zM38 131l20 118h447l-20 -118h-447z" />
    <glyph glyph-name="greater" unicode="&#x3e;" horiz-adv-x="552" 
d="M99 452l22 124l414 -215l-21 -122l-490 -215l24 136l351 146z" />
    <glyph glyph-name="question" unicode="?" horiz-adv-x="498" 
d="M185 252c-3.33301 34.667 -0.832031 64.832 7.50098 90.499s19.833 48.167 34.5 67.5s30.834 36 48.501 50l50.5 39.5c16 12.333 29.833 24.5 41.5 36.5s18.167 25 19.5 39c2 19.333 -3.66699 34.333 -17 45s-31.333 16 -54 16c-24.667 0 -44.834 -8.66699 -60.501 -26
s-24.834 -37.666 -27.501 -60.999l-2 -23h-132l2 23c2.66699 30.667 10.667 59 24 85s30.333 48.333 51 67s44.334 33.167 71.001 43.5s55 15.5 85 15.5c34.667 0 65.334 -4.83301 92.001 -14.5s48.5 -22.834 65.5 -39.501s29.333 -35.834 37 -57.501s10.5 -44.5 8.5 -68.5
c-2.66699 -30 -10.167 -54.833 -22.5 -74.5s-26.833 -36.667 -43.5 -51s-34.334 -27.5 -53.001 -39.5s-35.834 -25.167 -51.501 -39.5s-28.5 -31.166 -38.5 -50.499s-14.333 -43.666 -13 -72.999h-123zM135.001 -0.00195312l27 157h149l-27 -157h-149z" />
    <glyph glyph-name="at" unicode="@" horiz-adv-x="916" 
d="M385 246c-2 -10.667 -3.50391 -22.334 -4.50391 -35.001s0 -24.334 3 -35.001s8.5 -19.5 16.5 -26.5s19.667 -10.5 35 -10.5c12.667 0 25.5 3.33301 38.5 10s24.833 15.334 35.5 26.001s19.834 22.667 27.501 36s12.834 26.666 15.501 39.999l18 86
c2.66699 14 4 27.833 4 41.5s-2.33301 25.834 -7 36.501s-11.667 19.334 -21 26.001s-21.333 10 -36 10c-13.333 0 -25.666 -3.16699 -36.999 -9.5s-21.5 -14.666 -30.5 -24.999s-16.667 -22.333 -23 -36s-11.166 -27.834 -14.499 -42.501zM410.996 34
c-28.667 0 -52.8291 5.49609 -72.4961 16.4961s-34.834 26 -45.501 45s-17 41.167 -19 66.5s0 52 6 80l22 101c15.333 70 42.5 123 81.5 159s84.5 54 136.5 54c23.333 0 44 -6.16699 62 -18.5s32.333 -30.166 43 -53.499l24 59h72l-81 -356l-4.5 -26
c-1.66699 -10 -2 -19.667 -1 -29s4 -17.166 9 -23.499s13.167 -9.5 24.5 -9.5c17.333 0 34 8.83301 50 26.5s30.333 40.5 43 68.5s23.5 59 32.5 93s15.5 67.333 19.5 100c6.66699 54.667 4.5 100.834 -6.5 138.501s-28.5 67.834 -52.5 90.501s-53.5 39 -88.5 49
s-72.833 15 -113.5 15h-23c-40 0 -78.667 -6.33301 -116 -19s-71.5 -32.167 -102.5 -58.5s-57.833 -60 -80.5 -101s-39.334 -89.5 -50.001 -145.5l-26 -132c-8.66699 -43.333 -10.167 -83.5 -4.5 -120.5s18.167 -69 37.5 -96s45.666 -48.333 78.999 -64
s73.666 -23.5 120.999 -23.5h8c20.667 0 41.5 1.5 62.5 4.5s41.5 7 61.5 12s38.667 10.833 56 17.5s32.666 14 45.999 22l19 -64c-16 -8.66699 -34.167 -16.834 -54.5 -24.501s-41.833 -14.167 -64.5 -19.5s-45.667 -9.66602 -69 -12.999s-46 -5 -68 -5h-8
c-55.333 0 -104.166 8.66699 -146.499 26s-76.833 42.333 -103.5 75s-44.5 72 -53.5 118s-7.83301 98 3.5 156l25 132c12.667 69.333 33.167 128.833 61.5 178.5s61.666 90.334 99.999 122.001s81 55 128 70s95.5 22.5 145.5 22.5h23c50.667 0 97.334 -6.33301 140.001 -19
s78.834 -33.167 108.501 -61.5s51.5 -65.666 65.5 -111.999s17 -103.166 9 -170.499c-5.33301 -46 -14.5 -90.833 -27.5 -134.5s-29.333 -82.334 -49 -116.001s-42.834 -60.334 -69.501 -80.001s-56 -28.5 -88 -26.5c-25.333 1.33301 -46 9.5 -62 24.5
s-26.667 35.167 -32 60.5c-22 -28.667 -45.5 -49.334 -70.5 -62.001s-49.167 -19 -72.5 -19z" />
    <glyph glyph-name="A" unicode="A" horiz-adv-x="600" 
d="M373 566h-4l-98 -237h120zM212 193l-83 -193h-149l338 750h168l74 -750h-143l-15 193h-190z" />
    <glyph glyph-name="B" unicode="B" horiz-adv-x="610" 
d="M610 543c-3.33301 -34.667 -14.167 -65.666 -32.5 -92.999s-43.833 -49.666 -76.5 -66.999c30 -19.333 50.667 -43.333 62 -72s15.333 -58.334 12 -89.001c-4.66699 -50 -21 -93 -49 -129s-65 -62 -111 -78c-13.333 -4.66699 -28.833 -8.33398 -46.5 -11.001
s-39.167 -4 -64.5 -4h-260l132 750h197c23.333 0 44.5 -1 63.5 -3s34.833 -5 47.5 -9c43.333 -14 76.333 -37.5 99 -70.5s31.667 -74.5 27 -124.5zM317.999 137.001c26 0 46.334 3.66797 61.001 11.001c15.333 7.33301 27.666 18.166 36.999 32.499
s14.666 30.833 15.999 49.5c1.33301 18 -1.66699 34 -9 48s-18.666 24.667 -33.999 32c-5.33301 2.66699 -11.333 4.66699 -18 6s-16.667 2 -30 2h-99l-30 -181h106zM343 444.002c15.333 0 28.5 1.33203 39.5 3.99902s20.167 6 27.5 10
c12.667 7.33301 24.5 17.833 35.5 31.5s17.5 30.834 19.5 51.501c1.33301 16 -1.66699 29.5 -9 40.5s-17 18.833 -29 23.5c-13.333 4.66699 -31.333 7 -54 7h-79l-29 -168h78z" />
    <glyph glyph-name="C" unicode="C" horiz-adv-x="603" 
d="M573 270c-2.66699 -36 -10.501 -70.8359 -23.501 -104.503s-31.167 -63.5 -54.5 -89.5s-51.666 -46.833 -84.999 -62.5s-71 -23.5 -113 -23.5h-7c-31.333 0 -59.666 4.83301 -84.999 14.5s-47.166 22.834 -65.499 39.501s-33 36.334 -44 59.001
s-17.833 47.334 -20.5 74.001c-1.33301 13.333 -1.5 28.666 -0.5 45.999s2.83301 33 5.5 47l41 236c6 35.333 16.167 68.5 30.5 99.5s32.833 58 55.5 81s49.5 41 80.5 54s66.5 19.5 106.5 19.5h8c30.667 0 58.667 -4.5 84 -13.5s47.166 -21.833 65.499 -38.5
s33.166 -36.5 44.499 -59.5s18 -48.5 20 -76.5c1.33301 -12 1.66602 -25.833 0.999023 -41.5s-2 -30.5 -4 -44.5h-142c1.33301 9.33301 2.66602 20.333 3.99902 33s1.33301 23 0 31c-2 20.667 -9 37.667 -21 51s-32 20 -60 20h-8c-35.333 0 -63.166 -12.5 -83.499 -37.5
s-33.833 -55.5 -40.5 -91.5l-41 -232c-1.33301 -9.33301 -2.66602 -19.666 -3.99902 -30.999s-1.33301 -21 0 -29c2 -20.667 9.33301 -37.667 22 -51s32.667 -20 60 -20h6c34.667 0 62.667 12 84 36s35 55 41 93l2 12h141z" />
    <glyph glyph-name="D" unicode="D" horiz-adv-x="623" 
d="M392 750c40.667 0 73.6689 -5.33496 99.002 -16.002c36 -14.667 64.833 -37.167 86.5 -67.5s34.5 -65.166 38.5 -104.499c1.33301 -12.667 1.66602 -27.667 0.999023 -45s-2.33398 -33 -5.00098 -47l-38 -216c-10 -57.333 -30.333 -107.666 -61 -150.999
s-72.334 -73.333 -125.001 -90c-13.333 -4 -28.166 -7.16699 -44.499 -9.5s-33.5 -3.5 -51.5 -3.5h-248l132 750h216zM293.002 610.998l-82.999 -473h89c12.667 0 25.167 1.5 37.5 4.5s22.833 7.16699 31.5 12.5c17.333 11.333 31.5 26.833 42.5 46.5
s18.833 41.834 23.5 66.501l37 212c1.33301 9.33301 2.66602 19.666 3.99902 30.999s1.33301 21 0 29c-2 20.667 -9.5 37.667 -22.5 51s-35.833 20 -68.5 20h-91z" />
    <glyph glyph-name="E" unicode="E" horiz-adv-x="555" 
d="M176 750h443l-24 -133h-300l-29 -166h248l-24 -133h-248l-32 -185h300l-23 -133h-443z" />
    <glyph glyph-name="F" unicode="F" horiz-adv-x="552" 
d="M176 750h445l-24 -133h-302l-29 -167h248l-24 -133h-248l-55 -317h-143z" />
    <glyph glyph-name="G" unicode="G" horiz-adv-x="625" 
d="M280 -10c-28.667 0 -54.9951 4.8291 -78.9951 14.4961s-44.833 22.834 -62.5 39.501s-32 36.334 -43 59.001s-17.833 47.334 -20.5 74.001c-1.33301 13.333 -1.5 28.666 -0.5 45.999s2.83301 33 5.5 47l41 236c6 35.333 16.167 68.5 30.5 99.5s32.833 58 55.5 81
s49.5 41 80.5 54s66.5 19.5 106.5 19.5h8c62 0 111.667 -17.167 149 -51.5s58.666 -79.833 63.999 -136.5c2 -20 2 -41.333 0 -64h-142c0.666992 6.66699 1.16699 13.834 1.5 21.501s0.166016 14.5 -0.500977 20.5c-1.33301 20.667 -8 37.834 -20 51.501s-32 20.5 -60 20.5
h-8c-17.333 0 -33 -3.33301 -47 -10s-26.167 -16 -36.5 -28s-18.833 -25.833 -25.5 -41.5s-11.667 -32.5 -15 -50.5l-41 -232c-1.33301 -9.33301 -2.66602 -19.666 -3.99902 -30.999s-1.33301 -21 0 -29c2 -20.667 9.33301 -37.834 22 -51.501s32.667 -20.5 60 -20.5h7
c13.333 0 26.666 2.33301 39.999 7s25.666 11.667 36.999 21s21.166 21.5 29.499 36.5s14.166 33.167 17.499 54.5l4 22h-111l23 128h252l-70 -397h-62l-10 83h-1c-22 -30 -48.667 -53 -80 -69s-63 -24 -95 -24z" />
    <glyph glyph-name="H" unicode="H" horiz-adv-x="655" 
d="M176 750h143l-51 -290h221l51 290h143l-132 -750h-143l56 322h-221l-56 -322h-143z" />
    <glyph glyph-name="I" unicode="I" horiz-adv-x="291" 
d="M176 750h143l-132 -750h-143z" />
    <glyph glyph-name="J" unicode="J" horiz-adv-x="555" 
d="M445 750l142 -0.00195312l-91 -515c-3.33301 -18.667 -7.33301 -37 -12 -55s-12.334 -37.667 -23.001 -59c-19.333 -40 -45.833 -71.667 -79.5 -95s-76.834 -35 -129.501 -35c-54 0 -98.167 14 -132.5 42s-56.166 64.333 -65.499 109c-6 33.333 -6 69 0 107l7 42h142
l-9 -52c-1.33301 -9.33301 -2.5 -18.666 -3.5 -27.999s-0.833008 -17.666 0.5 -24.999c2 -16.667 8.16699 -30.667 18.5 -42s26.166 -17 47.499 -17c20.667 0 37.834 6 51.501 18s24.167 26.667 31.5 44c2.66699 5.33301 5.33398 13 8.00098 23s5 21 7 33z" />
    <glyph glyph-name="K" unicode="K" horiz-adv-x="619" 
d="M540 750l174 0.000976562l-298 -301l170 -449h-153l-124 350l-76 -84l-47 -266h-142l132 750h142l-50 -282l1 -1l13 15l13 15c4.66699 5.33301 9.66699 10.666 15 15.999z" />
    <glyph glyph-name="L" unicode="L" horiz-adv-x="552" 
d="M176 750h143l-108 -613h307l-24 -137h-450z" />
    <glyph glyph-name="M" unicode="M" horiz-adv-x="771" 
d="M420 137l-82 0.000976562l-77 340h-1c-0.666992 -6.66699 -1.66699 -13.334 -3 -20.001c-1.33301 -5.33301 -2.5 -11.5 -3.5 -18.5s-2.16699 -13.5 -3.5 -19.5l-73 -419h-133l132 750h151l85 -400l227 400h160l-132 -750h-133l73 419c1.33301 6 2.5 12.5 3.5 19.5
s2.16699 13.167 3.5 18.5l4 20z" />
    <glyph glyph-name="N" unicode="N" horiz-adv-x="655" 
d="M262 489c-0.666992 -6.66699 -1.66699 -13.335 -3 -20.002c-1.33301 -5.33301 -2.33301 -11.5 -3 -18.5s-1.66699 -13.5 -3 -19.5l-76 -431h-133l132 750h149l138 -489h1c0.666992 6.66699 1.66699 13.334 3 20.001c1.33301 5.33301 2.5 11.333 3.5 18
s2.16699 13.334 3.5 20.001l76 431h133l-132 -750h-151l-137 489h-1z" />
    <glyph glyph-name="O" unicode="O" horiz-adv-x="621" 
d="M121 506c6 35.333 16.167 68.5 30.5 99.5s32.833 58 55.5 81s49.5 41 80.5 54s66.5 19.5 106.5 19.5h8c30.667 0 58.5 -4.83301 83.5 -14.5s46.833 -22.834 65.5 -39.501s33.5 -36.5 44.5 -59.5s17.833 -47.833 20.5 -74.5c1.33301 -12.667 1.66602 -27.667 0.999023 -45
s-2.33398 -33 -5.00098 -47l-41 -236c-6 -35.333 -16.167 -68.5 -30.5 -99.5s-32.833 -58 -55.5 -81s-49.5 -41 -80.5 -54s-66.5 -19.5 -106.5 -19.5h-8c-30.667 0 -58.5 4.83301 -83.5 14.5s-46.833 22.834 -65.5 39.501s-33.5 36.5 -44.5 59.5s-17.833 47.833 -20.5 74.5
c-1.33301 12.667 -1.66602 27.667 -0.999023 45s2.33398 33 5.00098 47zM470 490c1.33301 9.33301 2.66602 19.666 3.99902 30.999s1.33301 21 0 29c-2 20.667 -10.333 37.667 -25 51s-34.334 20 -59.001 20h-4c-35.333 0 -63.166 -12.5 -83.499 -37.5
s-33.833 -55.5 -40.5 -91.5l-40 -232c-1.33301 -9.33301 -2.66602 -19.666 -3.99902 -30.999s-1.33301 -21 0 -29c2 -20.667 10.333 -37.667 25 -51s34.334 -20 59.001 -20h4c35.333 0 63.166 12.5 83.499 37.5s33.833 55.5 40.5 91.5z" />
    <glyph glyph-name="P" unicode="P" horiz-adv-x="616" 
d="M361 412c17.333 0 31.501 1.16699 42.501 3.5s20.5 5.5 28.5 9.5c15.333 8 27.833 19.833 37.5 35.5s15.167 33.167 16.5 52.5c2 19.333 -0.333008 36.5 -7 51.5s-16.334 26.167 -29.001 33.5c-13.333 9.33301 -35.333 14 -66 14h-90l-35 -200h102zM187.001 0h-143.001
l132 750h213c21.333 0 42 -1.33301 62 -4s36.667 -6.66699 50 -12c42.667 -16.667 75.834 -45.167 99.501 -85.5s33.167 -86.833 28.5 -139.5c-4.66699 -52 -21.667 -97 -51 -135s-66.666 -65.667 -111.999 -83c-13.333 -5.33301 -29.333 -9.33301 -48 -12
s-39.334 -4 -62.001 -4h-121z" />
    <glyph glyph-name="Q" unicode="Q" horiz-adv-x="619" 
d="M290 -10c-31.333 0 -59.668 4.83203 -85.001 14.499s-47.166 22.834 -65.499 39.501s-33 36.334 -44 59.001s-17.833 47.334 -20.5 74.001c-1.33301 13.333 -1.5 28.666 -0.5 45.999s2.83301 33 5.5 47l41 236c6 35.333 16.167 68.5 30.5 99.5s32.833 58 55.5 81
s49.5 41 80.5 54s66.5 19.5 106.5 19.5h8c30.667 0 58.5 -4.83301 83.5 -14.5s46.833 -22.834 65.5 -39.501s33.5 -36.5 44.5 -59.5s17.833 -47.833 20.5 -74.5c1.33301 -12.667 1.66602 -27.667 0.999023 -45s-2.33398 -33 -5.00098 -47l-42 -236
c-7.33301 -40.667 -20.333 -77.667 -39 -111s-44 -61 -76 -83c8.66699 -3.33301 18.5 -6 29.5 -8s22.833 -3.66699 35.5 -5s25.334 -2.33301 38.001 -3s25 -1 37 -1l-21 -116c-60.667 2 -110.834 9 -150.501 21s-74.167 30 -103.5 54
c-3.33301 -0.666992 -7.16602 -1.16699 -11.499 -1.5s-8.16602 -0.5 -11.499 -0.5h-7zM304.998 128.999c34.667 0 62.499 12.5 83.499 37.5s34.833 55.5 41.5 91.5l41 232c1.33301 9.33301 2.66602 19.666 3.99902 30.999s1.33301 21 0 29c-2 20.667 -9 37.667 -21 51
s-32 20 -60 20h-8c-35.333 0 -63.166 -12.5 -83.499 -37.5s-33.833 -55.5 -40.5 -91.5l-41 -232c-1.33301 -9.33301 -2.66602 -19.666 -3.99902 -30.999s-1.33301 -21 0 -29c2 -20.667 9.33301 -37.667 22 -51s32.667 -20 60 -20h6z" />
    <glyph glyph-name="R" unicode="R" horiz-adv-x="610" 
d="M608 544c-4 -32.667 -17.001 -64.501 -39.001 -95.501s-55 -56.833 -99 -77.5v-1c30 -11.333 51 -28 63 -50s16.333 -51.667 13 -89l-13 -129c-1.33301 -19.333 -0.666016 -37.5 2.00098 -54.5s10 -30.833 22 -41.5l-1 -6h-152c-7.33301 10 -11.833 23.333 -13.5 40
s-1.83398 33.334 -0.500977 50.001l11 118c3.33301 36 -2.5 61.5 -17.5 76.5s-41.5 22.5 -79.5 22.5h-65l-53 -307h-142l132 750h186c16.667 0 33.834 -0.5 51.501 -1.5s32.5 -2.83301 44.5 -5.5c24.667 -5.33301 47 -13.5 67 -24.5s36.667 -24.833 50 -41.5s23 -36 29 -58
s7.33301 -47 4 -75zM345.999 437.999c36 0 63.832 9.16602 83.499 27.499s30.834 41.833 33.501 70.5c2 20 -1.16699 35.833 -9.5 47.5s-20.833 19.834 -37.5 24.501c-6.66699 2 -14.667 3.33301 -24 4s-20 1 -32 1h-67l-30 -175h83z" />
    <glyph glyph-name="S" unicode="S" horiz-adv-x="591" 
d="M596 570c0 -7.33301 -0.503906 -15.1621 -1.50391 -23.4951l-3.5 -29.5h-144c2 14.667 2.16699 28.667 0.5 42s-5.5 25.166 -11.5 35.499s-14.667 18.666 -26 24.999s-25.333 9.5 -42 9.5c-17.333 0 -32.166 -2.33301 -44.499 -7s-22.333 -10.667 -30 -18
s-13.334 -15.666 -17.001 -24.999s-5.83398 -18.333 -6.50098 -27c-2 -24.667 2.83301 -44.334 14.5 -59.001s28.5 -27 50.5 -37l42 -19c22.667 -10 44.834 -22 66.501 -36s40.5 -30.5 56.5 -49.5s28.167 -41.167 36.5 -66.5s10.5 -54 6.5 -86c-4 -34 -13.667 -64 -29 -90
s-34.5 -47.833 -57.5 -65.5s-49 -31 -78 -40s-59.5 -13.5 -91.5 -13.5c-39.333 0 -74.166 6.33301 -104.499 19s-55.5 30.167 -75.5 52.5s-34.667 48.5 -44 78.5s-13 62.333 -11 97h144c-1.33301 -15.333 -0.166016 -30 3.50098 -44s9.5 -26.333 17.5 -37
s18.167 -19.167 30.5 -25.5s26.833 -9.5 43.5 -9.5c30 0 55 8.16699 75 24.5s31.333 39.166 34 68.499c1.33301 13.333 -0.5 25.5 -5.5 36.5s-11.5 20.833 -19.5 29.5s-17 16.167 -27 22.5s-19.667 11.5 -29 15.5l-42 19c-26 11.333 -49.167 24 -69.5 38
s-37.166 30.333 -50.499 49s-22.666 39.667 -27.999 63s-6 49.666 -2 78.999c4.66699 32 14.5 60.167 29.5 84.5s33.5 44.666 55.5 60.999s47 28.5 75 36.5s57.333 12 88 12c32 0 61.5 -4 88.5 -12s50.333 -20 70 -36s35 -35.833 46 -59.5s16.5 -51.167 16.5 -82.5z" />
    <glyph glyph-name="T" unicode="T" horiz-adv-x="554" 
d="M636 750l-25 -138h-185l-107 -612h-143l107 612h-186l25 138h514z" />
    <glyph glyph-name="U" unicode="U" horiz-adv-x="634" 
d="M577 244c-6 -35.333 -16.1699 -68.5029 -30.5029 -99.5029s-32.833 -58 -55.5 -81s-49.5 -41 -80.5 -54s-66.5 -19.5 -106.5 -19.5h-7c-31.333 0 -59.666 4.83301 -84.999 14.5s-47.166 22.834 -65.499 39.501s-33 36.334 -44 59.001s-17.833 47.334 -20.5 74.001
c-1.33301 13.333 -1.5 28.666 -0.5 45.999s2.83301 33 5.5 47l85 480h143l-87 -490c-1.33301 -9.33301 -2.66602 -19.666 -3.99902 -30.999s-1.33301 -21 0 -29c2 -20.667 9.33301 -37.667 22 -51s32.667 -20 60 -20h6c34.667 0 62.5 12.5 83.5 37.5s34.833 55.5 41.5 91.5
l86 492h143z" />
    <glyph glyph-name="V" unicode="V" horiz-adv-x="602" 
d="M297 179h2l244 571h151l-337 -750h-172l-73 750h145z" />
    <glyph glyph-name="W" unicode="W" horiz-adv-x="900" 
d="M509 510l-198 -510h-168l-17 750h147l-8 -522h6l204 522h145l21 -522h6l175 522h156l-282 -750h-167z" />
    <glyph glyph-name="X" unicode="X" horiz-adv-x="616" 
d="M133 750h156l77 -224l150 224h172l-265 -364l151 -386h-154l-94 260l-178 -260h-172l290 399z" />
    <glyph glyph-name="Y" unicode="Y" horiz-adv-x="606" 
d="M258 750l90 -280h2l191 280h166l-305 -421l-58 -329h-143l57 328l-155 422h155z" />
    <glyph glyph-name="Z" unicode="Z" horiz-adv-x="587" 
d="M154 750h480l-21 -117l-393 -496h316l-24 -137h-499l20 117l393 495h-297z" />
    <glyph glyph-name="bracketleft" unicode="[" horiz-adv-x="389" 
d="M204 859h293l-16 -93h-165l-153 -863h165l-16 -93h-293z" />
    <glyph glyph-name="backslash" unicode="\" horiz-adv-x="432" 
d="M257 -77l-136 881h119l138 -881h-121z" />
    <glyph glyph-name="bracketright" unicode="]" horiz-adv-x="389" 
d="M242 -190h-292l16 93h164l153 863h-165l16 93h293z" />
    <glyph glyph-name="asciicircum" unicode="^" horiz-adv-x="499" 
d="M337 633l-142 -243h-129l230 370h116l97 -370h-116z" />
    <glyph glyph-name="underscore" unicode="_" horiz-adv-x="433" 
d="M-60 -160l19 104h436l-19 -104h-436z" />
    <glyph glyph-name="grave" unicode="`" horiz-adv-x="530" 
d="M185 844h152l115 -187h-96l-172 175z" />
    <glyph glyph-name="a" unicode="a" horiz-adv-x="549" 
d="M104 401c13.333 56.667 40.667 98.999 82 126.999s90.666 42 147.999 42c49.333 0 89 -10.5 119 -31.5s50 -50.5 60 -88.5c3.33301 -13.333 4.83301 -29.333 4.5 -48s-2.16602 -37 -5.49902 -55l-61 -347h-84v86h-1c-17.333 -29.333 -38.166 -52.666 -62.499 -69.999
s-55.5 -26 -93.5 -26c-25.333 0 -48.5 3.83301 -69.5 11.5s-38.833 19.334 -53.5 35.001s-25.5 35 -32.5 58s-9.16699 50.167 -6.5 81.5c3.33301 40.667 16.166 74.667 38.499 102s51.5 47.333 87.5 60c13.333 4.66699 28.5 8.16699 45.5 10.5s36.167 3.5 57.5 3.5h98l2 14
c5.33301 29.333 3 52.166 -7 68.499s-28.333 24.5 -55 24.5c-22 0 -39.333 -5.33301 -52 -16s-21.667 -24.667 -27 -42h-132zM185.001 180.999c-2 -22 1.99902 -39.5 11.999 -52.5s26.667 -19.5 50 -19.5c26 0 48.667 10.5 68 31.5s32 49.167 38 84.5l4 23h-81
c-7.33301 0 -15.333 -0.5 -24 -1.5s-15.667 -2.5 -21 -4.5c-27.333 -10 -42.666 -30.333 -45.999 -61z" />
    <glyph glyph-name="b" unicode="b" 
d="M221 242c-2 -13.333 -2.66797 -27.1631 -2.00098 -41.4961s3.5 -27.333 8.5 -39s12.667 -21.334 23 -29.001s23.5 -11.5 39.5 -11.5c14 0 26.667 3.16699 38 9.5s21.166 14.666 29.499 24.999s15.333 22.5 21 36.5s9.83398 28.667 12.501 44l14 84
c4 24 5.66699 42.333 5 55c-1.33301 17.333 -6.16602 32.166 -14.499 44.499s-22.5 18.5 -42.5 18.5c-12.667 0 -25.5 -3.5 -38.5 -10.5s-25.333 -17.333 -37 -31s-22 -30.334 -31 -50.001s-15.5 -42.167 -19.5 -67.5zM267.999 509.003c20 20.667 40.5059 36 61.5059 46
s44.167 15 69.5 15c40 0 73.833 -12.5 101.5 -37.5s44.167 -60.167 49.5 -105.5c1.33301 -12 1.66602 -26.333 0.999023 -43s-2.33398 -32.667 -5.00098 -48l-19 -104l-11 -49c-4 -17.333 -9.33301 -33.666 -16 -48.999c-8.66699 -20.667 -19.334 -39.667 -32.001 -57
s-27.334 -32.5 -44.001 -45.5s-35.334 -23.167 -56.001 -30.5s-43.334 -11 -68.001 -11c-32 0 -60.833 7.83301 -86.5 23.5s-44.5 36.5 -56.5 62.5h-1l-24 -76h-91l138 785h138l-39 -218c-1.33301 -6.66699 -2.5 -13.334 -3.5 -20.001s-2.16699 -12.667 -3.5 -18l-4 -20h1z
" />
    <glyph glyph-name="c" unicode="c" horiz-adv-x="530" 
d="M494 194c-4.66699 -17.333 -10.3262 -34.1689 -16.9932 -50.502s-14.667 -31.5 -24 -45.5c-20.667 -32 -47.834 -58 -81.501 -78s-73.5 -30 -119.5 -30c-46.667 0 -85.834 12 -117.501 36s-53.5 54 -65.5 90c-6.66699 18.667 -9.83398 39 -9.50098 61
s2.16602 43.333 5.49902 64l17 95c3.33301 20.667 9.16602 42.334 17.499 65.001s18.166 43 29.499 61c20.667 32 47.667 58 81 78s73 30 119 30c46.667 0 86 -12 118 -36s53.667 -54 65 -90c8 -26 11 -54.667 9 -86h-139c0.666992 5.33301 0.833984 10.333 0.500977 15
s-0.833008 9.33398 -1.5 14.001c-1.33301 14 -6.83301 26.167 -16.5 36.5s-24.5 15.5 -44.5 15.5c-18.667 0 -34.334 -4.33301 -47.001 -13s-23.667 -20.334 -33 -35.001c-5.33301 -9.33301 -9.83301 -19.833 -13.5 -31.5s-6.83398 -24.167 -9.50098 -37.5l-15 -91
c-1.33301 -9.33301 -2.33301 -19.166 -3 -29.499s-0.333984 -19.833 0.999023 -28.5c1.33301 -14 6.83301 -26.167 16.5 -36.5s24.5 -15.5 44.5 -15.5c22.667 0 42.334 6.83301 59.001 20.5s27.667 31.167 33 52.5h141z" />
    <glyph glyph-name="d" unicode="d" horiz-adv-x="571" 
d="M387 319c2 13.333 2.66797 27.1641 2.00098 41.4971s-3.5 27.333 -8.5 39s-12.667 21.334 -23 29.001s-23.5 11.5 -39.5 11.5c-14 0 -26.667 -3.16699 -38 -9.5s-21.166 -14.666 -29.499 -24.999s-15.333 -22.5 -21 -36.5s-9.83398 -28.667 -12.501 -44l-14 -84
c-4 -24 -5.66699 -42.333 -5 -55c1.33301 -17.333 6.16602 -32.166 14.499 -44.499s22.5 -18.5 42.5 -18.5c12.667 0 25.5 3.5 38.5 10.5s25.333 17.167 37 30.5s22 30 31 50s15.5 42.667 19.5 68zM306.001 569.998c46 0 84.6631 -18.668 115.996 -56.001h1
c0.666992 6.66699 1.66699 13.334 3 20.001c1.33301 5.33301 2.33301 11.333 3 18s1.66699 13.334 3 20.001l38 213h138l-138 -785h-91v76h-1c-22 -28.667 -47.167 -50.167 -75.5 -64.5s-58.5 -21.5 -90.5 -21.5c-41.333 0 -76 12.5 -104 37.5s-44.667 60.167 -50 105.5
c-1.33301 12 -1.66602 26.333 -0.999023 43s2.33398 32.667 5.00098 48l19 104l11 49c4 17.333 9.33301 33.666 16 48.999c8.66699 20.667 19.334 39.667 32.001 57s27.334 32.5 44.001 45.5s35.167 23.167 55.5 30.5s42.5 11 66.5 11z" />
    <glyph glyph-name="e" unicode="e" horiz-adv-x="542" 
d="M262 109c21.333 0 38.6689 6.16699 52.002 18.5s24 27.166 32 44.499h140c-4.66699 -13.333 -9.66699 -26.333 -15 -39s-11.666 -24.334 -18.999 -35.001c-20.667 -32 -47.667 -58 -81 -78s-73 -30 -119 -30c-46.667 0 -85.834 12 -117.501 36s-53.5 54 -65.5 90
c-6.66699 18.667 -9.83398 39 -9.50098 61s2.16602 43.333 5.49902 64l17 95c3.33301 20.667 9.16602 42.334 17.499 65.001s18.166 43 29.499 61c20.667 32 47.667 58 81 78s73 30 119 30c46.667 0 85.834 -11.5 117.501 -34.5s53.5 -52.5 65.5 -88.5
c6.66699 -18.667 9.83398 -39.5 9.50098 -62.5s-2.16602 -44.833 -5.49902 -65.5l-14 -76h-298l-4 -24c-1.33301 -9.33301 -2.33301 -19.166 -3 -29.499s-0.333984 -19.833 0.999023 -28.5c1.33301 -14 7.33301 -26.167 18 -36.5s26 -15.5 46 -15.5zM244.003 406
c-5.33301 -8 -9.66602 -16.999 -12.999 -26.999s-6.33301 -20.667 -9 -32h160c1.33301 9.33301 2.5 18.833 3.5 28.5s0.833008 18.5 -0.5 26.5c-1.33301 14 -6.83301 26.167 -16.5 36.5s-24.5 15.5 -44.5 15.5c-18.667 0 -34.334 -4.33301 -47.001 -13
s-23.667 -20.334 -33 -35.001z" />
    <glyph glyph-name="f" unicode="f" horiz-adv-x="376" 
d="M457 663c-5.33301 0.666992 -11.667 1.16797 -19 1.50098s-14 0.5 -20 0.5c-32 0 -56.833 -5.5 -74.5 -16.5s-29.167 -31.833 -34.5 -62.5l-4 -26h121l-21 -119h-121l-104 -594h-138l104 594h-81l21 119h81l8 43c12.667 70.667 39.667 120.5 81 149.5s95 43.5 161 43.5
c13.333 0 26.333 -0.333008 39 -1s20.667 -1.33398 24 -2.00098z" />
    <glyph glyph-name="g" unicode="g" horiz-adv-x="571" 
d="M388 318c2 13.333 2.66797 27.1641 2.00098 41.4971s-3.5 27.333 -8.5 39s-12.667 21.334 -23 29.001s-23.5 11.5 -39.5 11.5c-14 0 -26.667 -3.16699 -38 -9.5s-21.166 -14.666 -29.499 -24.999s-15.333 -22.5 -21 -36.5s-9.83398 -28.667 -12.501 -44l-12 -74
c-4 -24 -5.66699 -42.333 -5 -55c1.33301 -17.333 6.16602 -32.166 14.499 -44.499s22.5 -18.5 42.5 -18.5c12.667 0 25.5 3.5 38.5 10.5s25.333 17.167 37 30.5s22 30 31 50s15.5 42.667 19.5 68zM471.001 5.99805c-3.33301 -17.333 -7.00684 -33.667 -11.0068 -49
s-8.33301 -28.666 -13 -39.999c-17.333 -48.667 -45.833 -86.667 -85.5 -114s-85.5 -41 -137.5 -41c-28 0 -53.833 4 -77.5 12s-44.5 19.833 -62.5 35.5s-32.667 35.167 -44 58.5s-18 50.333 -20 81h135c3.33301 -19.333 11.833 -35 25.5 -47s31.5 -18 53.5 -18
c24.667 0 45.334 8.83301 62.001 26.5s28 44.5 34 80.5l2 12c1.33301 6 2.5 12.5 3.5 19.5s2.16699 13.167 3.5 18.5l4 20h-1c-20 -20.667 -40.333 -36 -61 -46s-43.667 -15 -69 -15c-40 0 -73.833 12.5 -101.5 37.5s-44.167 60.167 -49.5 105.5
c-1.33301 12 -1.66602 26.333 -0.999023 43s2.33398 32.667 5.00098 48l17 94l11 49c4 17.333 9.33301 33.666 16 48.999c8.66699 20.667 19.334 39.667 32.001 57s27.334 32.5 44.001 45.5s35.334 23.167 56.001 30.5s43.334 11 68.001 11c32 0 60.833 -7.83301 86.5 -23.5
s44.5 -36.5 56.5 -62.5h1l24 76h91z" />
    <glyph glyph-name="h" unicode="h" horiz-adv-x="585" 
d="M349 0l55.002 320.001c4 24 5.66699 42.333 5 55c-1.33301 17.333 -6 32.166 -14 44.499s-22 18.5 -42 18.5c-25.333 0 -50.333 -13.667 -75 -41s-41.667 -66.666 -51 -117.999l-48 -279h-138l138 785h138l-39 -218c-1.33301 -6.66699 -2.5 -13.334 -3.5 -20.001
s-2.16699 -12.667 -3.5 -18l-4 -20h1c20 20.667 40.5 36 61.5 46s44.167 15 69.5 15c40 0 73.833 -12.5 101.5 -37.5s44.167 -60.167 49.5 -105.5c1.33301 -12 1.66602 -26.333 0.999023 -43s-2.33398 -32.667 -5.00098 -48l-59 -336h-138z" />
    <glyph glyph-name="i" unicode="i" horiz-adv-x="274" 
d="M136 560h138l-98 -560h-138zM175 781h138l-25 -141h-138z" />
    <glyph glyph-name="j" unicode="j" horiz-adv-x="282" 
d="M182 781h139l-25 -141h-139zM143 560l139 -0.00195312l-105 -593c-6.66699 -38 -17 -70 -31 -96s-31 -46.833 -51 -62.5s-43 -27 -69 -34s-54.667 -10.5 -86 -10.5c-13.333 0 -25 0.333008 -35 1s-17.333 1.33398 -22 2.00098l24 132
c6 -0.666992 11.833 -1.16699 17.5 -1.5s11.5 -0.5 17.5 -0.5c28.667 0 51 6.33301 67 19s26.667 34.334 32 65.001z" />
    <glyph glyph-name="k" unicode="k" horiz-adv-x="550" 
d="M356 0l-87 274l-50 -46l-40 -228h-138l138 785h138l-69 -390l177 165h180l-223 -199l132 -361h-158z" />
    <glyph glyph-name="l" unicode="l" horiz-adv-x="280" 
d="M179 785h138l-138 -785h-138z" />
    <glyph glyph-name="m" unicode="m" horiz-adv-x="871" 
d="M476 0h-138l55 320c4 24 5.66699 42.333 5 55c-1.33301 17.333 -6 32.166 -14 44.499s-21.333 18.5 -40 18.5c-24 0 -47.167 -13.667 -69.5 -41s-38.166 -66.666 -47.499 -117.999l-48 -279h-138l98 560h91v-76h1c44 57.333 96.333 86 157 86
c32 0 59.5 -8.16699 82.5 -24.5s40.167 -39.5 51.5 -69.5l7 8c44 57.333 96.333 86 157 86c40 0 73.833 -12.5 101.5 -37.5s44.167 -60.167 49.5 -105.5c1.33301 -12 1.66602 -26.333 0.999023 -43s-2.33398 -32.667 -5.00098 -48l-59 -336h-138l55 320
c4 24 5.66699 42.333 5 55c-1.33301 17.333 -6 32.166 -14 44.499s-21.333 18.5 -40 18.5c-24 0 -47.167 -13.667 -69.5 -41s-38.166 -66.666 -47.499 -117.999z" />
    <glyph glyph-name="n" unicode="n" horiz-adv-x="585" 
d="M399 570c40 0 73.834 -12.5 101.501 -37.5s44.167 -60.167 49.5 -105.5c1.33301 -12 1.66602 -26.333 0.999023 -43s-2.33398 -32.667 -5.00098 -48l-59 -336h-138l55 320c4 24 5.66699 42.333 5 55c-1.33301 17.333 -6 32.166 -14 44.499s-22 18.5 -42 18.5
c-25.333 0 -50.333 -13.667 -75 -41s-41.667 -66.666 -51 -117.999l-48 -279h-138l98 560h91v-76h1c22 28.667 47.333 50.167 76 64.5s59.334 21.5 92.001 21.5z" />
    <glyph glyph-name="o" unicode="o" horiz-adv-x="543" 
d="M260 121c18.667 0 34.334 4.33301 47.001 13s23.667 20.334 33 35.001c5.33301 9.33301 10 19.833 14 31.5s7.33301 24.167 10 37.5l15 91c1.33301 9.33301 2.5 19.166 3.5 29.499s0.833008 19.833 -0.5 28.5c-1.33301 14 -6.83301 26.167 -16.5 36.5
s-24.5 15.5 -44.5 15.5c-18.667 0 -34.334 -4.33301 -47.001 -13s-23.667 -20.334 -33 -35.001c-5.33301 -9.33301 -10 -19.833 -14 -31.5s-7.33301 -24.167 -10 -37.5l-15 -91c-1.33301 -9.33301 -2.5 -19.166 -3.5 -29.499s-0.833008 -19.833 0.5 -28.5
c1.33301 -14 6.83301 -26.167 16.5 -36.5s24.5 -15.5 44.5 -15.5zM252 -10c-46.667 0 -85.834 12 -117.501 36s-53.5 54 -65.5 90c-6.66699 18.667 -9.83398 39 -9.50098 61s2.16602 43.333 5.49902 64l17 95c3.33301 20.667 9.16602 42.334 17.499 65.001
s18.166 43 29.499 61c20.667 32 47.667 58 81 78s73 30 119 30c46.667 0 85.834 -12 117.501 -36s53.5 -54 65.5 -90c6.66699 -18.667 9.83398 -39 9.50098 -61s-2.16602 -43.333 -5.49902 -64l-17 -95c-3.33301 -20.667 -9.16602 -42.334 -17.499 -65.001
s-18.166 -43 -29.499 -61c-20.667 -32 -47.667 -58 -81 -78s-73 -30 -119 -30z" />
    <glyph glyph-name="p" unicode="p" 
d="M222 241c-2 -13.333 -2.66797 -27.1631 -2.00098 -41.4961s3.5 -27.333 8.5 -39s12.667 -21.334 23 -29.001s23.5 -11.5 39.5 -11.5c14 0 26.667 3.16699 38 9.5s21.166 14.666 29.499 24.999s15.333 22.5 21 36.5s9.83398 28.667 12.501 44l14 84
c4 24 5.66699 42.333 5 55c-1.33301 17.333 -6.16602 32.166 -14.499 44.499s-22.5 18.5 -42.5 18.5c-12.667 0 -25.5 -3.5 -38.5 -10.5s-25.333 -17.333 -37 -31s-22 -30.334 -31 -50.001s-15.5 -42.167 -19.5 -67.5zM302.999 -9.99707c-46 0 -84.6631 18.667 -115.996 56
h-1c-0.666992 -6.66699 -1.66699 -13.334 -3 -20.001c-1.33301 -5.33301 -2.33301 -11.5 -3 -18.5s-1.66699 -13.5 -3 -19.5l-42 -232h-138l142 804h91v-76h1c22 28.667 47.167 50.167 75.5 64.5s58.5 21.5 90.5 21.5c41.333 0 76 -12.5 104 -37.5s44.667 -60.167 50 -105.5
c1.33301 -12 1.66602 -26.333 0.999023 -43s-2.33398 -32.667 -5.00098 -48l-19 -104l-11 -49c-4 -17.333 -9.33301 -33.666 -16 -48.999c-8.66699 -20.667 -19.334 -39.667 -32.001 -57s-27.334 -32.5 -44.001 -45.5s-35.167 -23.167 -55.5 -30.5s-42.5 -11 -66.5 -11z" />
    <glyph glyph-name="q" unicode="q" horiz-adv-x="571" 
d="M388 318c2 13.333 2.66797 27.1641 2.00098 41.4971s-3.5 27.333 -8.5 39s-12.667 21.334 -23 29.001s-23.5 11.5 -39.5 11.5c-14 0 -26.667 -3.16699 -38 -9.5s-21.166 -14.666 -29.499 -24.999s-15.333 -22.5 -21 -36.5s-9.83398 -28.667 -12.501 -44l-14 -84
c-4 -24 -5.66699 -42.333 -5 -55c1.33301 -17.333 6.16602 -32.166 14.499 -44.499s22.5 -18.5 42.5 -18.5c12.667 0 25.5 3.5 38.5 10.5s25.333 17.167 37 30.5s22 30 31 50s15.5 42.667 19.5 68zM341.001 50.998c-20 -20.667 -40.5059 -35.999 -61.5059 -45.999
s-44.167 -15 -69.5 -15c-40 0 -73.833 12.5 -101.5 37.5s-44.167 60.167 -49.5 105.5c-1.33301 12 -1.66602 26.333 -0.999023 43s2.33398 32.667 5.00098 48l19 104l11 49c4 17.333 9.33301 33.666 16 48.999c8.66699 20.667 19.334 39.667 32.001 57
s27.334 32.5 44.001 45.5s35.334 23.167 56.001 30.5s43.334 11 68.001 11c32 0 60.833 -7.83301 86.5 -23.5s44.5 -36.5 56.5 -62.5h1l24 76h91l-142 -804h-138l43 237c1.33301 6 2.5 12.5 3.5 19.5s2.16699 13.167 3.5 18.5l4 20h-1z" />
    <glyph glyph-name="r" unicode="r" horiz-adv-x="434" 
d="M179 0l-137.998 -0.00195312l98 560h91l-1 -92h1c27.333 38.667 55.166 65.334 83.499 80.001s58.833 22 91.5 22c14.667 0 28.167 -0.833008 40.5 -2.5s24.166 -4.16699 35.499 -7.5l-27 -137c-21.333 7.33301 -45 11 -71 11c-18 0 -35.5 -3.66699 -52.5 -11
s-32.333 -17.666 -46 -30.999s-25.5 -29.5 -35.5 -48.5s-17 -40.167 -21 -63.5z" />
    <glyph glyph-name="s" unicode="s" horiz-adv-x="495" 
d="M238 236c-50.667 18.667 -87.002 40.666 -109.002 65.999s-33 57 -33 95c0 26.667 5.33301 50.667 16 72s25.167 39.5 43.5 54.5s39.5 26.5 63.5 34.5s49.333 12 76 12c24.667 0 48.5 -3.16699 71.5 -9.5s43.333 -16.166 61 -29.499s31.834 -30.666 42.501 -51.999
s16.667 -47 18 -77h-131c-3.33301 18.667 -9.83301 33 -19.5 43s-24.5 15 -44.5 15s-35.5 -5 -46.5 -15s-16.5 -21.333 -16.5 -34c0 -13.333 4.33301 -25 13 -35s25.334 -19.333 50.001 -28c22.667 -8 43.667 -17 63 -27s36 -21.833 50 -35.5s25 -29.834 33 -48.501
s12 -40.667 12 -66c0 -28 -5.83301 -53.167 -17.5 -75.5s-27.167 -41.333 -46.5 -57s-41.5 -27.667 -66.5 -36s-50.833 -12.5 -77.5 -12.5c-61.333 0 -111 16 -149 48s-57.333 78.333 -58 139h131c6 -50 33 -75 81 -75c20.667 0 37.167 6.5 49.5 19.5s18.5 27.5 18.5 43.5
c0 8 -1.16699 15.167 -3.5 21.5s-6.5 12.333 -12.5 18s-14 11 -24 16s-22.667 10.167 -38 15.5z" />
    <glyph glyph-name="t" unicode="t" horiz-adv-x="397" 
d="M151 441l-85.998 -0.00195312l21 119h86l25 140h138l-25 -140h117l-21 -119h-117l-37 -216c-2.66699 -14 -4.16699 -27.167 -4.5 -39.5s1.5 -23 5.5 -32s10.667 -16.167 20 -21.5s22.666 -8 39.999 -8c11.333 0 25.666 1 42.999 3l-22 -127
c-10 -1.33301 -20 -2.16602 -30 -2.49902s-18.333 -0.5 -25 -0.5c-57.333 0 -100.333 11.333 -129 34s-43.667 58.334 -45 107.001c-0.666992 22 2 51.333 8 88z" />
    <glyph glyph-name="u" unicode="u" horiz-adv-x="585" 
d="M224 -10c-40 0 -73.834 12.5 -101.501 37.5s-44.167 60.167 -49.5 105.5c-1.33301 12 -1.66602 26.333 -0.999023 43s2.33398 32.667 5.00098 48l59 336h138l-55 -320c-4 -24 -5.66699 -42.333 -5 -55c1.33301 -17.333 6 -32.166 14 -44.499s22 -18.5 42 -18.5
c25.333 0 50.333 13.667 75 41s41.667 66.666 51 117.999l48 279h138l-98 -560h-91v76h-1c-22 -28.667 -47.333 -50.167 -76 -64.5s-59.334 -21.5 -92.001 -21.5z" />
    <glyph glyph-name="v" unicode="v" horiz-adv-x="518" 
d="M301 0h-145l-81 560h140l38 -387h2l173 387h151z" />
    <glyph glyph-name="w" unicode="w" horiz-adv-x="771" 
d="M824 560l-243 -560h-137l-28 342h-2l-148 -342h-137l-46 560h139l10 -363h2l154 363h121l26 -362h2l139 362h148z" />
    <glyph glyph-name="x" unicode="x" horiz-adv-x="520" 
d="M237 560l60 -160l108 160h158l-210 -271l127 -289h-146l-69 185l-128 -185h-157l228 295l-115 265h144z" />
    <glyph glyph-name="y" unicode="y" horiz-adv-x="537" 
d="M76 560l140.999 -0.000976562l52 -369h2l176 369h151l-306 -585c-34.667 -66.667 -73 -115.167 -115 -145.5s-89 -45.5 -141 -45.5c-18 0 -34.833 1.16699 -50.5 3.5s-30.167 5.5 -43.5 9.5l23 133c12.667 -3.33301 25.334 -6.16602 38.001 -8.49902s27 -3.5 43 -3.5
c29.333 0 52.833 7.5 70.5 22.5s33.167 35.167 46.5 60.5l10 20z" />
    <glyph glyph-name="z" unicode="z" horiz-adv-x="509" 
d="M6 0l19 111l294 318h-229l23 131h413l-20 -112l-292 -317h252l-23 -131h-437z" />
    <glyph glyph-name="braceleft" unicode="{" horiz-adv-x="437" 
d="M68 390h28.9941c16.667 0 31.834 2 45.501 6s25.5 11.167 35.5 21.5s17.833 24.666 23.5 42.999s8.83398 41.833 9.50098 70.5l2 115c0.666992 40 7 73.333 19 100s28.667 48.334 50 65.001s47.166 28.5 77.499 35.5s64.166 10.5 101.499 10.5h87l-17 -93h-48
c-16.667 0 -33.167 -1 -49.5 -3s-31.166 -7 -44.499 -15s-24.166 -20.167 -32.499 -36.5s-12.833 -38.833 -13.5 -67.5l-3 -109c0 -23.333 -2.16699 -45.333 -6.5 -66s-11.5 -39.667 -21.5 -57s-23 -32.5 -39 -45.5s-36 -23.5 -60 -31.5
c21.333 -8 37.666 -18.5 48.999 -31.5s18.833 -28 22.5 -45s4 -36 1 -57s-8.16699 -42.833 -15.5 -65.5l-37 -112c-9.33301 -28.667 -12.666 -51 -9.99902 -67s9.33398 -28 20.001 -36s23.834 -12.833 39.501 -14.5s31.834 -2.5 48.501 -2.5h48l-16 -93h-87
c-35.333 0 -66.5 3.5 -93.5 10.5s-48.5 18.5 -64.5 34.5s-25.667 37.333 -29 64s1.33398 60 14.001 100l38 118c9.33301 28.667 14.333 52 15 70s-2 32.333 -8 43s-15.167 18 -27.5 22s-26.833 6 -43.5 6h-29z" />
    <glyph glyph-name="bar" unicode="|" horiz-adv-x="337" 
d="M229 859h121l-185 -1049h-121z" />
    <glyph glyph-name="braceright" unicode="}" horiz-adv-x="437" 
d="M425 277h-28.9951c-16.667 0 -31.667 -2 -45 -6s-25 -11.333 -35 -22s-18 -25 -24 -43s-9.33301 -41.333 -10 -70l-2 -118c-1.33301 -40 -7.83301 -73.333 -19.5 -100s-28.167 -48 -49.5 -64s-47 -27.5 -77 -34.5s-63.667 -10.5 -101 -10.5h-86l16 93h47
c16.667 0 33.167 0.833008 49.5 2.5s31.166 6.5 44.499 14.5s24.166 20 32.499 36s12.833 38.333 13.5 67l3 112c0.666992 22.667 3.16699 44.5 7.5 65.5s11.333 40 21 57s22.5 32 38.5 45s36 23.5 60 31.5c-21.333 8 -37.666 18.5 -48.999 31.5s-18.833 28.167 -22.5 45.5
s-4.16699 36.333 -1.5 57s8 42.667 16 66l37 109c9.33301 28.667 12.666 51.167 9.99902 67.5s-9.33398 28.5 -20.001 36.5s-23.834 13 -39.501 15s-31.834 3 -48.501 3h-48l17 93h87c34.667 0 65.667 -3.5 93 -10.5s49 -18.833 65 -35.5s25.5 -38.334 28.5 -65.001
s-1.83301 -60 -14.5 -100l-38 -115c-9.33301 -28.667 -14.333 -52.167 -15 -70.5s2 -32.666 8 -42.999s15.167 -17.5 27.5 -21.5s26.833 -6 43.5 -6h29z" />
    <glyph glyph-name="asciitilde" unicode="~" horiz-adv-x="563" 
d="M314 341c-23.333 18 -40.999 31 -52.999 39s-24.333 11.667 -37 11c-14.667 -0.666992 -26.334 -6.16699 -35.001 -16.5s-15.667 -29.5 -21 -57.5h-101c4 24.667 9.83301 48.334 17.5 71.001s17.667 42.667 30 60s27.5 31.333 45.5 42s39.333 16.334 64 17.001
c33.333 0.666992 68 -12.333 104 -39c23.333 -18 41.166 -31 53.499 -39s24.833 -11.667 37.5 -11c14.667 0.666992 26.334 6.16699 35.001 16.5s15.667 29.5 21 57.5h101c-4 -24.667 -9.83301 -48.334 -17.5 -71.001s-17.667 -42.667 -30 -60s-27.5 -31.333 -45.5 -42
s-39.333 -16.334 -64 -17.001c-33.333 -0.666992 -68.333 12.333 -105 39z" />
    <glyph glyph-name="uni00A0" unicode="&#xa0;" horiz-adv-x="220" 
 />
    <glyph glyph-name="exclamdown" unicode="&#xa1;" horiz-adv-x="281" 
d="M218 309l-65 -499h-153l110 499h108zM283 560l-27 -157h-149l27 157h149z" />
    <glyph glyph-name="cent" unicode="&#xa2;" 
d="M522 234c-4.66699 -17.333 -10.3301 -34.167 -16.9971 -50.5s-14.667 -31.5 -24 -45.5c-19.333 -30 -44.5 -54.833 -75.5 -74.5s-67.5 -30.834 -109.5 -33.501l-17 -100h-58l18 103c-36 6.66699 -66.167 21.167 -90.5 43.5s-41.5 48.833 -51.5 79.5
c-6.66699 18.667 -9.83398 39 -9.50098 61s2.16602 43.333 5.49902 64l17 95c3.33301 20.667 9.16602 42.334 17.499 65.001s18.166 43 29.499 61c19.333 30 44 54.667 74 74s66 30.333 108 33l15 92h59l-17 -95c36.667 -6.66699 67.334 -21 92.001 -43s42 -48.333 52 -79
c8 -26 11 -54.667 9 -86h-125c2 18 -0.5 35.5 -7.5 52.5s-20.167 29.167 -39.5 36.5l-59 -334c19.333 5.33301 35.333 15.5 48 30.5s22 31.833 28 50.5h128zM216.004 206.999c5.33301 -28 19.999 -46 43.999 -54l59 336c-26.667 -8 -47.667 -26 -63 -54
c-9.33301 -16 -16.666 -39 -21.999 -69l-16 -90c-5.33301 -30 -6 -53 -2 -69z" />
    <glyph glyph-name="sterling" unicode="&#xa3;" 
d="M329 115c10.667 0 21.668 1.66504 33.001 4.99805s21.666 8.83301 30.999 16.5s17.5 17.834 24.5 30.501s11.833 28.334 14.5 47.001h119c-6.66699 -43.333 -17.334 -78.833 -32.001 -106.5s-32.334 -49.5 -53.001 -65.5s-43.667 -27 -69 -33s-51.666 -9 -78.999 -9h-303
l20 117c10.667 0 20 1.66699 28 5s15.333 9 22 17s12.334 18.5 17.001 31.5s8.66699 29.167 12 48.5l22 122h-79l12 70h79l23 130c12 69.333 38 123.166 78 161.499s90 57.5 150 57.5c28.667 0 55 -4.5 79 -13.5s44.5 -22.333 61.5 -40s29.833 -39.5 38.5 -65.5
s12 -56.333 10 -91h-123c0.666992 34 -5.83301 58.333 -19.5 73s-33.167 22 -58.5 22c-50 0 -80 -30.667 -90 -92l-25 -142h157l-12 -70h-157l-19 -109c-6.66699 -37.333 -15.667 -64.166 -27 -80.499s-24 -27.833 -38 -34.5v-2h153z" />
    <glyph glyph-name="yen" unicode="&#xa5;" 
d="M354 177l-31 -177h-135l31 177h-185l14 80h185l15 86h-185l14 80h158l-133 327h145l89 -249l178 249h158l-248 -327h157l-14 -80h-184l-15 -86h184l-14 -80h-184z" />
    <glyph glyph-name="brokenbar" unicode="&#xa6;" horiz-adv-x="337" 
d="M123 259h121l-79 -449h-121zM229 859h121l-79 -449h-121z" />
    <glyph glyph-name="section" unicode="&#xa7;" horiz-adv-x="528" 
d="M68 340c5.33301 28 18.6641 53.001 39.9971 75.001s50 38.667 86 50c-25.333 18.667 -42.166 37.334 -50.499 56.001s-12.5 35.667 -12.5 51c0 28 5.33301 53 16 75s25.334 40.667 44.001 56s40 27 64 35s49.667 12 77 12c58.667 0 106 -14.667 142 -44s54 -73 54 -131
h-121c-3.33301 43.333 -30.666 65 -81.999 65c-22 0 -39.333 -5.33301 -52 -16s-19 -24.667 -19 -42c0 -14.667 6.66699 -27.834 20 -39.501s34 -23.834 62 -36.501l27 -12c21.333 -9.33301 41 -19.666 59 -30.999s33.5 -23.833 46.5 -37.5s23.167 -28.667 30.5 -45
s11 -34.166 11 -53.499c0 -31.333 -9.66699 -61.333 -29 -90s-48 -50.334 -86 -65.001c19.333 -14 33 -29.833 41 -47.5s12 -36.167 12 -55.5c0 -30.667 -6 -57.667 -18 -81s-27.833 -43 -47.5 -59s-42 -28.167 -67 -36.5s-50.833 -12.5 -77.5 -12.5
c-66 0 -118 16.833 -156 50.5s-57.667 80.5 -59 140.5h123c2.66699 -26 11.667 -46.333 27 -61s37.333 -22 66 -22c25.333 0 45.5 7 60.5 21s22.5 31.333 22.5 52c0 33.333 -28 59.666 -84 78.999l-26 9c-30 11.333 -54.5 23.833 -73.5 37.5s-33.833 27.834 -44.5 42.501
s-18 29.167 -22 43.5s-6 27.833 -6 40.5c0 5.33301 0.166992 10.166 0.5 14.499s0.833008 8.5 1.5 12.5zM278.998 402.001c-23.333 -0.666992 -43.668 -8.16992 -61.001 -22.5029s-26 -31.166 -26 -50.499c0 -13.333 5.33301 -26.166 16 -38.499
s27.334 -23.166 50.001 -32.499l55 -22c20 0.666992 37.667 8.16699 53 22.5s23 31.5 23 51.5c0 14 -5.5 27.5 -16.5 40.5s-27.5 24.167 -49.5 33.5z" />
    <glyph glyph-name="dieresis" unicode="&#xa8;" horiz-adv-x="530" 
d="M184 674l23 131h123l-23 -131h-123zM399 674l23 131h122l-23 -131h-122z" />
    <glyph glyph-name="copyright" unicode="&#xa9;" horiz-adv-x="839" 
d="M513 264c5.33301 12.667 7.99707 32.334 7.99707 59.001h93c-0.666992 -20.667 -2.16699 -38.167 -4.5 -52.5s-5.16602 -25.833 -8.49902 -34.5c-11.333 -32.667 -31 -57.667 -59 -75s-58 -26 -90 -26h-6c-31.333 0 -60.666 8.5 -87.999 25.5s-47.666 41.5 -60.999 73.5
c-7.33301 19.333 -11 45 -11 77v130c0 16 0.833008 30 2.5 42s4.5 23.667 8.5 35c12.667 32 32.834 56.5 60.501 73.5s57.167 25.5 88.5 25.5h6c32 0 62 -8.66699 90 -26s47.667 -41.666 59 -72.999c3.33301 -9.33301 6.16602 -20.833 8.49902 -34.5
s3.83301 -30.167 4.5 -49.5h-93c-1.33301 27.333 -4 45.666 -8 54.999c-5.33301 12.667 -13.5 21.834 -24.5 27.501s-23.167 8.5 -36.5 8.5h-6c-12 0 -23.667 -2.83301 -35 -8.5s-19.666 -14.834 -24.999 -27.501c-5.33301 -11.333 -8 -27.333 -8 -48v-130
c0 -18.667 2.66699 -34.334 8 -47.001s13.666 -22 24.999 -28s23 -9 35 -9h6c13.333 0 25.5 3 36.5 9s19.167 15.333 24.5 28zM84.9971 375c0 53.333 8.5 103.333 25.5 150s41.333 87.5 73 122.5s69.667 62.5 114 82.5s93.833 30 148.5 30s104.334 -10 149.001 -30
s82.667 -47.5 114 -82.5s55.666 -75.833 72.999 -122.5s26 -96.667 26 -150s-8.66699 -103.333 -26 -150s-41.666 -87.5 -72.999 -122.5s-69.333 -62.5 -114 -82.5s-94.334 -30 -149.001 -30s-104.167 10 -148.5 30s-82.333 47.5 -114 82.5s-56 75.833 -73 122.5
s-25.5 96.667 -25.5 150zM134.997 375c0 -46 7.16699 -89.5 21.5 -130.5s35 -76.667 62 -107s59.667 -54.333 98 -72s81.5 -26.5 129.5 -26.5s91.167 8.83301 129.5 26.5s71 41.667 98 72s47.833 66 62.5 107s22 84.5 22 130.5s-7.33301 89.5 -22 130.5
s-35.5 76.667 -62.5 107s-59.667 54.333 -98 72s-81.5 26.5 -129.5 26.5s-91.167 -8.83301 -129.5 -26.5s-71 -41.667 -98 -72s-47.667 -66 -62 -107s-21.5 -84.5 -21.5 -130.5z" />
    <glyph glyph-name="ordfeminine" unicode="&#xaa;" horiz-adv-x="344" 
d="M134 659c8.66699 34 25.168 59.334 49.501 76.001s53.833 25 88.5 25c30.667 0 54.834 -6.33301 72.501 -19s29.167 -30.334 34.5 -53.001c2 -8 2.83301 -17.5 2.5 -28.5s-1.5 -22.167 -3.5 -33.5l-37 -208h-50v52h-1c-11.333 -16.667 -24.833 -30.5 -40.5 -41.5
s-33.167 -16.5 -52.5 -16.5c-30 0 -54.333 9.33301 -73 28s-26.334 46.667 -23.001 84c2 24 9.83301 44.333 23.5 61s31.167 28.667 52.5 36c8.66699 2.66699 17.667 4.66699 27 6s20.666 2 33.999 2h58l2 9c3.33301 17.333 2 30.833 -4 40.5s-17 14.5 -33 14.5
c-13.333 0 -24 -3.16699 -32 -9.5s-13.333 -14.5 -16 -24.5h-79zM184.001 527.001c-1.33301 -13.333 1 -24 7 -32s16.333 -12 31 -12c15.333 0 28.5 6.33301 39.5 19s18.167 29.667 21.5 51l2 14h-47c-4.66699 0 -9.33398 -0.333008 -14.001 -1s-8.66699 -1.66699 -12 -3
c-17.333 -6 -26.666 -18 -27.999 -36z" />
    <glyph glyph-name="guillemotleft" unicode="&#xab;" horiz-adv-x="555" 
d="M49 306l297 265l-27 -151l-141 -120l99 -120l-25 -139zM280 306l297 265l-27 -151l-142 -120l100 -120l-25 -139z" />
    <glyph glyph-name="logicalnot" unicode="&#xac;" 
d="M500 0h-490l132 750h490zM174 655l-99 -562l217 281zM467 93l99 562l-217 -281zM329 421l216 279h-333zM98 50h330l-116 276z" />
    <glyph glyph-name="registered" unicode="&#xae;" horiz-adv-x="478" 
d="M354 469l-43 87.999h-29v-88h-47v233h81c23.333 0 43 -5.83301 59 -17.5s24 -29.167 24 -52.5c0 -33.333 -14.333 -55.666 -43 -66.999l51 -96h-53zM281 656.999v-56h39c8 0 15 2.5 21 7.5s9 12.833 9 23.5c0 8.66699 -3.16699 15 -9.5 19s-14.5 6 -24.5 6h-35z
M116 582.999c0 28 4.66699 54.167 14 78.5s22.5 45.666 39.5 63.999s37.333 32.833 61 43.5s49.834 16 78.501 16s54.834 -5.33301 78.501 -16s44 -25.167 61 -43.5s30.167 -39.666 39.5 -63.999s14 -50.5 14 -78.5s-4.66699 -54.167 -14 -78.5s-22.5 -45.666 -39.5 -63.999
s-37.333 -32.833 -61 -43.5s-49.834 -16 -78.501 -16s-54.834 5.33301 -78.501 16s-44 25.167 -61 43.5s-30.167 39.666 -39.5 63.999s-14 50.5 -14 78.5zM145 582.999c0 -24 4 -46.5 12 -67.5s19.167 -39.333 33.5 -55s31.5 -28.167 51.5 -37.5s42.333 -14 67 -14
s47 4.66699 67 14s37.167 21.833 51.5 37.5s25.5 34 33.5 55s12 43.5 12 67.5s-4 46.5 -12 67.5s-19.167 39.333 -33.5 55s-31.5 28.167 -51.5 37.5s-42.333 14 -67 14s-47 -4.66699 -67 -14s-37.167 -21.833 -51.5 -37.5s-25.5 -34 -33.5 -55s-12 -43.5 -12 -67.5z" />
    <glyph glyph-name="macron" unicode="&#xaf;" horiz-adv-x="530" 
d="M515 675h-324l16 95h324z" />
    <glyph glyph-name="degree" unicode="&#xb0;" horiz-adv-x="317" 
d="M361 638c0 -17.333 -3.16699 -33.333 -9.5 -48s-15 -27.667 -26 -39s-23.667 -20.166 -38 -26.499s-29.833 -9.5 -46.5 -9.5s-32.334 3.16699 -47.001 9.5s-27.5 15.166 -38.5 26.499s-19.667 24.333 -26 39s-9.5 30.667 -9.5 48c0 16.667 3.16699 32.5 9.5 47.5
s15 28.167 26 39.5s23.833 20.166 38.5 26.499s30.334 9.5 47.001 9.5s32.167 -3.16699 46.5 -9.5s27 -15.166 38 -26.499s19.667 -24.5 26 -39.5s9.5 -30.833 9.5 -47.5zM300 638c0 17.333 -5.83301 32.166 -17.5 44.499s-25.5 18.5 -41.5 18.5
c-16.667 0 -30.667 -6.16699 -42 -18.5s-17 -27.166 -17 -44.499s5.66699 -32.166 17 -44.499s25.333 -18.5 42 -18.5c16 0 29.833 6.16699 41.5 18.5s17.5 27.166 17.5 44.499z" />
    <glyph glyph-name="plusminus" unicode="&#xb1;" 
d="M599 489l-21 -118h-199l-37 -211h-118l37 211h-199l21 118h199l37 211h118l-37 -211h199zM-5 -10l21 118h516l-21 -118h-516z" />
    <glyph glyph-name="twosuperior" unicode="&#xb2;" 
d="M500 0h-490l132 750h490zM174 655l-99 -562l217 281zM467 93l99 562l-217 -281zM329 421l216 279h-333zM98 50h330l-116 276z" />
    <glyph glyph-name="threesuperior" unicode="&#xb3;" 
d="M500 0h-490l132 750h490zM174 655l-99 -562l217 281zM467 93l99 562l-217 -281zM329 421l216 279h-333zM98 50h330l-116 276z" />
    <glyph glyph-name="acute" unicode="&#xb4;" horiz-adv-x="530" 
d="M519 832l-172 -175h-95l114 187h152z" />
    <glyph glyph-name="mu" unicode="&#xb5;" horiz-adv-x="588" 
d="M277 560l-54.999 -320.001c-4 -24 -5.66699 -42.333 -5 -55c1.33301 -17.333 6 -32.166 14 -44.499s22 -18.5 42 -18.5c25.333 0 50.333 13.667 75 41s41.667 66.666 51 117.999l48 279h138l-98 -560h-91l1 71h-1c-22 -25.333 -45.667 -45.166 -71 -59.499
s-53.333 -21.5 -84 -21.5c-27.333 0 -52.333 7 -75 21c0 -4.66699 -0.833008 -14 -2.5 -28s-3.83398 -27.333 -6.50098 -40l-33 -187h-127l142 804h138z" />
    <glyph glyph-name="mu" unicode="&#x3bc;" horiz-adv-x="588" 
d="M277 560l-54.999 -320.001c-4 -24 -5.66699 -42.333 -5 -55c1.33301 -17.333 6 -32.166 14 -44.499s22 -18.5 42 -18.5c25.333 0 50.333 13.667 75 41s41.667 66.666 51 117.999l48 279h138l-98 -560h-91l1 71h-1c-22 -25.333 -45.667 -45.166 -71 -59.499
s-53.333 -21.5 -84 -21.5c-27.333 0 -52.333 7 -75 21c0 -4.66699 -0.833008 -14 -2.5 -28s-3.83398 -27.333 -6.50098 -40l-33 -187h-127l142 804h138z" />
    <glyph glyph-name="paragraph" unicode="&#xb6;" horiz-adv-x="624" 
d="M301 331c-28 0.666992 -53.5 6.66699 -76.5 18s-42.667 26.5 -59 45.5s-28.5 40.833 -36.5 65.5s-10.667 51 -8 79c2.66699 29.333 10.5 56.833 23.5 82.5s29.5 48 49.5 67s43 34 69 45s53.333 16.5 82 16.5h301l-163 -925h-92l148 842h-84l-148 -842h-95z" />
    <glyph glyph-name="periodcentered" unicode="&#xb7;" horiz-adv-x="262" 
d="M104 483h164l-31 -173h-164z" />
    <glyph glyph-name="cedilla" unicode="&#xb8;" horiz-adv-x="530" 
d="M166 -142c3.33301 -21.333 16.333 -31.999 39 -31.999c10 0 18.167 3 24.5 9s9.83301 13 10.5 21c2 19.333 -12.333 33.666 -43 42.999l-24 7c-13.333 4 -22.333 9.16699 -27 15.5s-3 16.833 5 31.5l45 79l64 -11l-29 -64c12.667 -4 24.667 -8.83301 36 -14.5
s21.333 -12.667 30 -21s15.167 -17.833 19.5 -28.5s5.83301 -23 4.5 -37c-3.33301 -32 -16.166 -56.667 -38.499 -74s-48.833 -26 -79.5 -26c-32.667 0 -59.834 9 -81.501 27s-32.167 43 -31.5 75h76z" />
    <glyph glyph-name="onesuperior" unicode="&#xb9;" 
d="M500 0h-490l132 750h490zM174 655l-99 -562l217 281zM467 93l99 562l-217 -281zM329 421l216 279h-333zM98 50h330l-116 276z" />
    <glyph glyph-name="ordmasculine" unicode="&#xba;" horiz-adv-x="343" 
d="M226 491c11.333 0 20.833 2.5 28.5 7.5s14.167 11.833 19.5 20.5c6.66699 10.667 11.667 24.667 15 42l9 54c1.33301 6 2.16602 12 2.49902 18s-0.166992 11.667 -1.5 17c-1.33301 8.66699 -4.66602 16 -9.99902 22s-14 9 -26 9c-11.333 0 -20.833 -2.5 -28.5 -7.5
s-14.167 -11.833 -19.5 -20.5c-6.66699 -10.667 -11.667 -24.667 -15 -42l-9 -54c-1.33301 -6 -2.16602 -12 -2.49902 -18s0.166992 -11.667 1.5 -17c1.33301 -8.66699 4.66602 -16 9.99902 -22s14 -9 26 -9zM221 412c-28 0 -51.333 7.16699 -70 21.5s-31.667 32.5 -39 54.5
c-4 11.333 -6 23.5 -6 36.5s1 25.833 3 38.5l10 57c2.66699 12 6.33398 24.833 11.001 38.5s10.667 25.834 18 36.501c12 19.333 28 35 48 47s44 18 72 18s51.333 -7.16699 70 -21.5s31.667 -32.5 39 -54.5c4 -11.333 6 -23.5 6 -36.5s-1 -25.833 -3 -38.5l-10 -57
c-2.66699 -12 -6.33398 -24.833 -11.001 -38.5s-10.667 -25.834 -18 -36.501c-12 -19.333 -28 -35 -48 -47s-44 -18 -72 -18z" />
    <glyph glyph-name="guillemotright" unicode="&#xbb;" horiz-adv-x="554" 
d="M551 306l-297 -265l27 151l142 120l-100 120l25 139zM321 306l-297 -265l27 151l142 120l-100 120l25 139z" />
    <glyph glyph-name="onequarter" unicode="&#xbc;" 
d="M500 0h-490l132 750h490zM174 655l-99 -562l217 281zM467 93l99 562l-217 -281zM329 421l216 279h-333zM98 50h330l-116 276z" />
    <glyph glyph-name="onehalf" unicode="&#xbd;" 
d="M500 0h-490l132 750h490zM174 655l-99 -562l217 281zM467 93l99 562l-217 -281zM329 421l216 279h-333zM98 50h330l-116 276z" />
    <glyph glyph-name="threequarters" unicode="&#xbe;" 
d="M500 0h-490l132 750h490zM174 655l-99 -562l217 281zM467 93l99 562l-217 -281zM329 421l216 279h-333zM98 50h330l-116 276z" />
    <glyph glyph-name="questiondown" unicode="&#xbf;" horiz-adv-x="500" 
d="M350 308c3.33301 -34.667 0.829102 -64.832 -7.50391 -90.499s-19.833 -48.167 -34.5 -67.5s-30.834 -36 -48.501 -50l-50.5 -39.5c-16 -12.333 -29.833 -24.5 -41.5 -36.5s-18.167 -25 -19.5 -39c-2 -19.333 3.66699 -34.333 17 -45s31.333 -16 54 -16
c24.667 0 44.834 8.66699 60.501 26s24.834 37.666 27.501 60.999l2 23h132l-2 -23c-2.66699 -30.667 -10.667 -59 -24 -85s-30.333 -48.333 -51 -67s-44.334 -33.167 -71.001 -43.5s-55 -15.5 -85 -15.5c-35.333 0 -66.166 4.83301 -92.499 14.5s-48 22.834 -65 39.501
s-29.333 35.834 -37 57.501s-10.5 44.5 -8.5 68.5c2.66699 30 10.167 54.833 22.5 74.5s26.833 36.667 43.5 51s34.334 27.5 53.001 39.5s35.834 25.167 51.501 39.5s28.334 31.166 38.001 50.499s14.167 43.666 13.5 72.999h123zM399.996 560.002l-27 -157h-149l27 157h149
z" />
    <glyph glyph-name="Agrave" unicode="&#xc0;" horiz-adv-x="600" 
d="M373 566h-4l-98 -237h120zM212 193l-83 -193h-149l338 750h168l74 -750h-143l-15 193h-190zM222 994h152l115 -187h-96l-172 175z" />
    <glyph glyph-name="Aacute" unicode="&#xc1;" horiz-adv-x="600" 
d="M373 566h-4l-98 -237h120zM212 193l-83 -193h-149l338 750h168l74 -750h-143l-15 193h-190zM602 982l-172 -175h-95l114 187h152z" />
    <glyph glyph-name="Acircumflex" unicode="&#xc2;" horiz-adv-x="600" 
d="M373 566h-4l-98 -237h120zM212 193l-83 -193h-149l338 750h168l74 -750h-143l-15 193h-190zM475 1013l144 -205h-113l-87 113l-107 -113h-114l183 205h94z" />
    <glyph glyph-name="Atilde" unicode="&#xc3;" horiz-adv-x="600" 
d="M373 566h-4l-98 -237h120zM212 193l-83 -193h-149l338 750h168l74 -750h-143l-15 193h-190zM399 838l-20.499 17.5c-5.66699 5 -10.834 9 -15.501 12s-9.33398 5.16699 -14.001 6.5s-10.334 2 -17.001 2c-5.33301 0 -12.166 -3.66699 -20.499 -11
s-14.5 -21.666 -18.5 -42.999h-86c7.33301 50 23.333 88.667 48 116s54 41 88 41c30 0 58.667 -11.333 86 -34c8.66699 -6.66699 15.834 -12.5 21.501 -17.5s10.667 -9 15 -12s8.83301 -5.16699 13.5 -6.5s10.334 -2 17.001 -2c6 0 13 3.66699 21 11s14 21.666 18 42.999h87
c-7.33301 -50 -23.333 -88.667 -48 -116s-54.334 -41 -89.001 -41c-30 0 -58.667 11.333 -86 34z" />
    <glyph glyph-name="Adieresis" unicode="&#xc4;" horiz-adv-x="600" 
d="M373 566h-4l-98 -237h120zM212 193l-83 -193h-149l338 750h168l74 -750h-143l-15 193h-190zM250 824l23 131h123l-23 -131h-123zM465 824l23 131h122l-23 -131h-122z" />
    <glyph glyph-name="Aring" unicode="&#xc5;" horiz-adv-x="600" 
d="M373 566h-4l-98 -237h120zM212 193l-83 -193h-149l338 750h168l74 -750h-143l-15 193h-190zM416 867c14 0 25.167 5 33.5 15s12.5 21.667 12.5 35s-4.16699 25 -12.5 35s-19.5 15 -33.5 15c-14.667 0 -26 -5 -34 -15s-12 -21.667 -12 -35s4 -25 12 -35s19.333 -15 34 -15
zM416 1041c16.667 0 32.167 -3.16699 46.5 -9.5s27 -15.166 38 -26.499s19.667 -24.5 26 -39.5s9.5 -31.167 9.5 -48.5s-3.16699 -33.5 -9.5 -48.5s-15 -28.167 -26 -39.5s-23.667 -20.166 -38 -26.499s-29.833 -9.5 -46.5 -9.5s-32.334 3.16699 -47.001 9.5
s-27.5 15.166 -38.5 26.499s-19.667 24.5 -26 39.5s-9.5 31.167 -9.5 48.5s3.16699 33.5 9.5 48.5s15 28.167 26 39.5s23.833 20.166 38.5 26.499s30.334 9.5 47.001 9.5z" />
    <glyph glyph-name="AE" unicode="&#xc6;" horiz-adv-x="892" 
d="M452 219h-210l-128 -219h-158l457 750h543l-24 -133h-267l-29 -166h214l-24 -133h-214l-32 -184h267l-23 -134h-410zM323 355h153l47 268h-42z" />
    <glyph glyph-name="Ccedilla" unicode="&#xc7;" horiz-adv-x="603" 
d="M194 -142c3.33301 -21.333 16.332 -31.999 38.999 -31.999c10 0 18.167 3 24.5 9s9.83301 13 10.5 21c2 19.333 -12.333 33.666 -43 42.999l-24 7c-13.333 4 -22.333 9.16699 -27 15.5s-3 16.833 5 31.5l28 50c-38 14 -68.5 36.5 -91.5 67.5s-36.5 66.5 -40.5 106.5
c-1.33301 13.333 -1.5 28.666 -0.5 45.999s2.83301 33 5.5 47l41 236c6 35.333 16.167 68.5 30.5 99.5s32.833 58 55.5 81s49.5 41 80.5 54s66.5 19.5 106.5 19.5h8c30.667 0 58.667 -4.5 84 -13.5s47.166 -21.833 65.499 -38.5s33.166 -36.5 44.499 -59.5
s18 -48.5 20 -76.5c1.33301 -12 1.5 -26 0.5 -42s-2.16699 -30.667 -3.5 -44h-142c1.33301 9.33301 2.66602 20.333 3.99902 33s1.33301 23 0 31c-2 20.667 -9 37.667 -21 51s-32 20 -60 20h-8c-35.333 0 -63.166 -12.5 -83.499 -37.5s-33.833 -55.5 -40.5 -91.5l-41 -232
c-1.33301 -9.33301 -2.66602 -19.666 -3.99902 -30.999s-1.33301 -21 0 -29c2 -20.667 9.33301 -37.667 22 -51s32.667 -20 60 -20h6c34.667 0 62.667 12 84 36s35 55 41 93l2 12h141c-2.66699 -36 -10.5 -70.833 -23.5 -104.5s-31.167 -63.5 -54.5 -89.5
s-51.666 -46.833 -84.999 -62.5s-71 -23.5 -113 -23.5h-7c-7.33301 0 -12.666 0.333008 -15.999 1l-15 -34c12.667 -4 24.667 -8.83301 36 -14.5s21.333 -12.667 30 -21s15.167 -17.833 19.5 -28.5s5.83301 -23 4.5 -37c-3.33301 -32 -16.166 -56.667 -38.499 -74
s-48.833 -26 -79.5 -26c-32.667 0 -59.834 9 -81.501 27s-32.167 43 -31.5 75h76z" />
    <glyph glyph-name="Egrave" unicode="&#xc8;" horiz-adv-x="555" 
d="M176 750h443l-24 -133h-300l-29 -166h248l-24 -133h-248l-32 -185h300l-23 -133h-443zM216 994h152l115 -187h-96l-172 175z" />
    <glyph glyph-name="Eacute" unicode="&#xc9;" horiz-adv-x="555" 
d="M176 750h443l-24 -133h-300l-29 -166h248l-24 -133h-248l-32 -185h300l-23 -133h-443zM587 982l-172 -175h-95l114 187h152z" />
    <glyph glyph-name="Ecircumflex" unicode="&#xca;" horiz-adv-x="555" 
d="M176 750h443l-24 -133h-300l-29 -166h248l-24 -133h-248l-32 -185h300l-23 -133h-443zM473 1023l144 -205h-113l-87 113l-107 -113h-114l183 205h94z" />
    <glyph glyph-name="Edieresis" unicode="&#xcb;" horiz-adv-x="555" 
d="M176 750h443l-24 -133h-300l-29 -166h248l-24 -133h-248l-32 -185h300l-23 -133h-443zM233 824l23 131h123l-23 -131h-123zM448 824l23 131h122l-23 -131h-122z" />
    <glyph glyph-name="Igrave" unicode="&#xcc;" horiz-adv-x="291" 
d="M176 750h143l-132 -750h-143zM61 994h152l115 -187h-96l-172 175z" />
    <glyph glyph-name="Iacute" unicode="&#xcd;" horiz-adv-x="291" 
d="M176 750h143l-132 -750h-143zM455 982l-172 -175h-95l114 187h152z" />
    <glyph glyph-name="Icircumflex" unicode="&#xce;" horiz-adv-x="291" 
d="M176 750h143l-132 -750h-143zM325 1013l144 -205h-113l-87 113l-107 -113h-114l183 205h94z" />
    <glyph glyph-name="Idieresis" unicode="&#xcf;" horiz-adv-x="291" 
d="M176 750h143l-132 -750h-143zM91 824l23 131h123l-23 -131h-123zM306 824l23 131h122l-23 -131h-122z" />
    <glyph glyph-name="Eth" unicode="&#xd0;" horiz-adv-x="655" 
d="M424 750c40.667 0 73.6689 -5.33496 99.002 -16.002c36 -14.667 64.833 -37.167 86.5 -67.5s34.5 -65.166 38.5 -104.499c1.33301 -12.667 1.66602 -27.667 0.999023 -45s-2.33398 -33 -5.00098 -47l-38 -216c-10 -57.333 -30.333 -107.666 -61 -150.999
s-72.334 -73.333 -125.001 -90c-13.333 -4 -28.166 -7.16699 -44.499 -9.5s-33.5 -3.5 -51.5 -3.5h-248l60 342h-94l18 106h94l54 302h216zM325.002 610.998l-28.999 -163h119l-18 -106h-119l-36 -204h89c12.667 0 25.167 1.5 37.5 4.5s22.833 7.16699 31.5 12.5
c17.333 11.333 31.5 26.833 42.5 46.5s18.833 41.834 23.5 66.501l37 212c1.33301 9.33301 2.66602 19.666 3.99902 30.999s1.33301 21 0 29c-2 20.667 -9.5 37.667 -22.5 51s-35.833 20 -68.5 20h-91z" />
    <glyph glyph-name="Ntilde" unicode="&#xd1;" horiz-adv-x="655" 
d="M262 489c-0.666992 -6.66699 -1.66699 -13.335 -3 -20.002c-1.33301 -5.33301 -2.33301 -11.5 -3 -18.5s-1.66699 -13.5 -3 -19.5l-76 -431h-133l132 750h149l138 -489h1c0.666992 6.66699 1.66699 13.334 3 20.001c1.33301 5.33301 2.5 11.333 3.5 18
s2.16699 13.334 3.5 20.001l76 431h133l-132 -750h-151l-137 489h-1zM439 837.999l-20.499 17.5c-5.66699 5 -10.834 9 -15.501 12s-9.33398 5.16699 -14.001 6.5s-10.334 2 -17.001 2c-5.33301 0 -12.166 -3.66699 -20.499 -11s-14.5 -21.666 -18.5 -42.999h-86
c7.33301 50 23.333 88.667 48 116s54 41 88 41c30 0 58.667 -11.333 86 -34c8.66699 -6.66699 15.834 -12.5 21.501 -17.5s10.667 -9 15 -12s8.83301 -5.16699 13.5 -6.5s10.334 -2 17.001 -2c6 0 13 3.66699 21 11s14 21.666 18 42.999h87
c-7.33301 -50 -23.333 -88.667 -48 -116s-54.334 -41 -89.001 -41c-30 0 -58.667 11.333 -86 34z" />
    <glyph glyph-name="Ograve" unicode="&#xd2;" horiz-adv-x="621" 
d="M121 506c6 35.333 16.167 68.5 30.5 99.5s32.833 58 55.5 81s49.5 41 80.5 54s66.5 19.5 106.5 19.5h8c30.667 0 58.5 -4.83301 83.5 -14.5s46.833 -22.834 65.5 -39.501s33.5 -36.5 44.5 -59.5s17.833 -47.833 20.5 -74.5c1.33301 -12.667 1.66602 -27.667 0.999023 -45
s-2.33398 -33 -5.00098 -47l-41 -236c-6 -35.333 -16.167 -68.5 -30.5 -99.5s-32.833 -58 -55.5 -81s-49.5 -41 -80.5 -54s-66.5 -19.5 -106.5 -19.5h-8c-30.667 0 -58.5 4.83301 -83.5 14.5s-46.833 22.834 -65.5 39.501s-33.5 36.5 -44.5 59.5s-17.833 47.833 -20.5 74.5
c-1.33301 12.667 -1.66602 27.667 -0.999023 45s2.33398 33 5.00098 47zM470 490c1.33301 9.33301 2.66602 19.666 3.99902 30.999s1.33301 21 0 29c-2 20.667 -10.333 37.667 -25 51s-34.334 20 -59.001 20h-4c-35.333 0 -63.166 -12.5 -83.499 -37.5
s-33.833 -55.5 -40.5 -91.5l-40 -232c-1.33301 -9.33301 -2.66602 -19.666 -3.99902 -30.999s-1.33301 -21 0 -29c2 -20.667 10.333 -37.667 25 -51s34.334 -20 59.001 -20h4c35.333 0 63.166 12.5 83.499 37.5s33.833 55.5 40.5 91.5zM247 994h152l115 -187h-96l-172 175z
" />
    <glyph glyph-name="Oacute" unicode="&#xd3;" horiz-adv-x="621" 
d="M121 506c6 35.333 16.167 68.5 30.5 99.5s32.833 58 55.5 81s49.5 41 80.5 54s66.5 19.5 106.5 19.5h8c30.667 0 58.5 -4.83301 83.5 -14.5s46.833 -22.834 65.5 -39.501s33.5 -36.5 44.5 -59.5s17.833 -47.833 20.5 -74.5c1.33301 -12.667 1.66602 -27.667 0.999023 -45
s-2.33398 -33 -5.00098 -47l-41 -236c-6 -35.333 -16.167 -68.5 -30.5 -99.5s-32.833 -58 -55.5 -81s-49.5 -41 -80.5 -54s-66.5 -19.5 -106.5 -19.5h-8c-30.667 0 -58.5 4.83301 -83.5 14.5s-46.833 22.834 -65.5 39.501s-33.5 36.5 -44.5 59.5s-17.833 47.833 -20.5 74.5
c-1.33301 12.667 -1.66602 27.667 -0.999023 45s2.33398 33 5.00098 47zM470 490c1.33301 9.33301 2.66602 19.666 3.99902 30.999s1.33301 21 0 29c-2 20.667 -10.333 37.667 -25 51s-34.334 20 -59.001 20h-4c-35.333 0 -63.166 -12.5 -83.499 -37.5
s-33.833 -55.5 -40.5 -91.5l-40 -232c-1.33301 -9.33301 -2.66602 -19.666 -3.99902 -30.999s-1.33301 -21 0 -29c2 -20.667 10.333 -37.667 25 -51s34.334 -20 59.001 -20h4c35.333 0 63.166 12.5 83.499 37.5s33.833 55.5 40.5 91.5zM594 982l-172 -175h-95l114 187h152z
" />
    <glyph glyph-name="Ocircumflex" unicode="&#xd4;" horiz-adv-x="621" 
d="M121 506c6 35.333 16.167 68.5 30.5 99.5s32.833 58 55.5 81s49.5 41 80.5 54s66.5 19.5 106.5 19.5h8c30.667 0 58.5 -4.83301 83.5 -14.5s46.833 -22.834 65.5 -39.501s33.5 -36.5 44.5 -59.5s17.833 -47.833 20.5 -74.5c1.33301 -12.667 1.66602 -27.667 0.999023 -45
s-2.33398 -33 -5.00098 -47l-41 -236c-6 -35.333 -16.167 -68.5 -30.5 -99.5s-32.833 -58 -55.5 -81s-49.5 -41 -80.5 -54s-66.5 -19.5 -106.5 -19.5h-8c-30.667 0 -58.5 4.83301 -83.5 14.5s-46.833 22.834 -65.5 39.501s-33.5 36.5 -44.5 59.5s-17.833 47.833 -20.5 74.5
c-1.33301 12.667 -1.66602 27.667 -0.999023 45s2.33398 33 5.00098 47zM470 490c1.33301 9.33301 2.66602 19.666 3.99902 30.999s1.33301 21 0 29c-2 20.667 -10.333 37.667 -25 51s-34.334 20 -59.001 20h-4c-35.333 0 -63.166 -12.5 -83.499 -37.5
s-33.833 -55.5 -40.5 -91.5l-40 -232c-1.33301 -9.33301 -2.66602 -19.666 -3.99902 -30.999s-1.33301 -21 0 -29c2 -20.667 10.333 -37.667 25 -51s34.334 -20 59.001 -20h4c35.333 0 63.166 12.5 83.499 37.5s33.833 55.5 40.5 91.5zM472 1003l144 -205h-113l-87 113
l-107 -113h-114l183 205h94z" />
    <glyph glyph-name="Otilde" unicode="&#xd5;" horiz-adv-x="621" 
d="M121 506c6 35.333 16.167 68.5 30.5 99.5s32.833 58 55.5 81s49.5 41 80.5 54s66.5 19.5 106.5 19.5h8c30.667 0 58.5 -4.83301 83.5 -14.5s46.833 -22.834 65.5 -39.501s33.5 -36.5 44.5 -59.5s17.833 -47.833 20.5 -74.5c1.33301 -12.667 1.66602 -27.667 0.999023 -45
s-2.33398 -33 -5.00098 -47l-41 -236c-6 -35.333 -16.167 -68.5 -30.5 -99.5s-32.833 -58 -55.5 -81s-49.5 -41 -80.5 -54s-66.5 -19.5 -106.5 -19.5h-8c-30.667 0 -58.5 4.83301 -83.5 14.5s-46.833 22.834 -65.5 39.501s-33.5 36.5 -44.5 59.5s-17.833 47.833 -20.5 74.5
c-1.33301 12.667 -1.66602 27.667 -0.999023 45s2.33398 33 5.00098 47zM470 490c1.33301 9.33301 2.66602 19.666 3.99902 30.999s1.33301 21 0 29c-2 20.667 -10.333 37.667 -25 51s-34.334 20 -59.001 20h-4c-35.333 0 -63.166 -12.5 -83.499 -37.5
s-33.833 -55.5 -40.5 -91.5l-40 -232c-1.33301 -9.33301 -2.66602 -19.666 -3.99902 -30.999s-1.33301 -21 0 -29c2 -20.667 10.333 -37.667 25 -51s34.334 -20 59.001 -20h4c35.333 0 63.166 12.5 83.499 37.5s33.833 55.5 40.5 91.5zM419 848l-20.499 17.5
c-5.66699 5 -10.834 9 -15.501 12s-9.33398 5.16699 -14.001 6.5s-10.334 2 -17.001 2c-5.33301 0 -12.166 -3.66699 -20.499 -11s-14.5 -21.666 -18.5 -42.999h-86c7.33301 50 23.333 88.667 48 116s54 41 88 41c30 0 58.667 -11.333 86 -34
c8.66699 -6.66699 15.834 -12.5 21.501 -17.5s10.667 -9 15 -12s8.83301 -5.16699 13.5 -6.5s10.334 -2 17.001 -2c6 0 13 3.66699 21 11s14 21.666 18 42.999h87c-7.33301 -50 -23.333 -88.667 -48 -116s-54.334 -41 -89.001 -41c-30 0 -58.667 11.333 -86 34z" />
    <glyph glyph-name="Odieresis" unicode="&#xd6;" horiz-adv-x="621" 
d="M121 506c6 35.333 16.167 68.5 30.5 99.5s32.833 58 55.5 81s49.5 41 80.5 54s66.5 19.5 106.5 19.5h8c30.667 0 58.5 -4.83301 83.5 -14.5s46.833 -22.834 65.5 -39.501s33.5 -36.5 44.5 -59.5s17.833 -47.833 20.5 -74.5c1.33301 -12.667 1.66602 -27.667 0.999023 -45
s-2.33398 -33 -5.00098 -47l-41 -236c-6 -35.333 -16.167 -68.5 -30.5 -99.5s-32.833 -58 -55.5 -81s-49.5 -41 -80.5 -54s-66.5 -19.5 -106.5 -19.5h-8c-30.667 0 -58.5 4.83301 -83.5 14.5s-46.833 22.834 -65.5 39.501s-33.5 36.5 -44.5 59.5s-17.833 47.833 -20.5 74.5
c-1.33301 12.667 -1.66602 27.667 -0.999023 45s2.33398 33 5.00098 47zM470 490c1.33301 9.33301 2.66602 19.666 3.99902 30.999s1.33301 21 0 29c-2 20.667 -10.333 37.667 -25 51s-34.334 20 -59.001 20h-4c-35.333 0 -63.166 -12.5 -83.499 -37.5
s-33.833 -55.5 -40.5 -91.5l-40 -232c-1.33301 -9.33301 -2.66602 -19.666 -3.99902 -30.999s-1.33301 -21 0 -29c2 -20.667 10.333 -37.667 25 -51s34.334 -20 59.001 -20h4c35.333 0 63.166 12.5 83.499 37.5s33.833 55.5 40.5 91.5zM264 824l23 131h123l-23 -131h-123z
M479 824l23 131h122l-23 -131h-122z" />
    <glyph glyph-name="multiply" unicode="&#xd7;" 
d="M99 44l-71 87l204 171l-137 171l85 78l137 -171l201 174l70 -87l-200 -174l136 -171l-84 -78l-140 174z" />
    <glyph glyph-name="Oslash" unicode="&#xd8;" horiz-adv-x="621" 
d="M290 -10c-48 0 -89.666 11.333 -124.999 34l-37 -59h-85l69 110c-20.667 30 -33 64 -37 102c-1.33301 13.333 -1.5 28.666 -0.5 45.999s2.83301 33 5.5 47l41 236c6 35.333 16.167 68.5 30.5 99.5s32.833 58 55.5 81s49.5 41 80.5 54s66.5 19.5 106.5 19.5h8
c24 0 46.333 -3 67 -9s39.334 -14.667 56.001 -26l39 60h84l-70 -110c21.333 -29.333 34 -63.666 38 -102.999c1.33301 -12.667 1.66602 -27.667 0.999023 -45s-2.33398 -33 -5.00098 -47l-42 -236c-6 -35.333 -16.167 -68.5 -30.5 -99.5s-32.833 -58 -55.5 -81
s-49.5 -41 -80.5 -54s-66.5 -19.5 -106.5 -19.5h-7zM305.001 129c34.667 0 62.5 12.5 83.5 37.5s34.833 55.5 41.5 91.5l44 254l-231 -366c13.333 -11.333 32 -17 56 -17h6zM218.001 241l229.999 364c-12.667 10.667 -30.667 16 -54 16h-8
c-35.333 0 -63.166 -12.5 -83.499 -37.5s-33.833 -55.5 -40.5 -91.5z" />
    <glyph glyph-name="Ugrave" unicode="&#xd9;" horiz-adv-x="634" 
d="M577 244c-6 -35.333 -16.1699 -68.5029 -30.5029 -99.5029s-32.833 -58 -55.5 -81s-49.5 -41 -80.5 -54s-66.5 -19.5 -106.5 -19.5h-7c-31.333 0 -59.666 4.83301 -84.999 14.5s-47.166 22.834 -65.499 39.501s-33 36.334 -44 59.001s-17.833 47.334 -20.5 74.001
c-1.33301 13.333 -1.5 28.666 -0.5 45.999s2.83301 33 5.5 47l85 480h143l-87 -490c-1.33301 -9.33301 -2.66602 -19.666 -3.99902 -30.999s-1.33301 -21 0 -29c2 -20.667 9.33301 -37.667 22 -51s32.667 -20 60 -20h6c34.667 0 62.5 12.5 83.5 37.5s34.833 55.5 41.5 91.5
l86 492h143zM234.997 993.997h152l115 -187h-96l-172 175z" />
    <glyph glyph-name="Uacute" unicode="&#xda;" horiz-adv-x="634" 
d="M577 244c-6 -35.333 -16.1699 -68.5029 -30.5029 -99.5029s-32.833 -58 -55.5 -81s-49.5 -41 -80.5 -54s-66.5 -19.5 -106.5 -19.5h-7c-31.333 0 -59.666 4.83301 -84.999 14.5s-47.166 22.834 -65.499 39.501s-33 36.334 -44 59.001s-17.833 47.334 -20.5 74.001
c-1.33301 13.333 -1.5 28.666 -0.5 45.999s2.83301 33 5.5 47l85 480h143l-87 -490c-1.33301 -9.33301 -2.66602 -19.666 -3.99902 -30.999s-1.33301 -21 0 -29c2 -20.667 9.33301 -37.667 22 -51s32.667 -20 60 -20h6c34.667 0 62.5 12.5 83.5 37.5s34.833 55.5 41.5 91.5
l86 492h143zM610.997 981.997l-172 -175h-95l114 187h152z" />
    <glyph glyph-name="Ucircumflex" unicode="&#xdb;" horiz-adv-x="634" 
d="M577 244c-6 -35.333 -16.1699 -68.5029 -30.5029 -99.5029s-32.833 -58 -55.5 -81s-49.5 -41 -80.5 -54s-66.5 -19.5 -106.5 -19.5h-7c-31.333 0 -59.666 4.83301 -84.999 14.5s-47.166 22.834 -65.499 39.501s-33 36.334 -44 59.001s-17.833 47.334 -20.5 74.001
c-1.33301 13.333 -1.5 28.666 -0.5 45.999s2.83301 33 5.5 47l85 480h143l-87 -490c-1.33301 -9.33301 -2.66602 -19.666 -3.99902 -30.999s-1.33301 -21 0 -29c2 -20.667 9.33301 -37.667 22 -51s32.667 -20 60 -20h6c34.667 0 62.5 12.5 83.5 37.5s34.833 55.5 41.5 91.5
l86 492h143zM494.997 1023l144 -205h-113l-87 113l-107 -113h-114l183 205h94z" />
    <glyph glyph-name="Udieresis" unicode="&#xdc;" horiz-adv-x="634" 
d="M577 244c-6 -35.333 -16.1699 -68.5029 -30.5029 -99.5029s-32.833 -58 -55.5 -81s-49.5 -41 -80.5 -54s-66.5 -19.5 -106.5 -19.5h-7c-31.333 0 -59.666 4.83301 -84.999 14.5s-47.166 22.834 -65.499 39.501s-33 36.334 -44 59.001s-17.833 47.334 -20.5 74.001
c-1.33301 13.333 -1.5 28.666 -0.5 45.999s2.83301 33 5.5 47l85 480h143l-87 -490c-1.33301 -9.33301 -2.66602 -19.666 -3.99902 -30.999s-1.33301 -21 0 -29c2 -20.667 9.33301 -37.667 22 -51s32.667 -20 60 -20h6c34.667 0 62.5 12.5 83.5 37.5s34.833 55.5 41.5 91.5
l86 492h143zM260.997 823.997l23 131h123l-23 -131h-123zM475.997 823.997l23 131h122l-23 -131h-122z" />
    <glyph glyph-name="Yacute" unicode="&#xdd;" horiz-adv-x="606" 
d="M258 750l90 -280h2l191 280h166l-305 -421l-58 -329h-143l57 328l-155 422h155zM602 982l-172 -175h-95l114 187h152z" />
    <glyph glyph-name="Thorn" unicode="&#xde;" horiz-adv-x="616" 
d="M338 279c17.333 0 31.501 1.16699 42.501 3.5s20.5 5.5 28.5 9.5c15.333 8 27.833 19.833 37.5 35.5s15.167 33.167 16.5 52.5c2 19.333 -0.333008 36.5 -7 51.5s-16.334 26.167 -29.001 33.5c-13.333 9.33301 -35.333 14 -66 14h-90l-35 -200h102zM187.001 0h-143.001
l132 750h143l-24 -133h71c21.333 0 42 -1.33301 62 -4s36.667 -6.66699 50 -12c42.667 -16.667 75.834 -45.167 99.501 -85.5s33.167 -86.833 28.5 -139.5c-4.66699 -52 -21.667 -97 -51 -135s-66.666 -65.667 -111.999 -83c-13.333 -5.33301 -29.333 -9.33301 -48 -12
s-39.334 -4 -62.001 -4h-121z" />
    <glyph glyph-name="germandbls" unicode="&#xdf;" horiz-adv-x="613" 
d="M603 565c-3.33301 -38 -16.3359 -73.001 -39.0029 -105.001s-53 -54.667 -91 -68c14 -6 27.333 -14.5 40 -25.5s23.5 -24.333 32.5 -40s15.833 -33.334 20.5 -53.001s6 -41.167 4 -64.5c-3.33301 -37.333 -11.666 -69.666 -24.999 -96.999s-30.666 -50 -51.999 -68
s-45.666 -31.5 -72.999 -40.5s-56.666 -13.5 -87.999 -13.5c-24 0 -45.167 1 -63.5 3s-34.5 4.66699 -48.5 8l22 123c22 -7.33301 49 -11 81 -11c30 0 55.667 8.83301 77 26.5s33.666 43.834 36.999 78.501c1.33301 18.667 -1 35.334 -7 50.001s-14.833 26.667 -26.5 36
s-25.5 16.5 -41.5 21.5s-33 7.5 -51 7.5h-13l21 117h43c25.333 0 49 8.66699 71 26s34.667 41.666 38 72.999c2 25.333 -5.16699 45.333 -21.5 60s-38.833 22 -67.5 22c-18 0 -33.667 -3 -47 -9s-24.666 -14 -33.999 -24s-16.833 -21.833 -22.5 -35.5
s-9.83398 -28.167 -12.501 -43.5l-118 -672h-134l117 668c6 32.667 15.833 63.834 29.5 93.501s31.5 55.667 53.5 78s48.5 40.166 79.5 53.499s66.5 20 106.5 20c32 0 61.167 -4.66699 87.5 -14s48.5 -22.5 66.5 -39.5s31.333 -37.5 40 -61.5s11.667 -50.667 9 -80z" />
    <glyph glyph-name="agrave" unicode="&#xe0;" horiz-adv-x="549" 
d="M104 401c13.333 56.667 40.667 98.999 82 126.999s90.666 42 147.999 42c49.333 0 89 -10.5 119 -31.5s50 -50.5 60 -88.5c3.33301 -13.333 4.83301 -29.333 4.5 -48s-2.16602 -37 -5.49902 -55l-61 -347h-84v86h-1c-17.333 -29.333 -38.166 -52.666 -62.499 -69.999
s-55.5 -26 -93.5 -26c-25.333 0 -48.5 3.83301 -69.5 11.5s-38.833 19.334 -53.5 35.001s-25.5 35 -32.5 58s-9.16699 50.167 -6.5 81.5c3.33301 40.667 16.166 74.667 38.499 102s51.5 47.333 87.5 60c13.333 4.66699 28.5 8.16699 45.5 10.5s36.167 3.5 57.5 3.5h98l2 14
c5.33301 29.333 3 52.166 -7 68.499s-28.333 24.5 -55 24.5c-22 0 -39.333 -5.33301 -52 -16s-21.667 -24.667 -27 -42h-132zM185.001 180.999c-2 -22 1.99902 -39.5 11.999 -52.5s26.667 -19.5 50 -19.5c26 0 48.667 10.5 68 31.5s32 49.167 38 84.5l4 23h-81
c-7.33301 0 -15.333 -0.5 -24 -1.5s-15.667 -2.5 -21 -4.5c-27.333 -10 -42.666 -30.333 -45.999 -61zM197 814.999h152l115 -187h-96l-172 175z" />
    <glyph glyph-name="aacute" unicode="&#xe1;" horiz-adv-x="549" 
d="M104 401c13.333 56.667 40.667 98.999 82 126.999s90.666 42 147.999 42c49.333 0 89 -10.5 119 -31.5s50 -50.5 60 -88.5c3.33301 -13.333 4.83301 -29.333 4.5 -48s-2.16602 -37 -5.49902 -55l-61 -347h-84v86h-1c-17.333 -29.333 -38.166 -52.666 -62.499 -69.999
s-55.5 -26 -93.5 -26c-25.333 0 -48.5 3.83301 -69.5 11.5s-38.833 19.334 -53.5 35.001s-25.5 35 -32.5 58s-9.16699 50.167 -6.5 81.5c3.33301 40.667 16.166 74.667 38.499 102s51.5 47.333 87.5 60c13.333 4.66699 28.5 8.16699 45.5 10.5s36.167 3.5 57.5 3.5h98l2 14
c5.33301 29.333 3 52.166 -7 68.499s-28.333 24.5 -55 24.5c-22 0 -39.333 -5.33301 -52 -16s-21.667 -24.667 -27 -42h-132zM185.001 180.999c-2 -22 1.99902 -39.5 11.999 -52.5s26.667 -19.5 50 -19.5c26 0 48.667 10.5 68 31.5s32 49.167 38 84.5l4 23h-81
c-7.33301 0 -15.333 -0.5 -24 -1.5s-15.667 -2.5 -21 -4.5c-27.333 -10 -42.666 -30.333 -45.999 -61zM528 802.999l-172 -175h-95l114 187h152z" />
    <glyph glyph-name="acircumflex" unicode="&#xe2;" horiz-adv-x="549" 
d="M104 401c13.333 56.667 40.667 98.999 82 126.999s90.666 42 147.999 42c49.333 0 89 -10.5 119 -31.5s50 -50.5 60 -88.5c3.33301 -13.333 4.83301 -29.333 4.5 -48s-2.16602 -37 -5.49902 -55l-61 -347h-84v86h-1c-17.333 -29.333 -38.166 -52.666 -62.499 -69.999
s-55.5 -26 -93.5 -26c-25.333 0 -48.5 3.83301 -69.5 11.5s-38.833 19.334 -53.5 35.001s-25.5 35 -32.5 58s-9.16699 50.167 -6.5 81.5c3.33301 40.667 16.166 74.667 38.499 102s51.5 47.333 87.5 60c13.333 4.66699 28.5 8.16699 45.5 10.5s36.167 3.5 57.5 3.5h98l2 14
c5.33301 29.333 3 52.166 -7 68.499s-28.333 24.5 -55 24.5c-22 0 -39.333 -5.33301 -52 -16s-21.667 -24.667 -27 -42h-132zM185.001 180.999c-2 -22 1.99902 -39.5 11.999 -52.5s26.667 -19.5 50 -19.5c26 0 48.667 10.5 68 31.5s32 49.167 38 84.5l4 23h-81
c-7.33301 0 -15.333 -0.5 -24 -1.5s-15.667 -2.5 -21 -4.5c-27.333 -10 -42.666 -30.333 -45.999 -61zM417 823.999l144 -205h-113l-87 113l-107 -113h-114l183 205h94z" />
    <glyph glyph-name="atilde" unicode="&#xe3;" horiz-adv-x="549" 
d="M104 401c13.333 56.667 40.667 98.999 82 126.999s90.666 42 147.999 42c49.333 0 89 -10.5 119 -31.5s50 -50.5 60 -88.5c3.33301 -13.333 4.83301 -29.333 4.5 -48s-2.16602 -37 -5.49902 -55l-61 -347h-84v86h-1c-17.333 -29.333 -38.166 -52.666 -62.499 -69.999
s-55.5 -26 -93.5 -26c-25.333 0 -48.5 3.83301 -69.5 11.5s-38.833 19.334 -53.5 35.001s-25.5 35 -32.5 58s-9.16699 50.167 -6.5 81.5c3.33301 40.667 16.166 74.667 38.499 102s51.5 47.333 87.5 60c13.333 4.66699 28.5 8.16699 45.5 10.5s36.167 3.5 57.5 3.5h98l2 14
c5.33301 29.333 3 52.166 -7 68.499s-28.333 24.5 -55 24.5c-22 0 -39.333 -5.33301 -52 -16s-21.667 -24.667 -27 -42h-132zM185.001 180.999c-2 -22 1.99902 -39.5 11.999 -52.5s26.667 -19.5 50 -19.5c26 0 48.667 10.5 68 31.5s32 49.167 38 84.5l4 23h-81
c-7.33301 0 -15.333 -0.5 -24 -1.5s-15.667 -2.5 -21 -4.5c-27.333 -10 -42.666 -30.333 -45.999 -61zM359 658.999l-20.499 17.5c-5.66699 5 -10.834 9 -15.501 12s-9.33398 5.16699 -14.001 6.5s-10.334 2 -17.001 2c-5.33301 0 -12.166 -3.66699 -20.499 -11
s-14.5 -21.666 -18.5 -42.999h-86c7.33301 50 23.333 88.667 48 116s54 41 88 41c30 0 58.667 -11.333 86 -34c8.66699 -6.66699 15.834 -12.5 21.501 -17.5s10.667 -9 15 -12s8.83301 -5.16699 13.5 -6.5s10.334 -2 17.001 -2c6 0 13 3.66699 21 11s14 21.666 18 42.999h87
c-7.33301 -50 -23.333 -88.667 -48 -116s-54.334 -41 -89.001 -41c-30 0 -58.667 11.333 -86 34z" />
    <glyph glyph-name="adieresis" unicode="&#xe4;" horiz-adv-x="549" 
d="M104 401c13.333 56.667 40.667 98.999 82 126.999s90.666 42 147.999 42c49.333 0 89 -10.5 119 -31.5s50 -50.5 60 -88.5c3.33301 -13.333 4.83301 -29.333 4.5 -48s-2.16602 -37 -5.49902 -55l-61 -347h-84v86h-1c-17.333 -29.333 -38.166 -52.666 -62.499 -69.999
s-55.5 -26 -93.5 -26c-25.333 0 -48.5 3.83301 -69.5 11.5s-38.833 19.334 -53.5 35.001s-25.5 35 -32.5 58s-9.16699 50.167 -6.5 81.5c3.33301 40.667 16.166 74.667 38.499 102s51.5 47.333 87.5 60c13.333 4.66699 28.5 8.16699 45.5 10.5s36.167 3.5 57.5 3.5h98l2 14
c5.33301 29.333 3 52.166 -7 68.499s-28.333 24.5 -55 24.5c-22 0 -39.333 -5.33301 -52 -16s-21.667 -24.667 -27 -42h-132zM185.001 180.999c-2 -22 1.99902 -39.5 11.999 -52.5s26.667 -19.5 50 -19.5c26 0 48.667 10.5 68 31.5s32 49.167 38 84.5l4 23h-81
c-7.33301 0 -15.333 -0.5 -24 -1.5s-15.667 -2.5 -21 -4.5c-27.333 -10 -42.666 -30.333 -45.999 -61zM198 644.999l23 131h123l-23 -131h-123zM413 644.999l23 131h122l-23 -131h-122z" />
    <glyph glyph-name="aring" unicode="&#xe5;" horiz-adv-x="549" 
d="M104 401c13.333 56.667 40.667 98.999 82 126.999s90.666 42 147.999 42c49.333 0 89 -10.5 119 -31.5s50 -50.5 60 -88.5c3.33301 -13.333 4.83301 -29.333 4.5 -48s-2.16602 -37 -5.49902 -55l-61 -347h-84v86h-1c-17.333 -29.333 -38.166 -52.666 -62.499 -69.999
s-55.5 -26 -93.5 -26c-25.333 0 -48.5 3.83301 -69.5 11.5s-38.833 19.334 -53.5 35.001s-25.5 35 -32.5 58s-9.16699 50.167 -6.5 81.5c3.33301 40.667 16.166 74.667 38.499 102s51.5 47.333 87.5 60c13.333 4.66699 28.5 8.16699 45.5 10.5s36.167 3.5 57.5 3.5h98l2 14
c5.33301 29.333 3 52.166 -7 68.499s-28.333 24.5 -55 24.5c-22 0 -39.333 -5.33301 -52 -16s-21.667 -24.667 -27 -42h-132zM185.001 180.999c-2 -22 1.99902 -39.5 11.999 -52.5s26.667 -19.5 50 -19.5c26 0 48.667 10.5 68 31.5s32 49.167 38 84.5l4 23h-81
c-7.33301 0 -15.333 -0.5 -24 -1.5s-15.667 -2.5 -21 -4.5c-27.333 -10 -42.666 -30.333 -45.999 -61zM379 687.999c14 0 25.167 5 33.5 15s12.5 21.667 12.5 35s-4.16699 25 -12.5 35s-19.5 15 -33.5 15c-14.667 0 -26 -5 -34 -15s-12 -21.667 -12 -35s4 -25 12 -35
s19.333 -15 34 -15zM379 861.999c16.667 0 32.167 -3.16699 46.5 -9.5s27 -15.166 38 -26.499s19.667 -24.5 26 -39.5s9.5 -31.167 9.5 -48.5s-3.16699 -33.5 -9.5 -48.5s-15 -28.167 -26 -39.5s-23.667 -20.166 -38 -26.499s-29.833 -9.5 -46.5 -9.5
s-32.334 3.16699 -47.001 9.5s-27.5 15.166 -38.5 26.499s-19.667 24.5 -26 39.5s-9.5 31.167 -9.5 48.5s3.16699 33.5 9.5 48.5s15 28.167 26 39.5s23.833 20.166 38.5 26.499s30.334 9.5 47.001 9.5z" />
    <glyph glyph-name="ae" unicode="&#xe6;" horiz-adv-x="833" 
d="M549 109c21.333 0 39.3291 6.16699 53.9961 18.5s26 27.166 34 44.499h140c-4.66699 -13.333 -9.66699 -26.333 -15 -39s-11.666 -24.334 -18.999 -35.001c-20.667 -32 -47.5 -58 -80.5 -78s-71.833 -30 -116.5 -30c-42 0 -75.5 9.5 -100.5 28.5s-43.167 44.5 -54.5 76.5
c-21.333 -33.333 -47.333 -59.166 -78 -77.499s-64 -27.5 -100 -27.5c-25.333 0 -48.666 3.83301 -69.999 11.5s-39.5 19.334 -54.5 35.001s-26.167 35 -33.5 58s-9.66602 50.167 -6.99902 81.5c3.33301 40.667 16.166 74.667 38.499 102s51.5 47.333 87.5 60
c13.333 4.66699 28.5 8.16699 45.5 10.5s36.167 3.5 57.5 3.5h98l2 14c5.33301 29.333 3 52.166 -7 68.499s-28.333 24.5 -55 24.5c-22 0 -39.333 -5.33301 -52 -16s-21.667 -24.667 -27 -42h-132c6.66699 28 17 52.667 31 74s30.667 39 50 53s41 24.5 65 31.5
s49.667 10.5 77 10.5c36 0 65.667 -6.33301 89 -19s41.333 -30.667 54 -54c18.667 22 41 39.667 67 53s57 20 93 20c44 0 80.833 -11.5 110.5 -34.5s50.5 -52.5 62.5 -88.5c6.66699 -18.667 9.83398 -39.5 9.50098 -62.5s-2.16602 -44.833 -5.49902 -65.5l-14 -76h-298
l-4 -24c-1.33301 -9.33301 -2.5 -19.166 -3.5 -29.499s-0.833008 -19.833 0.5 -28.5c1.33301 -14 6.83301 -26.167 16.5 -36.5s24.5 -15.5 44.5 -15.5zM184.996 181c-2 -22 1.99902 -39.5 11.999 -52.5s26.667 -19.5 50 -19.5c26 0 48.667 10.5 68 31.5s32 49.167 38 84.5
l4 23h-81c-7.33301 0 -15.333 -0.5 -24 -1.5s-15.667 -2.5 -21 -4.5c-27.333 -10 -42.666 -30.333 -45.999 -61zM534.995 406c-5.33301 -8 -9.66602 -16.999 -12.999 -26.999s-6.33301 -20.667 -9 -32h160c1.33301 9.33301 2.5 18.833 3.5 28.5s0.833008 18.5 -0.5 26.5
c-1.33301 14 -6.83301 26.167 -16.5 36.5s-24.5 15.5 -44.5 15.5c-18.667 0 -34.334 -4.33301 -47.001 -13s-23.667 -20.334 -33 -35.001z" />
    <glyph glyph-name="ccedilla" unicode="&#xe7;" horiz-adv-x="530" 
d="M163 -142c3.33301 -21.333 16.3398 -32.0029 39.0068 -32.0029c10 0 18.167 3 24.5 9s9.83301 13 10.5 21c2 19.333 -12.333 33.666 -43 42.999l-24 7c-13.333 4 -22.333 9.16699 -27 15.5s-3 16.833 5 31.5l28 50c-26.667 10.667 -49 25.834 -67 45.501
s-31.333 42.167 -40 67.5c-6.66699 18.667 -9.83398 39 -9.50098 61s2.16602 43.333 5.49902 64l17 95c3.33301 20.667 9.16602 42.334 17.499 65.001s18.166 43 29.499 61c20.667 32 47.667 58 81 78s73 30 119 30c46.667 0 86 -12 118 -36s53.667 -54 65 -90
c8 -26 11 -54.667 9 -86h-139c0.666992 5.33301 0.833984 10.333 0.500977 15s-0.833008 9.33398 -1.5 14.001c-1.33301 14 -6.83301 26.167 -16.5 36.5s-24.5 15.5 -44.5 15.5c-18.667 0 -34.334 -4.33301 -47.001 -13s-23.667 -20.334 -33 -35.001
c-5.33301 -9.33301 -9.83301 -19.833 -13.5 -31.5s-6.83398 -24.167 -9.50098 -37.5l-15 -91c-1.33301 -9.33301 -2.33301 -19.166 -3 -29.499s-0.333984 -19.833 0.999023 -28.5c1.33301 -14 6.83301 -26.167 16.5 -36.5s24.5 -15.5 44.5 -15.5
c22.667 0 42.334 6.83301 59.001 20.5s27.667 31.167 33 52.5h141c-4.66699 -17.333 -10.334 -34.166 -17.001 -50.499s-14.667 -31.5 -24 -45.5c-20.667 -32 -47.834 -58 -81.501 -78s-73.5 -30 -119.5 -30h-9l-15 -33c12.667 -4 24.667 -8.83301 36 -14.5
s21.333 -12.667 30 -21s15.167 -17.833 19.5 -28.5s5.83301 -23 4.5 -37c-3.33301 -32 -16.166 -56.667 -38.499 -74s-48.833 -26 -79.5 -26c-32.667 0 -59.834 9 -81.501 27s-32.167 43 -31.5 75h76z" />
    <glyph glyph-name="egrave" unicode="&#xe8;" horiz-adv-x="542" 
d="M262 109c21.333 0 38.6689 6.16699 52.002 18.5s24 27.166 32 44.499h140c-4.66699 -13.333 -9.66699 -26.333 -15 -39s-11.666 -24.334 -18.999 -35.001c-20.667 -32 -47.667 -58 -81 -78s-73 -30 -119 -30c-46.667 0 -85.834 12 -117.501 36s-53.5 54 -65.5 90
c-6.66699 18.667 -9.83398 39 -9.50098 61s2.16602 43.333 5.49902 64l17 95c3.33301 20.667 9.16602 42.334 17.499 65.001s18.166 43 29.499 61c20.667 32 47.667 58 81 78s73 30 119 30c46.667 0 85.834 -11.5 117.501 -34.5s53.5 -52.5 65.5 -88.5
c6.66699 -18.667 9.83398 -39.5 9.50098 -62.5s-2.16602 -44.833 -5.49902 -65.5l-14 -76h-298l-4 -24c-1.33301 -9.33301 -2.33301 -19.166 -3 -29.499s-0.333984 -19.833 0.999023 -28.5c1.33301 -14 7.33301 -26.167 18 -36.5s26 -15.5 46 -15.5zM244.003 406
c-5.33301 -8 -9.66602 -16.999 -12.999 -26.999s-6.33301 -20.667 -9 -32h160c1.33301 9.33301 2.5 18.833 3.5 28.5s0.833008 18.5 -0.5 26.5c-1.33301 14 -6.83301 26.167 -16.5 36.5s-24.5 15.5 -44.5 15.5c-18.667 0 -34.334 -4.33301 -47.001 -13
s-23.667 -20.334 -33 -35.001zM192.003 815.001h152l115 -187h-96l-172 175z" />
    <glyph glyph-name="eacute" unicode="&#xe9;" horiz-adv-x="542" 
d="M262 109c21.333 0 38.6689 6.16699 52.002 18.5s24 27.166 32 44.499h140c-4.66699 -13.333 -9.66699 -26.333 -15 -39s-11.666 -24.334 -18.999 -35.001c-20.667 -32 -47.667 -58 -81 -78s-73 -30 -119 -30c-46.667 0 -85.834 12 -117.501 36s-53.5 54 -65.5 90
c-6.66699 18.667 -9.83398 39 -9.50098 61s2.16602 43.333 5.49902 64l17 95c3.33301 20.667 9.16602 42.334 17.499 65.001s18.166 43 29.499 61c20.667 32 47.667 58 81 78s73 30 119 30c46.667 0 85.834 -11.5 117.501 -34.5s53.5 -52.5 65.5 -88.5
c6.66699 -18.667 9.83398 -39.5 9.50098 -62.5s-2.16602 -44.833 -5.49902 -65.5l-14 -76h-298l-4 -24c-1.33301 -9.33301 -2.33301 -19.166 -3 -29.499s-0.333984 -19.833 0.999023 -28.5c1.33301 -14 7.33301 -26.167 18 -36.5s26 -15.5 46 -15.5zM244.003 406
c-5.33301 -8 -9.66602 -16.999 -12.999 -26.999s-6.33301 -20.667 -9 -32h160c1.33301 9.33301 2.5 18.833 3.5 28.5s0.833008 18.5 -0.5 26.5c-1.33301 14 -6.83301 26.167 -16.5 36.5s-24.5 15.5 -44.5 15.5c-18.667 0 -34.334 -4.33301 -47.001 -13
s-23.667 -20.334 -33 -35.001zM519.003 803.001l-172 -175h-95l114 187h152z" />
    <glyph glyph-name="ecircumflex" unicode="&#xea;" horiz-adv-x="542" 
d="M262 109c21.333 0 38.6689 6.16699 52.002 18.5s24 27.166 32 44.499h140c-4.66699 -13.333 -9.66699 -26.333 -15 -39s-11.666 -24.334 -18.999 -35.001c-20.667 -32 -47.667 -58 -81 -78s-73 -30 -119 -30c-46.667 0 -85.834 12 -117.501 36s-53.5 54 -65.5 90
c-6.66699 18.667 -9.83398 39 -9.50098 61s2.16602 43.333 5.49902 64l17 95c3.33301 20.667 9.16602 42.334 17.499 65.001s18.166 43 29.499 61c20.667 32 47.667 58 81 78s73 30 119 30c46.667 0 85.834 -11.5 117.501 -34.5s53.5 -52.5 65.5 -88.5
c6.66699 -18.667 9.83398 -39.5 9.50098 -62.5s-2.16602 -44.833 -5.49902 -65.5l-14 -76h-298l-4 -24c-1.33301 -9.33301 -2.33301 -19.166 -3 -29.499s-0.333984 -19.833 0.999023 -28.5c1.33301 -14 7.33301 -26.167 18 -36.5s26 -15.5 46 -15.5zM244.003 406
c-5.33301 -8 -9.66602 -16.999 -12.999 -26.999s-6.33301 -20.667 -9 -32h160c1.33301 9.33301 2.5 18.833 3.5 28.5s0.833008 18.5 -0.5 26.5c-1.33301 14 -6.83301 26.167 -16.5 36.5s-24.5 15.5 -44.5 15.5c-18.667 0 -34.334 -4.33301 -47.001 -13
s-23.667 -20.334 -33 -35.001zM416.003 824.001l144 -205h-113l-87 113l-107 -113h-114l183 205h94z" />
    <glyph glyph-name="edieresis" unicode="&#xeb;" horiz-adv-x="542" 
d="M262 109c21.333 0 38.6689 6.16699 52.002 18.5s24 27.166 32 44.499h140c-4.66699 -13.333 -9.66699 -26.333 -15 -39s-11.666 -24.334 -18.999 -35.001c-20.667 -32 -47.667 -58 -81 -78s-73 -30 -119 -30c-46.667 0 -85.834 12 -117.501 36s-53.5 54 -65.5 90
c-6.66699 18.667 -9.83398 39 -9.50098 61s2.16602 43.333 5.49902 64l17 95c3.33301 20.667 9.16602 42.334 17.499 65.001s18.166 43 29.499 61c20.667 32 47.667 58 81 78s73 30 119 30c46.667 0 85.834 -11.5 117.501 -34.5s53.5 -52.5 65.5 -88.5
c6.66699 -18.667 9.83398 -39.5 9.50098 -62.5s-2.16602 -44.833 -5.49902 -65.5l-14 -76h-298l-4 -24c-1.33301 -9.33301 -2.33301 -19.166 -3 -29.499s-0.333984 -19.833 0.999023 -28.5c1.33301 -14 7.33301 -26.167 18 -36.5s26 -15.5 46 -15.5zM244.003 406
c-5.33301 -8 -9.66602 -16.999 -12.999 -26.999s-6.33301 -20.667 -9 -32h160c1.33301 9.33301 2.5 18.833 3.5 28.5s0.833008 18.5 -0.5 26.5c-1.33301 14 -6.83301 26.167 -16.5 36.5s-24.5 15.5 -44.5 15.5c-18.667 0 -34.334 -4.33301 -47.001 -13
s-23.667 -20.334 -33 -35.001zM190.003 645.001l23 131h123l-23 -131h-123zM405.003 645.001l23 131h122l-23 -131h-122z" />
    <glyph glyph-name="igrave" unicode="&#xec;" horiz-adv-x="274" 
d="M136 560h138l-98 -560h-138zM13 815h152l115 -187h-96l-172 175z" />
    <glyph glyph-name="iacute" unicode="&#xed;" horiz-adv-x="274" 
d="M136 560h138l-98 -560h-138zM416 803l-172 -175h-95l114 187h152z" />
    <glyph glyph-name="icircumflex" unicode="&#xee;" horiz-adv-x="274" 
d="M283 833l131 -205h-113l-74 113l-100 -113h-114l176 205h94zM136 560h138l-98 -560h-138z" />
    <glyph glyph-name="idieresis" unicode="&#xef;" horiz-adv-x="274" 
d="M136 560h138l-98 -560h-138zM51 645l23 131h123l-23 -131h-123zM266 645l23 131h122l-23 -131h-122z" />
    <glyph glyph-name="eth" unicode="&#xf0;" horiz-adv-x="542" 
d="M259 121c18.667 0 34.334 4.33301 47.001 13s23.667 20.334 33 35.001c5.33301 9.33301 10 19.833 14 31.5s7.33301 24.167 10 37.5l5 31c1.33301 9.33301 2.5 19.166 3.5 29.499s0.833008 19.833 -0.5 28.5c-1.33301 14 -6.83301 26.167 -16.5 36.5
s-24.5 15.5 -44.5 15.5c-18.667 0 -34.334 -4.33301 -47.001 -13s-23.667 -20.334 -33 -35.001c-5.33301 -9.33301 -10 -19.833 -14 -31.5s-7.33301 -24.167 -10 -37.5l-5 -31c-1.33301 -9.33301 -2.5 -19.166 -3.5 -29.499s-0.833008 -19.833 0.5 -28.5
c1.33301 -14 6.83301 -26.167 16.5 -36.5s24.5 -15.5 44.5 -15.5zM306 511c3.33301 0 8.33398 -0.500977 15.001 -1.50098s14 -2.83301 22 -5.5s16 -6.16699 24 -10.5s15 -9.83301 21 -16.5c0 22.667 -3.5 45 -10.5 67s-13.833 39.667 -20.5 53l-122 -44l-14 80l99 36
l-17.5 36.5c-6.33301 13 -13.833 25.5 -22.5 37.5l113 50c10.667 -13.333 19.667 -26.166 27 -38.499l22 -38.5l115 42l14 -79l-95 -35c7.33301 -19.333 14.833 -41.5 22.5 -66.5s13.167 -48.5 16.5 -70.5c4.66699 -34 7.16699 -67.5 7.5 -100.5
s-2.83398 -67.167 -9.50098 -102.5l-15 -80c-3.33301 -20.667 -9.16602 -42.334 -17.499 -65.001s-18.166 -43 -29.499 -61c-20.667 -32 -47.667 -58 -81 -78s-73 -30 -119 -30c-46.667 0 -85.834 12 -117.501 36s-53.5 54 -65.5 90
c-6.66699 18.667 -9.83398 39 -9.50098 61s2.16602 43.333 5.49902 64l6 35c3.33301 20.667 9 42.334 17 65.001s18 43 30 61c20.667 31.333 45.834 57.333 75.501 78s67.5 31 113.5 31z" />
    <glyph glyph-name="ntilde" unicode="&#xf1;" horiz-adv-x="585" 
d="M399 570c40 0 73.834 -12.5 101.501 -37.5s44.167 -60.167 49.5 -105.5c1.33301 -12 1.66602 -26.333 0.999023 -43s-2.33398 -32.667 -5.00098 -48l-59 -336h-138l55 320c4 24 5.66699 42.333 5 55c-1.33301 17.333 -6 32.166 -14 44.499s-22 18.5 -42 18.5
c-25.333 0 -50.333 -13.667 -75 -41s-41.667 -66.666 -51 -117.999l-48 -279h-138l98 560h91v-76h1c22 28.667 47.333 50.167 76 64.5s59.334 21.5 92.001 21.5zM378.001 659l-20.499 17.5c-5.66699 5 -10.834 9 -15.501 12s-9.33398 5.16699 -14.001 6.5
s-10.334 2 -17.001 2c-5.33301 0 -12.166 -3.66699 -20.499 -11s-14.5 -21.666 -18.5 -42.999h-86c7.33301 50 23.333 88.667 48 116s54 41 88 41c30 0 58.667 -11.333 86 -34c8.66699 -6.66699 15.834 -12.5 21.501 -17.5s10.667 -9 15 -12s8.83301 -5.16699 13.5 -6.5
s10.334 -2 17.001 -2c6 0 13 3.66699 21 11s14 21.666 18 42.999h87c-7.33301 -50 -23.333 -88.667 -48 -116s-54.334 -41 -89.001 -41c-30 0 -58.667 11.333 -86 34z" />
    <glyph glyph-name="ograve" unicode="&#xf2;" horiz-adv-x="543" 
d="M260 121c18.667 0 34.334 4.33301 47.001 13s23.667 20.334 33 35.001c5.33301 9.33301 10 19.833 14 31.5s7.33301 24.167 10 37.5l15 91c1.33301 9.33301 2.5 19.166 3.5 29.499s0.833008 19.833 -0.5 28.5c-1.33301 14 -6.83301 26.167 -16.5 36.5
s-24.5 15.5 -44.5 15.5c-18.667 0 -34.334 -4.33301 -47.001 -13s-23.667 -20.334 -33 -35.001c-5.33301 -9.33301 -10 -19.833 -14 -31.5s-7.33301 -24.167 -10 -37.5l-15 -91c-1.33301 -9.33301 -2.5 -19.166 -3.5 -29.499s-0.833008 -19.833 0.5 -28.5
c1.33301 -14 6.83301 -26.167 16.5 -36.5s24.5 -15.5 44.5 -15.5zM252 -10c-46.667 0 -85.834 12 -117.501 36s-53.5 54 -65.5 90c-6.66699 18.667 -9.83398 39 -9.50098 61s2.16602 43.333 5.49902 64l17 95c3.33301 20.667 9.16602 42.334 17.499 65.001
s18.166 43 29.499 61c20.667 32 47.667 58 81 78s73 30 119 30c46.667 0 85.834 -12 117.501 -36s53.5 -54 65.5 -90c6.66699 -18.667 9.83398 -39 9.50098 -61s-2.16602 -43.333 -5.49902 -64l-17 -95c-3.33301 -20.667 -9.16602 -42.334 -17.499 -65.001
s-18.166 -43 -29.499 -61c-20.667 -32 -47.667 -58 -81 -78s-73 -30 -119 -30zM194 815h152l115 -187h-96l-172 175z" />
    <glyph glyph-name="oacute" unicode="&#xf3;" horiz-adv-x="543" 
d="M260 121c18.667 0 34.334 4.33301 47.001 13s23.667 20.334 33 35.001c5.33301 9.33301 10 19.833 14 31.5s7.33301 24.167 10 37.5l15 91c1.33301 9.33301 2.5 19.166 3.5 29.499s0.833008 19.833 -0.5 28.5c-1.33301 14 -6.83301 26.167 -16.5 36.5
s-24.5 15.5 -44.5 15.5c-18.667 0 -34.334 -4.33301 -47.001 -13s-23.667 -20.334 -33 -35.001c-5.33301 -9.33301 -10 -19.833 -14 -31.5s-7.33301 -24.167 -10 -37.5l-15 -91c-1.33301 -9.33301 -2.5 -19.166 -3.5 -29.499s-0.833008 -19.833 0.5 -28.5
c1.33301 -14 6.83301 -26.167 16.5 -36.5s24.5 -15.5 44.5 -15.5zM252 -10c-46.667 0 -85.834 12 -117.501 36s-53.5 54 -65.5 90c-6.66699 18.667 -9.83398 39 -9.50098 61s2.16602 43.333 5.49902 64l17 95c3.33301 20.667 9.16602 42.334 17.499 65.001
s18.166 43 29.499 61c20.667 32 47.667 58 81 78s73 30 119 30c46.667 0 85.834 -12 117.501 -36s53.5 -54 65.5 -90c6.66699 -18.667 9.83398 -39 9.50098 -61s-2.16602 -43.333 -5.49902 -64l-17 -95c-3.33301 -20.667 -9.16602 -42.334 -17.499 -65.001
s-18.166 -43 -29.499 -61c-20.667 -32 -47.667 -58 -81 -78s-73 -30 -119 -30zM519 803l-172 -175h-95l114 187h152z" />
    <glyph glyph-name="ocircumflex" unicode="&#xf4;" horiz-adv-x="543" 
d="M260 121c18.667 0 34.334 4.33301 47.001 13s23.667 20.334 33 35.001c5.33301 9.33301 10 19.833 14 31.5s7.33301 24.167 10 37.5l15 91c1.33301 9.33301 2.5 19.166 3.5 29.499s0.833008 19.833 -0.5 28.5c-1.33301 14 -6.83301 26.167 -16.5 36.5
s-24.5 15.5 -44.5 15.5c-18.667 0 -34.334 -4.33301 -47.001 -13s-23.667 -20.334 -33 -35.001c-5.33301 -9.33301 -10 -19.833 -14 -31.5s-7.33301 -24.167 -10 -37.5l-15 -91c-1.33301 -9.33301 -2.5 -19.166 -3.5 -29.499s-0.833008 -19.833 0.5 -28.5
c1.33301 -14 6.83301 -26.167 16.5 -36.5s24.5 -15.5 44.5 -15.5zM252 -10c-46.667 0 -85.834 12 -117.501 36s-53.5 54 -65.5 90c-6.66699 18.667 -9.83398 39 -9.50098 61s2.16602 43.333 5.49902 64l17 95c3.33301 20.667 9.16602 42.334 17.499 65.001
s18.166 43 29.499 61c20.667 32 47.667 58 81 78s73 30 119 30c46.667 0 85.834 -12 117.501 -36s53.5 -54 65.5 -90c6.66699 -18.667 9.83398 -39 9.50098 -61s-2.16602 -43.333 -5.49902 -64l-17 -95c-3.33301 -20.667 -9.16602 -42.334 -17.499 -65.001
s-18.166 -43 -29.499 -61c-20.667 -32 -47.667 -58 -81 -78s-73 -30 -119 -30zM415 824l144 -205h-113l-87 113l-107 -113h-114l183 205h94z" />
    <glyph glyph-name="otilde" unicode="&#xf5;" horiz-adv-x="543" 
d="M260 121c18.667 0 34.334 4.33301 47.001 13s23.667 20.334 33 35.001c5.33301 9.33301 10 19.833 14 31.5s7.33301 24.167 10 37.5l15 91c1.33301 9.33301 2.5 19.166 3.5 29.499s0.833008 19.833 -0.5 28.5c-1.33301 14 -6.83301 26.167 -16.5 36.5
s-24.5 15.5 -44.5 15.5c-18.667 0 -34.334 -4.33301 -47.001 -13s-23.667 -20.334 -33 -35.001c-5.33301 -9.33301 -10 -19.833 -14 -31.5s-7.33301 -24.167 -10 -37.5l-15 -91c-1.33301 -9.33301 -2.5 -19.166 -3.5 -29.499s-0.833008 -19.833 0.5 -28.5
c1.33301 -14 6.83301 -26.167 16.5 -36.5s24.5 -15.5 44.5 -15.5zM252 -10c-46.667 0 -85.834 12 -117.501 36s-53.5 54 -65.5 90c-6.66699 18.667 -9.83398 39 -9.50098 61s2.16602 43.333 5.49902 64l17 95c3.33301 20.667 9.16602 42.334 17.499 65.001
s18.166 43 29.499 61c20.667 32 47.667 58 81 78s73 30 119 30c46.667 0 85.834 -12 117.501 -36s53.5 -54 65.5 -90c6.66699 -18.667 9.83398 -39 9.50098 -61s-2.16602 -43.333 -5.49902 -64l-17 -95c-3.33301 -20.667 -9.16602 -42.334 -17.499 -65.001
s-18.166 -43 -29.499 -61c-20.667 -32 -47.667 -58 -81 -78s-73 -30 -119 -30zM352 659l-20.499 17.5c-5.66699 5 -10.834 9 -15.501 12s-9.33398 5.16699 -14.001 6.5s-10.334 2 -17.001 2c-5.33301 0 -12.166 -3.66699 -20.499 -11s-14.5 -21.666 -18.5 -42.999h-86
c7.33301 50 23.333 88.667 48 116s54 41 88 41c30 0 58.667 -11.333 86 -34c8.66699 -6.66699 15.834 -12.5 21.501 -17.5s10.667 -9 15 -12s8.83301 -5.16699 13.5 -6.5s10.334 -2 17.001 -2c6 0 13 3.66699 21 11s14 21.666 18 42.999h87
c-7.33301 -50 -23.333 -88.667 -48 -116s-54.334 -41 -89.001 -41c-30 0 -58.667 11.333 -86 34z" />
    <glyph glyph-name="odieresis" unicode="&#xf6;" horiz-adv-x="543" 
d="M260 121c18.667 0 34.334 4.33301 47.001 13s23.667 20.334 33 35.001c5.33301 9.33301 10 19.833 14 31.5s7.33301 24.167 10 37.5l15 91c1.33301 9.33301 2.5 19.166 3.5 29.499s0.833008 19.833 -0.5 28.5c-1.33301 14 -6.83301 26.167 -16.5 36.5
s-24.5 15.5 -44.5 15.5c-18.667 0 -34.334 -4.33301 -47.001 -13s-23.667 -20.334 -33 -35.001c-5.33301 -9.33301 -10 -19.833 -14 -31.5s-7.33301 -24.167 -10 -37.5l-15 -91c-1.33301 -9.33301 -2.5 -19.166 -3.5 -29.499s-0.833008 -19.833 0.5 -28.5
c1.33301 -14 6.83301 -26.167 16.5 -36.5s24.5 -15.5 44.5 -15.5zM252 -10c-46.667 0 -85.834 12 -117.501 36s-53.5 54 -65.5 90c-6.66699 18.667 -9.83398 39 -9.50098 61s2.16602 43.333 5.49902 64l17 95c3.33301 20.667 9.16602 42.334 17.499 65.001
s18.166 43 29.499 61c20.667 32 47.667 58 81 78s73 30 119 30c46.667 0 85.834 -12 117.501 -36s53.5 -54 65.5 -90c6.66699 -18.667 9.83398 -39 9.50098 -61s-2.16602 -43.333 -5.49902 -64l-17 -95c-3.33301 -20.667 -9.16602 -42.334 -17.499 -65.001
s-18.166 -43 -29.499 -61c-20.667 -32 -47.667 -58 -81 -78s-73 -30 -119 -30zM187 645l23 131h123l-23 -131h-123zM402 645l23 131h122l-23 -131h-122z" />
    <glyph glyph-name="divide" unicode="&#xf7;" 
d="M39 241l21 118h516l-21 -118h-516zM266 433l24 137h126l-24 -137h-126zM195 30l24 137h126l-24 -137h-126z" />
    <glyph glyph-name="oslash" unicode="&#xf8;" horiz-adv-x="545" 
d="M252 -10c-20 0 -38.501 2.33398 -55.501 7.00098s-32.833 11 -47.5 19l-34 -51h-69l59 87c-16 19.333 -28 40.666 -36 63.999c-6.66699 18.667 -9.83398 39 -9.50098 61s2.16602 43.333 5.49902 64l17 95c3.33301 20.667 9.16602 42.334 17.499 65.001
s18.166 43 29.499 61c20.667 32 47.667 58 81 78s73 30 119 30c20 0 38.833 -2.5 56.5 -7.5s33.834 -11.833 48.501 -20.5l35 53h69l-61 -90c8 -9.33301 14.833 -19 20.5 -29s10.5 -20.667 14.5 -32c6.66699 -18.667 9.83398 -39 9.50098 -61s-2.16602 -43.333 -5.49902 -64
l-17 -95c-3.33301 -20.667 -9.16602 -42.334 -17.499 -65.001s-18.166 -43 -29.499 -61c-20.667 -32 -47.667 -58 -81 -78s-73 -30 -119 -30zM201.999 231.001c-1.33301 -7.33301 -2.49902 -15.332 -3.49902 -23.999s-1.16699 -16.667 -0.5 -24l163 244
c-10 8 -23.333 12 -40 12c-18.667 0 -34.334 -4.33301 -47.001 -13s-23.667 -20.334 -33 -35.001c-5.33301 -9.33301 -10 -19.833 -14 -31.5s-7.33301 -24.167 -10 -37.5zM260 121.002c18.667 0 34.332 4.33398 46.999 13.001s23.667 20.334 33 35.001
c5.33301 9.33301 10 19.833 14 31.5s7.33301 24.167 10 37.5l15 91c1.33301 7.33301 2.33301 14.666 3 21.999s1 14.666 1 21.999l-161 -242c8.66699 -6.66699 21.334 -10 38.001 -10z" />
    <glyph glyph-name="ugrave" unicode="&#xf9;" horiz-adv-x="585" 
d="M224 -10c-40 0 -73.834 12.5 -101.501 37.5s-44.167 60.167 -49.5 105.5c-1.33301 12 -1.66602 26.333 -0.999023 43s2.33398 32.667 5.00098 48l59 336h138l-55 -320c-4 -24 -5.66699 -42.333 -5 -55c1.33301 -17.333 6 -32.166 14 -44.499s22 -18.5 42 -18.5
c25.333 0 50.333 13.667 75 41s41.667 66.666 51 117.999l48 279h138l-98 -560h-91v76h-1c-22 -28.667 -47.333 -50.167 -76 -64.5s-59.334 -21.5 -92.001 -21.5zM181.999 815h152l115 -187h-96l-172 175z" />
    <glyph glyph-name="uacute" unicode="&#xfa;" horiz-adv-x="585" 
d="M224 -10c-40 0 -73.834 12.5 -101.501 37.5s-44.167 60.167 -49.5 105.5c-1.33301 12 -1.66602 26.333 -0.999023 43s2.33398 32.667 5.00098 48l59 336h138l-55 -320c-4 -24 -5.66699 -42.333 -5 -55c1.33301 -17.333 6 -32.166 14 -44.499s22 -18.5 42 -18.5
c25.333 0 50.333 13.667 75 41s41.667 66.666 51 117.999l48 279h138l-98 -560h-91v76h-1c-22 -28.667 -47.333 -50.167 -76 -64.5s-59.334 -21.5 -92.001 -21.5zM553.999 803l-172 -175h-95l114 187h152z" />
    <glyph glyph-name="ucircumflex" unicode="&#xfb;" horiz-adv-x="585" 
d="M224 -10c-40 0 -73.834 12.5 -101.501 37.5s-44.167 60.167 -49.5 105.5c-1.33301 12 -1.66602 26.333 -0.999023 43s2.33398 32.667 5.00098 48l59 336h138l-55 -320c-4 -24 -5.66699 -42.333 -5 -55c1.33301 -17.333 6 -32.166 14 -44.499s22 -18.5 42 -18.5
c25.333 0 50.333 13.667 75 41s41.667 66.666 51 117.999l48 279h138l-98 -560h-91v76h-1c-22 -28.667 -47.333 -50.167 -76 -64.5s-59.334 -21.5 -92.001 -21.5zM433.999 834l144 -205h-113l-87 113l-107 -113h-114l183 205h94z" />
    <glyph glyph-name="udieresis" unicode="&#xfc;" horiz-adv-x="585" 
d="M224 -10c-40 0 -73.834 12.5 -101.501 37.5s-44.167 60.167 -49.5 105.5c-1.33301 12 -1.66602 26.333 -0.999023 43s2.33398 32.667 5.00098 48l59 336h138l-55 -320c-4 -24 -5.66699 -42.333 -5 -55c1.33301 -17.333 6 -32.166 14 -44.499s22 -18.5 42 -18.5
c25.333 0 50.333 13.667 75 41s41.667 66.666 51 117.999l48 279h138l-98 -560h-91v76h-1c-22 -28.667 -47.333 -50.167 -76 -64.5s-59.334 -21.5 -92.001 -21.5zM197.999 645l23 131h123l-23 -131h-123zM412.999 645l23 131h122l-23 -131h-122z" />
    <glyph glyph-name="yacute" unicode="&#xfd;" horiz-adv-x="537" 
d="M76 560l140.999 -0.000976562l52 -369h2l176 369h151l-306 -585c-34.667 -66.667 -73 -115.167 -115 -145.5s-89 -45.5 -141 -45.5c-18 0 -34.833 1.16699 -50.5 3.5s-30.167 5.5 -43.5 9.5l23 133c12.667 -3.33301 25.334 -6.16602 38.001 -8.49902s27 -3.5 43 -3.5
c29.333 0 52.833 7.5 70.5 22.5s33.167 35.167 46.5 60.5l10 20zM534.999 802.999l-172 -175h-95l114 187h152z" />
    <glyph glyph-name="thorn" unicode="&#xfe;" 
d="M224 241c-2 -13.333 -2.66797 -27.1631 -2.00098 -41.4961s3.5 -27.333 8.5 -39s12.667 -21.334 23 -29.001s23.5 -11.5 39.5 -11.5c14 0 26.667 3.16699 38 9.5s21.166 14.666 29.499 24.999s15.333 22.5 21 36.5s9.83398 28.667 12.501 44l14 84
c4 24 5.66699 42.333 5 55c-1.33301 17.333 -6.16602 32.166 -14.499 44.499s-22.5 18.5 -42.5 18.5c-12.667 0 -25.5 -3.5 -38.5 -10.5s-25.333 -17.333 -37 -31s-22 -30.334 -31 -50.001s-15.5 -42.167 -19.5 -67.5zM180.999 785.003l138.005 0.000976562l-39 -218
c-1.33301 -6.66699 -2.5 -13.334 -3.5 -20.001s-2.16699 -12.667 -3.5 -18l-4 -20h1c20 20.667 40.167 36 60.5 46s43.166 15 68.499 15c41.333 0 76 -12.5 104 -37.5s44.667 -60.167 50 -105.5c1.33301 -12 1.66602 -26.333 0.999023 -43s-2.33398 -32.667 -5.00098 -48
l-19 -104l-11 -49c-4 -17.333 -9.33301 -33.666 -16 -48.999c-8.66699 -20.667 -19.334 -39.667 -32.001 -57s-27.334 -32.5 -44.001 -45.5s-35.167 -23.167 -55.5 -30.5s-42.5 -11 -66.5 -11c-46 0 -84.667 18.667 -116 56h-1
c-0.666992 -6.66699 -1.66699 -13.334 -3 -20.001c-1.33301 -5.33301 -2.33301 -11.5 -3 -18.5s-1.66699 -13.5 -3 -19.5l-42 -232h-138z" />
    <glyph glyph-name="ydieresis" unicode="&#xff;" horiz-adv-x="537" 
d="M76 560l140.999 -0.000976562l52 -369h2l176 369h151l-306 -585c-34.667 -66.667 -73 -115.167 -115 -145.5s-89 -45.5 -141 -45.5c-18 0 -34.833 1.16699 -50.5 3.5s-30.167 5.5 -43.5 9.5l23 133c12.667 -3.33301 25.334 -6.16602 38.001 -8.49902s27 -3.5 43 -3.5
c29.333 0 52.833 7.5 70.5 22.5s33.167 35.167 46.5 60.5l10 20zM171.999 644.999l23 131h123l-23 -131h-123zM386.999 644.999l23 131h122l-23 -131h-122z" />
    <glyph glyph-name="Amacron" unicode="&#x100;" horiz-adv-x="600" 
d="M568 825h-324l16 95h324zM373 566h-4l-98 -237h120zM212 193l-83 -193h-149l338 750h168l74 -750h-143l-15 193h-190z" />
    <glyph glyph-name="amacron" unicode="&#x101;" horiz-adv-x="549" 
d="M104 401c13.333 56.667 40.667 98.999 82 126.999s90.666 42 147.999 42c49.333 0 89 -10.5 119 -31.5s50 -50.5 60 -88.5c3.33301 -13.333 4.83301 -29.333 4.5 -48s-2.16602 -37 -5.49902 -55l-61 -347h-84v86h-1c-17.333 -29.333 -38.166 -52.666 -62.499 -69.999
s-55.5 -26 -93.5 -26c-25.333 0 -48.5 3.83301 -69.5 11.5s-38.833 19.334 -53.5 35.001s-25.5 35 -32.5 58s-9.16699 50.167 -6.5 81.5c3.33301 40.667 16.166 74.667 38.499 102s51.5 47.333 87.5 60c13.333 4.66699 28.5 8.16699 45.5 10.5s36.167 3.5 57.5 3.5h98l2 14
c5.33301 29.333 3 52.166 -7 68.499s-28.333 24.5 -55 24.5c-22 0 -39.333 -5.33301 -52 -16s-21.667 -24.667 -27 -42h-132zM185.001 180.999c-2 -22 1.99902 -39.5 11.999 -52.5s26.667 -19.5 50 -19.5c26 0 48.667 10.5 68 31.5s32 49.167 38 84.5l4 23h-81
c-7.33301 0 -15.333 -0.5 -24 -1.5s-15.667 -2.5 -21 -4.5c-27.333 -10 -42.666 -30.333 -45.999 -61zM534 645.999h-324l16 95h324z" />
    <glyph glyph-name="Abreve" unicode="&#x102;" horiz-adv-x="600" 
d="M373 566h-4l-98 -237h120zM212 193l-83 -193h-149l338 750h168l74 -750h-143l-15 193h-190zM406 803c-53.333 0 -93.999 16.333 -121.999 49s-40.333 77 -37 133h89c1.33301 -25.333 7.5 -45.666 18.5 -60.999s31.167 -23 60.5 -23c28.667 0 50 7.66699 64 23
s24 35.666 30 60.999h89c-8 -56 -28.833 -100.333 -62.5 -133s-76.834 -49 -129.501 -49z" />
    <glyph glyph-name="abreve" unicode="&#x103;" horiz-adv-x="549" 
d="M104 401c13.333 56.667 40.667 98.999 82 126.999s90.666 42 147.999 42c49.333 0 89 -10.5 119 -31.5s50 -50.5 60 -88.5c3.33301 -13.333 4.83301 -29.333 4.5 -48s-2.16602 -37 -5.49902 -55l-61 -347h-84v86h-1c-17.333 -29.333 -38.166 -52.666 -62.499 -69.999
s-55.5 -26 -93.5 -26c-25.333 0 -48.5 3.83301 -69.5 11.5s-38.833 19.334 -53.5 35.001s-25.5 35 -32.5 58s-9.16699 50.167 -6.5 81.5c3.33301 40.667 16.166 74.667 38.499 102s51.5 47.333 87.5 60c13.333 4.66699 28.5 8.16699 45.5 10.5s36.167 3.5 57.5 3.5h98l2 14
c5.33301 29.333 3 52.166 -7 68.499s-28.333 24.5 -55 24.5c-22 0 -39.333 -5.33301 -52 -16s-21.667 -24.667 -27 -42h-132zM185.001 180.999c-2 -22 1.99902 -39.5 11.999 -52.5s26.667 -19.5 50 -19.5c26 0 48.667 10.5 68 31.5s32 49.167 38 84.5l4 23h-81
c-7.33301 0 -15.333 -0.5 -24 -1.5s-15.667 -2.5 -21 -4.5c-27.333 -10 -42.666 -30.333 -45.999 -61zM375 623.999c-53.333 0 -93.999 16.333 -121.999 49s-40.333 77 -37 133h89c1.33301 -25.333 7.5 -45.666 18.5 -60.999s31.167 -23 60.5 -23c28.667 0 50 7.66699 64 23
s24 35.666 30 60.999h89c-8 -56 -28.833 -100.333 -62.5 -133s-76.834 -49 -129.501 -49z" />
    <glyph glyph-name="Aogonek" unicode="&#x104;" horiz-adv-x="600" 
d="M212 193l-82.998 -192.998h-149l338 750h168l74 -750c-40.667 -24.667 -71 -47.167 -91 -67.5s-31 -39.833 -33 -58.5c-1.33301 -11.333 2.16699 -20.833 10.5 -28.5s19.166 -11.5 32.499 -11.5c11.333 0 21.5 1.5 30.5 4.5s19.5 7.83301 31.5 14.5l21 -61
c-14 -9.33301 -30 -16.833 -48 -22.5s-35.667 -8.5 -53 -8.5c-16.667 0 -32.5 2.16699 -47.5 6.5s-28 10.666 -39 18.999s-19.667 18.833 -26 31.5s-8.83301 27.667 -7.5 45c1.33301 22 8.66602 42.667 21.999 62s32 37.666 56 54.999l-17 213h-190zM373.002 566.002h-4
l-98 -237h120z" />
    <glyph glyph-name="aogonek" unicode="&#x105;" horiz-adv-x="549" 
d="M104 401c13.333 56.667 40.668 99 82.001 127s90.666 42 147.999 42c49.333 0 89 -10.5 119 -31.5s50 -50.5 60 -88.5c3.33301 -13.333 4.83301 -29.333 4.5 -48s-2.16602 -37 -5.49902 -55l-61 -347c-40.667 -24.667 -71.167 -47.167 -91.5 -67.5
s-31.5 -39.833 -33.5 -58.5c-1.33301 -11.333 2.16699 -20.833 10.5 -28.5s19.166 -11.5 32.499 -11.5c11.333 0 21.5 1.5 30.5 4.5s19.5 7.83301 31.5 14.5l21 -61c-14 -9.33301 -30 -16.833 -48 -22.5s-35.667 -8.5 -53 -8.5c-16.667 0 -32.5 2.16699 -47.5 6.5
s-28 10.666 -39 18.999s-19.667 18.833 -26 31.5s-8.83301 27.667 -7.5 45c1.33301 30 13.833 57 37.5 81s56.5 46 98.5 66v76h-1c-17.333 -29.333 -38.166 -52.666 -62.499 -69.999s-55.5 -26 -93.5 -26c-25.333 0 -48.5 3.83301 -69.5 11.5s-38.833 19.334 -53.5 35.001
s-25.5 35 -32.5 58s-9.16699 50.167 -6.5 81.5c3.33301 40.667 16.166 74.667 38.499 102s51.5 47.333 87.5 60c13.333 4.66699 28.5 8.16699 45.5 10.5s36.167 3.5 57.5 3.5h98l2 14c5.33301 29.333 3 52.166 -7 68.499s-28.333 24.5 -55 24.5
c-22 0 -39.333 -5.33301 -52 -16s-21.667 -24.667 -27 -42h-132zM185.002 181c-2 -22 1.99902 -39.5 11.999 -52.5s26.667 -19.5 50 -19.5c26 0 48.667 10.5 68 31.5s32 49.167 38 84.5l4 23h-81c-7.33301 0 -15.333 -0.5 -24 -1.5s-15.667 -2.5 -21 -4.5
c-27.333 -10 -42.666 -30.333 -45.999 -61z" />
    <glyph glyph-name="Cacute" unicode="&#x106;" horiz-adv-x="603" 
d="M573 270c-2.66699 -36 -10.501 -70.8359 -23.501 -104.503s-31.167 -63.5 -54.5 -89.5s-51.666 -46.833 -84.999 -62.5s-71 -23.5 -113 -23.5h-7c-31.333 0 -59.666 4.83301 -84.999 14.5s-47.166 22.834 -65.499 39.501s-33 36.334 -44 59.001
s-17.833 47.334 -20.5 74.001c-1.33301 13.333 -1.5 28.666 -0.5 45.999s2.83301 33 5.5 47l41 236c6 35.333 16.167 68.5 30.5 99.5s32.833 58 55.5 81s49.5 41 80.5 54s66.5 19.5 106.5 19.5h8c30.667 0 58.667 -4.5 84 -13.5s47.166 -21.833 65.499 -38.5
s33.166 -36.5 44.499 -59.5s18 -48.5 20 -76.5c1.33301 -12 1.66602 -25.833 0.999023 -41.5s-2 -30.5 -4 -44.5h-142c1.33301 9.33301 2.66602 20.333 3.99902 33s1.33301 23 0 31c-2 20.667 -9 37.667 -21 51s-32 20 -60 20h-8c-35.333 0 -63.166 -12.5 -83.499 -37.5
s-33.833 -55.5 -40.5 -91.5l-41 -232c-1.33301 -9.33301 -2.66602 -19.666 -3.99902 -30.999s-1.33301 -21 0 -29c2 -20.667 9.33301 -37.667 22 -51s32.667 -20 60 -20h6c34.667 0 62.667 12 84 36s35 55 41 93l2 12h141zM563.999 981.997l-172 -175h-95l114 187h152z" />
    <glyph glyph-name="cacute" unicode="&#x107;" horiz-adv-x="530" 
d="M494 194c-4.66699 -17.333 -10.3262 -34.1689 -16.9932 -50.502s-14.667 -31.5 -24 -45.5c-20.667 -32 -47.834 -58 -81.501 -78s-73.5 -30 -119.5 -30c-46.667 0 -85.834 12 -117.501 36s-53.5 54 -65.5 90c-6.66699 18.667 -9.83398 39 -9.50098 61
s2.16602 43.333 5.49902 64l17 95c3.33301 20.667 9.16602 42.334 17.499 65.001s18.166 43 29.499 61c20.667 32 47.667 58 81 78s73 30 119 30c46.667 0 86 -12 118 -36s53.667 -54 65 -90c8 -26 11 -54.667 9 -86h-139c0.666992 5.33301 0.833984 10.333 0.500977 15
s-0.833008 9.33398 -1.5 14.001c-1.33301 14 -6.83301 26.167 -16.5 36.5s-24.5 15.5 -44.5 15.5c-18.667 0 -34.334 -4.33301 -47.001 -13s-23.667 -20.334 -33 -35.001c-5.33301 -9.33301 -9.83301 -19.833 -13.5 -31.5s-6.83398 -24.167 -9.50098 -37.5l-15 -91
c-1.33301 -9.33301 -2.33301 -19.166 -3 -29.499s-0.333984 -19.833 0.999023 -28.5c1.33301 -14 6.83301 -26.167 16.5 -36.5s24.5 -15.5 44.5 -15.5c22.667 0 42.334 6.83301 59.001 20.5s27.667 31.167 33 52.5h141zM511.008 802.997l-172 -175h-95l114 187h152z" />
    <glyph glyph-name="Ccircumflex" unicode="&#x108;" horiz-adv-x="603" 
d="M573 270c-2.66699 -36 -10.501 -70.8359 -23.501 -104.503s-31.167 -63.5 -54.5 -89.5s-51.666 -46.833 -84.999 -62.5s-71 -23.5 -113 -23.5h-7c-31.333 0 -59.666 4.83301 -84.999 14.5s-47.166 22.834 -65.499 39.501s-33 36.334 -44 59.001
s-17.833 47.334 -20.5 74.001c-1.33301 13.333 -1.5 28.666 -0.5 45.999s2.83301 33 5.5 47l41 236c6 35.333 16.167 68.5 30.5 99.5s32.833 58 55.5 81s49.5 41 80.5 54s66.5 19.5 106.5 19.5h8c30.667 0 58.667 -4.5 84 -13.5s47.166 -21.833 65.499 -38.5
s33.166 -36.5 44.499 -59.5s18 -48.5 20 -76.5c1.33301 -12 1.66602 -25.833 0.999023 -41.5s-2 -30.5 -4 -44.5h-142c1.33301 9.33301 2.66602 20.333 3.99902 33s1.33301 23 0 31c-2 20.667 -9 37.667 -21 51s-32 20 -60 20h-8c-35.333 0 -63.166 -12.5 -83.499 -37.5
s-33.833 -55.5 -40.5 -91.5l-41 -232c-1.33301 -9.33301 -2.66602 -19.666 -3.99902 -30.999s-1.33301 -21 0 -29c2 -20.667 9.33301 -37.667 22 -51s32.667 -20 60 -20h6c34.667 0 62.667 12 84 36s35 55 41 93l2 12h141zM482.999 1013l144 -205h-113l-87 113l-107 -113
h-114l183 205h94z" />
    <glyph glyph-name="ccircumflex" unicode="&#x109;" horiz-adv-x="530" 
d="M494 194c-4.66699 -17.333 -10.3262 -34.1689 -16.9932 -50.502s-14.667 -31.5 -24 -45.5c-20.667 -32 -47.834 -58 -81.501 -78s-73.5 -30 -119.5 -30c-46.667 0 -85.834 12 -117.501 36s-53.5 54 -65.5 90c-6.66699 18.667 -9.83398 39 -9.50098 61
s2.16602 43.333 5.49902 64l17 95c3.33301 20.667 9.16602 42.334 17.499 65.001s18.166 43 29.499 61c20.667 32 47.667 58 81 78s73 30 119 30c46.667 0 86 -12 118 -36s53.667 -54 65 -90c8 -26 11 -54.667 9 -86h-139c0.666992 5.33301 0.833984 10.333 0.500977 15
s-0.833008 9.33398 -1.5 14.001c-1.33301 14 -6.83301 26.167 -16.5 36.5s-24.5 15.5 -44.5 15.5c-18.667 0 -34.334 -4.33301 -47.001 -13s-23.667 -20.334 -33 -35.001c-5.33301 -9.33301 -9.83301 -19.833 -13.5 -31.5s-6.83398 -24.167 -9.50098 -37.5l-15 -91
c-1.33301 -9.33301 -2.33301 -19.166 -3 -29.499s-0.333984 -19.833 0.999023 -28.5c1.33301 -14 6.83301 -26.167 16.5 -36.5s24.5 -15.5 44.5 -15.5c22.667 0 42.334 6.83301 59.001 20.5s27.667 31.167 33 52.5h141zM416.008 833.997l144 -205h-113l-87 113l-107 -113
h-114l183 205h94z" />
    <glyph glyph-name="Cdotaccent" unicode="&#x10a;" horiz-adv-x="603" 
d="M573 270c-2.66699 -36 -10.501 -70.8359 -23.501 -104.503s-31.167 -63.5 -54.5 -89.5s-51.666 -46.833 -84.999 -62.5s-71 -23.5 -113 -23.5h-7c-31.333 0 -59.666 4.83301 -84.999 14.5s-47.166 22.834 -65.499 39.501s-33 36.334 -44 59.001
s-17.833 47.334 -20.5 74.001c-1.33301 13.333 -1.5 28.666 -0.5 45.999s2.83301 33 5.5 47l41 236c6 35.333 16.167 68.5 30.5 99.5s32.833 58 55.5 81s49.5 41 80.5 54s66.5 19.5 106.5 19.5h8c30.667 0 58.667 -4.5 84 -13.5s47.166 -21.833 65.499 -38.5
s33.166 -36.5 44.499 -59.5s18 -48.5 20 -76.5c1.33301 -12 1.66602 -25.833 0.999023 -41.5s-2 -30.5 -4 -44.5h-142c1.33301 9.33301 2.66602 20.333 3.99902 33s1.33301 23 0 31c-2 20.667 -9 37.667 -21 51s-32 20 -60 20h-8c-35.333 0 -63.166 -12.5 -83.499 -37.5
s-33.833 -55.5 -40.5 -91.5l-41 -232c-1.33301 -9.33301 -2.66602 -19.666 -3.99902 -30.999s-1.33301 -21 0 -29c2 -20.667 9.33301 -37.667 22 -51s32.667 -20 60 -20h6c34.667 0 62.667 12 84 36s35 55 41 93l2 12h141zM343.999 822.997l25 139h138l-25 -139h-138z" />
    <glyph glyph-name="cdotaccent" unicode="&#x10b;" horiz-adv-x="530" 
d="M494 194c-4.66699 -17.333 -10.3262 -34.1689 -16.9932 -50.502s-14.667 -31.5 -24 -45.5c-20.667 -32 -47.834 -58 -81.501 -78s-73.5 -30 -119.5 -30c-46.667 0 -85.834 12 -117.501 36s-53.5 54 -65.5 90c-6.66699 18.667 -9.83398 39 -9.50098 61
s2.16602 43.333 5.49902 64l17 95c3.33301 20.667 9.16602 42.334 17.499 65.001s18.166 43 29.499 61c20.667 32 47.667 58 81 78s73 30 119 30c46.667 0 86 -12 118 -36s53.667 -54 65 -90c8 -26 11 -54.667 9 -86h-139c0.666992 5.33301 0.833984 10.333 0.500977 15
s-0.833008 9.33398 -1.5 14.001c-1.33301 14 -6.83301 26.167 -16.5 36.5s-24.5 15.5 -44.5 15.5c-18.667 0 -34.334 -4.33301 -47.001 -13s-23.667 -20.334 -33 -35.001c-5.33301 -9.33301 -9.83301 -19.833 -13.5 -31.5s-6.83398 -24.167 -9.50098 -37.5l-15 -91
c-1.33301 -9.33301 -2.33301 -19.166 -3 -29.499s-0.333984 -19.833 0.999023 -28.5c1.33301 -14 6.83301 -26.167 16.5 -36.5s24.5 -15.5 44.5 -15.5c22.667 0 42.334 6.83301 59.001 20.5s27.667 31.167 33 52.5h141zM287.008 643.997l25 139h138l-25 -139h-138z" />
    <glyph glyph-name="Ccaron" unicode="&#x10c;" horiz-adv-x="603" 
d="M573 270c-2.66699 -36 -10.501 -70.8359 -23.501 -104.503s-31.167 -63.5 -54.5 -89.5s-51.666 -46.833 -84.999 -62.5s-71 -23.5 -113 -23.5h-7c-31.333 0 -59.666 4.83301 -84.999 14.5s-47.166 22.834 -65.499 39.501s-33 36.334 -44 59.001
s-17.833 47.334 -20.5 74.001c-1.33301 13.333 -1.5 28.666 -0.5 45.999s2.83301 33 5.5 47l41 236c6 35.333 16.167 68.5 30.5 99.5s32.833 58 55.5 81s49.5 41 80.5 54s66.5 19.5 106.5 19.5h8c30.667 0 58.667 -4.5 84 -13.5s47.166 -21.833 65.499 -38.5
s33.166 -36.5 44.499 -59.5s18 -48.5 20 -76.5c1.33301 -12 1.66602 -25.833 0.999023 -41.5s-2 -30.5 -4 -44.5h-142c1.33301 9.33301 2.66602 20.333 3.99902 33s1.33301 23 0 31c-2 20.667 -9 37.667 -21 51s-32 20 -60 20h-8c-35.333 0 -63.166 -12.5 -83.499 -37.5
s-33.833 -55.5 -40.5 -91.5l-41 -232c-1.33301 -9.33301 -2.66602 -19.666 -3.99902 -30.999s-1.33301 -21 0 -29c2 -20.667 9.33301 -37.667 22 -51s32.667 -20 60 -20h6c34.667 0 62.667 12 84 36s35 55 41 93l2 12h141zM369.999 807.997l-145 205h114l86 -113l108 113
h113l-182 -205h-94z" />
    <glyph glyph-name="ccaron" unicode="&#x10d;" horiz-adv-x="530" 
d="M494 194c-4.66699 -17.333 -10.3262 -34.1689 -16.9932 -50.502s-14.667 -31.5 -24 -45.5c-20.667 -32 -47.834 -58 -81.501 -78s-73.5 -30 -119.5 -30c-46.667 0 -85.834 12 -117.501 36s-53.5 54 -65.5 90c-6.66699 18.667 -9.83398 39 -9.50098 61
s2.16602 43.333 5.49902 64l17 95c3.33301 20.667 9.16602 42.334 17.499 65.001s18.166 43 29.499 61c20.667 32 47.667 58 81 78s73 30 119 30c46.667 0 86 -12 118 -36s53.667 -54 65 -90c8 -26 11 -54.667 9 -86h-139c0.666992 5.33301 0.833984 10.333 0.500977 15
s-0.833008 9.33398 -1.5 14.001c-1.33301 14 -6.83301 26.167 -16.5 36.5s-24.5 15.5 -44.5 15.5c-18.667 0 -34.334 -4.33301 -47.001 -13s-23.667 -20.334 -33 -35.001c-5.33301 -9.33301 -9.83301 -19.833 -13.5 -31.5s-6.83398 -24.167 -9.50098 -37.5l-15 -91
c-1.33301 -9.33301 -2.33301 -19.166 -3 -29.499s-0.333984 -19.833 0.999023 -28.5c1.33301 -14 6.83301 -26.167 16.5 -36.5s24.5 -15.5 44.5 -15.5c22.667 0 42.334 6.83301 59.001 20.5s27.667 31.167 33 52.5h141zM312.008 628.997l-145 205h114l86 -113l108 113h113
l-182 -205h-94z" />
    <glyph glyph-name="Dcaron" unicode="&#x10e;" horiz-adv-x="623" 
d="M392 750c40.667 0 73.6689 -5.33496 99.002 -16.002c36 -14.667 64.833 -37.167 86.5 -67.5s34.5 -65.166 38.5 -104.499c1.33301 -12.667 1.66602 -27.667 0.999023 -45s-2.33398 -33 -5.00098 -47l-38 -216c-10 -57.333 -30.333 -107.666 -61 -150.999
s-72.334 -73.333 -125.001 -90c-13.333 -4 -28.166 -7.16699 -44.499 -9.5s-33.5 -3.5 -51.5 -3.5h-248l132 750h216zM293.002 610.998l-82.999 -473h89c12.667 0 25.167 1.5 37.5 4.5s22.833 7.16699 31.5 12.5c17.333 11.333 31.5 26.833 42.5 46.5
s18.833 41.834 23.5 66.501l37 212c1.33301 9.33301 2.66602 19.666 3.99902 30.999s1.33301 21 0 29c-2 20.667 -9.5 37.667 -22.5 51s-35.833 20 -68.5 20h-91zM349.003 807.998l-145 205h114l86 -113l108 113h113l-182 -205h-94z" />
    <glyph glyph-name="dcaron" unicode="&#x10f;" horiz-adv-x="667" 
d="M387 319c2 13.333 2.66797 27.1641 2.00098 41.4971s-3.5 27.333 -8.5 39s-12.667 21.334 -23 29.001s-23.5 11.5 -39.5 11.5c-14 0 -26.667 -3.16699 -38 -9.5s-21.166 -14.666 -29.499 -24.999s-15.333 -22.5 -21 -36.5s-9.83398 -28.667 -12.501 -44l-14 -84
c-4 -24 -5.66699 -42.333 -5 -55c1.33301 -17.333 6.16602 -32.166 14.499 -44.499s22.5 -18.5 42.5 -18.5c12.667 0 25.5 3.5 38.5 10.5s25.333 17.167 37 30.5s22 30 31 50s15.5 42.667 19.5 68zM306.001 569.998c46 0 84.6631 -18.668 115.996 -56.001h1
c0.666992 6.66699 1.66699 13.334 3 20.001c1.33301 5.33301 2.33301 11.333 3 18s1.66699 13.334 3 20.001l38 213h138l-138 -785h-91v76h-1c-22 -28.667 -47.167 -50.167 -75.5 -64.5s-58.5 -21.5 -90.5 -21.5c-41.333 0 -76 12.5 -104 37.5s-44.667 60.167 -50 105.5
c-1.33301 12 -1.66602 26.333 -0.999023 43s2.33398 32.667 5.00098 48l19 104l11 49c4 17.333 9.33301 33.666 16 48.999c8.66699 20.667 19.334 39.667 32.001 57s27.334 32.5 44.001 45.5s35.167 23.167 55.5 30.5s42.5 11 66.5 11zM677.997 784.997h120.996l-15 -86
c-2 -9.33301 -4.16699 -18.833 -6.5 -28.5s-5.16602 -18.5 -8.49902 -26.5c-10.667 -24.667 -26.167 -45.5 -46.5 -62.5s-48.166 -28.167 -83.499 -33.5l8 43c12.667 4 23.334 8.83301 32.001 14.5s15.667 11.667 21 18s9.33301 12.5 12 18.5s4.33398 11 5.00098 15
c1.33301 4 1 6.5 -1 7.5s-4 1.5 -6 1.5h-53z" />
    <glyph glyph-name="Dcroat" unicode="&#x110;" horiz-adv-x="655" 
d="M424 750c40.667 0 73.6689 -5.33496 99.002 -16.002c36 -14.667 64.833 -37.167 86.5 -67.5s34.5 -65.166 38.5 -104.499c1.33301 -12.667 1.66602 -27.667 0.999023 -45s-2.33398 -33 -5.00098 -47l-38 -216c-10 -57.333 -30.333 -107.666 -61 -150.999
s-72.334 -73.333 -125.001 -90c-13.333 -4 -28.166 -7.16699 -44.499 -9.5s-33.5 -3.5 -51.5 -3.5h-248l60 342h-94l18 106h94l54 302h216zM325.002 610.998l-28.999 -163h119l-18 -106h-119l-36 -204h89c12.667 0 25.167 1.5 37.5 4.5s22.833 7.16699 31.5 12.5
c17.333 11.333 31.5 26.833 42.5 46.5s18.833 41.834 23.5 66.501l37 212c1.33301 9.33301 2.66602 19.666 3.99902 30.999s1.33301 21 0 29c-2 20.667 -9.5 37.667 -22.5 51s-35.833 20 -68.5 20h-91z" />
    <glyph glyph-name="dcroat" unicode="&#x111;" horiz-adv-x="579" 
d="M306 570c46 0 84.6631 -18.668 115.996 -56.001h1c0.666992 6.66699 1.66699 13.334 3 20.001c1.33301 5.33301 2.33301 11.333 3 18s1.66699 13.334 3 20.001l12 66h-167l13 75h167l13 72h138l-13 -72h89l-13 -75h-89l-112 -638h-91v76h-1
c-22 -28.667 -47.167 -50.167 -75.5 -64.5s-58.5 -21.5 -90.5 -21.5c-41.333 0 -76 12.5 -104 37.5s-44.667 60.167 -50 105.5c-1.33301 12 -1.66602 26.333 -0.999023 43s2.33398 32.667 5.00098 48l19 104l11 49c4 17.333 9.33301 33.666 16 48.999
c8.66699 20.667 19.334 39.667 32.001 57s27.334 32.5 44.001 45.5s35.167 23.167 55.5 30.5s42.5 11 66.5 11zM386.996 318.999c2 13.333 2.66797 27.1641 2.00098 41.4971s-3.5 27.333 -8.5 39s-12.667 21.334 -23 29.001s-23.5 11.5 -39.5 11.5
c-14 0 -26.667 -3.16699 -38 -9.5s-21.166 -14.666 -29.499 -24.999s-15.333 -22.5 -21 -36.5s-9.83398 -28.667 -12.501 -44l-14 -84c-4 -24 -5.66699 -42.333 -5 -55c1.33301 -17.333 6.16602 -32.166 14.499 -44.499s22.5 -18.5 42.5 -18.5c12.667 0 25.5 3.5 38.5 10.5
s25.333 17.167 37 30.5s22 30 31 50s15.5 42.667 19.5 68z" />
    <glyph glyph-name="Emacron" unicode="&#x112;" horiz-adv-x="555" 
d="M176 750h443l-24 -133h-300l-29 -166h248l-24 -133h-248l-32 -185h300l-23 -133h-443zM560 825h-324l16 95h324z" />
    <glyph glyph-name="emacron" unicode="&#x113;" horiz-adv-x="542" 
d="M262 109c21.333 0 38.6689 6.16699 52.002 18.5s24 27.166 32 44.499h140c-4.66699 -13.333 -9.66699 -26.333 -15 -39s-11.666 -24.334 -18.999 -35.001c-20.667 -32 -47.667 -58 -81 -78s-73 -30 -119 -30c-46.667 0 -85.834 12 -117.501 36s-53.5 54 -65.5 90
c-6.66699 18.667 -9.83398 39 -9.50098 61s2.16602 43.333 5.49902 64l17 95c3.33301 20.667 9.16602 42.334 17.499 65.001s18.166 43 29.499 61c20.667 32 47.667 58 81 78s73 30 119 30c46.667 0 85.834 -11.5 117.501 -34.5s53.5 -52.5 65.5 -88.5
c6.66699 -18.667 9.83398 -39.5 9.50098 -62.5s-2.16602 -44.833 -5.49902 -65.5l-14 -76h-298l-4 -24c-1.33301 -9.33301 -2.33301 -19.166 -3 -29.499s-0.333984 -19.833 0.999023 -28.5c1.33301 -14 7.33301 -26.167 18 -36.5s26 -15.5 46 -15.5zM244.003 406
c-5.33301 -8 -9.66602 -16.999 -12.999 -26.999s-6.33301 -20.667 -9 -32h160c1.33301 9.33301 2.5 18.833 3.5 28.5s0.833008 18.5 -0.5 26.5c-1.33301 14 -6.83301 26.167 -16.5 36.5s-24.5 15.5 -44.5 15.5c-18.667 0 -34.334 -4.33301 -47.001 -13
s-23.667 -20.334 -33 -35.001zM525.003 646.001h-324l16 95h324z" />
    <glyph glyph-name="Ebreve" unicode="&#x114;" horiz-adv-x="555" 
d="M176 750h443l-24 -133h-300l-29 -166h248l-24 -133h-248l-32 -185h300l-23 -133h-443zM408 803c-53.333 0 -93.999 16.333 -121.999 49s-40.333 77 -37 133h89c1.33301 -25.333 7.5 -45.666 18.5 -60.999s31.167 -23 60.5 -23c28.667 0 50 7.66699 64 23
s24 35.666 30 60.999h89c-8 -56 -28.833 -100.333 -62.5 -133s-76.834 -49 -129.501 -49z" />
    <glyph glyph-name="ebreve" unicode="&#x115;" horiz-adv-x="542" 
d="M262 109c21.333 0 38.6689 6.16699 52.002 18.5s24 27.166 32 44.499h140c-4.66699 -13.333 -9.66699 -26.333 -15 -39s-11.666 -24.334 -18.999 -35.001c-20.667 -32 -47.667 -58 -81 -78s-73 -30 -119 -30c-46.667 0 -85.834 12 -117.501 36s-53.5 54 -65.5 90
c-6.66699 18.667 -9.83398 39 -9.50098 61s2.16602 43.333 5.49902 64l17 95c3.33301 20.667 9.16602 42.334 17.499 65.001s18.166 43 29.499 61c20.667 32 47.667 58 81 78s73 30 119 30c46.667 0 85.834 -11.5 117.501 -34.5s53.5 -52.5 65.5 -88.5
c6.66699 -18.667 9.83398 -39.5 9.50098 -62.5s-2.16602 -44.833 -5.49902 -65.5l-14 -76h-298l-4 -24c-1.33301 -9.33301 -2.33301 -19.166 -3 -29.499s-0.333984 -19.833 0.999023 -28.5c1.33301 -14 7.33301 -26.167 18 -36.5s26 -15.5 46 -15.5zM244.003 406
c-5.33301 -8 -9.66602 -16.999 -12.999 -26.999s-6.33301 -20.667 -9 -32h160c1.33301 9.33301 2.5 18.833 3.5 28.5s0.833008 18.5 -0.5 26.5c-1.33301 14 -6.83301 26.167 -16.5 36.5s-24.5 15.5 -44.5 15.5c-18.667 0 -34.334 -4.33301 -47.001 -13
s-23.667 -20.334 -33 -35.001zM376.003 624.001c-53.333 0 -93.999 16.333 -121.999 49s-40.333 77 -37 133h89c1.33301 -25.333 7.5 -45.666 18.5 -60.999s31.167 -23 60.5 -23c28.667 0 50 7.66699 64 23s24 35.666 30 60.999h89c-8 -56 -28.833 -100.333 -62.5 -133
s-76.834 -49 -129.501 -49z" />
    <glyph glyph-name="Edotaccent" unicode="&#x116;" horiz-adv-x="555" 
d="M176 750h443l-24 -133h-300l-29 -166h248l-24 -133h-248l-32 -185h300l-23 -133h-443zM338 823l25 139h138l-25 -139h-138z" />
    <glyph glyph-name="edotaccent" unicode="&#x117;" horiz-adv-x="542" 
d="M262 109c21.333 0 38.6689 6.16699 52.002 18.5s24 27.166 32 44.499h140c-4.66699 -13.333 -9.66699 -26.333 -15 -39s-11.666 -24.334 -18.999 -35.001c-20.667 -32 -47.667 -58 -81 -78s-73 -30 -119 -30c-46.667 0 -85.834 12 -117.501 36s-53.5 54 -65.5 90
c-6.66699 18.667 -9.83398 39 -9.50098 61s2.16602 43.333 5.49902 64l17 95c3.33301 20.667 9.16602 42.334 17.499 65.001s18.166 43 29.499 61c20.667 32 47.667 58 81 78s73 30 119 30c46.667 0 85.834 -11.5 117.501 -34.5s53.5 -52.5 65.5 -88.5
c6.66699 -18.667 9.83398 -39.5 9.50098 -62.5s-2.16602 -44.833 -5.49902 -65.5l-14 -76h-298l-4 -24c-1.33301 -9.33301 -2.33301 -19.166 -3 -29.499s-0.333984 -19.833 0.999023 -28.5c1.33301 -14 7.33301 -26.167 18 -36.5s26 -15.5 46 -15.5zM244.003 406
c-5.33301 -8 -9.66602 -16.999 -12.999 -26.999s-6.33301 -20.667 -9 -32h160c1.33301 9.33301 2.5 18.833 3.5 28.5s0.833008 18.5 -0.5 26.5c-1.33301 14 -6.83301 26.167 -16.5 36.5s-24.5 15.5 -44.5 15.5c-18.667 0 -34.334 -4.33301 -47.001 -13
s-23.667 -20.334 -33 -35.001zM289.003 644.001l25 139h138l-25 -139h-138z" />
    <glyph glyph-name="Eogonek" unicode="&#x118;" horiz-adv-x="555" 
d="M176 750l443.001 0.000976562l-24 -133h-300l-29 -166h248l-24 -133h-248l-32 -185h300l-23 -133c-12 -2 -23.167 -5.83301 -33.5 -11.5s-18.5 -10.5 -24.5 -14.5c-54 -38 -82.333 -71.333 -85 -100c-1.33301 -11.333 2.16699 -20.833 10.5 -28.5
s19.166 -11.5 32.499 -11.5c11.333 0 21.5 1.5 30.5 4.5s19.5 7.83301 31.5 14.5l21 -61c-14 -9.33301 -30 -16.833 -48 -22.5s-35.667 -8.5 -53 -8.5c-16.667 0 -32.5 2.16699 -47.5 6.5s-28 10.666 -39 18.999s-19.667 18.833 -26 31.5s-8.83301 27.667 -7.5 45
c1.33301 26 11.5 50.5 30.5 73.5s45.5 44.167 79.5 63.5h-315z" />
    <glyph glyph-name="eogonek" unicode="&#x119;" horiz-adv-x="542" 
d="M258 109c21.333 0 39.334 6.16992 54.001 18.5029s26 27.166 34 44.499h140c-4.66699 -13.333 -9.66699 -26.333 -15 -39s-11.666 -24.334 -18.999 -35.001c-24 -37.333 -56.667 -66 -98 -86c-51.333 -24.667 -88 -49.167 -110 -73.5s-34 -45.833 -36 -64.5
c-1.33301 -11.333 2.16699 -20.833 10.5 -28.5s19.166 -11.5 32.499 -11.5c11.333 0 21.5 1.5 30.5 4.5s19.5 7.83301 31.5 14.5l21 -61c-14 -9.33301 -30 -16.833 -48 -22.5s-35.667 -8.5 -53 -8.5c-16.667 0 -32.5 2.16699 -47.5 6.5s-28 10.666 -39 18.999
s-19.667 18.833 -26 31.5s-8.83301 27.667 -7.5 45c1.33301 25.333 10.5 48.666 27.5 69.999s40.833 41.666 71.5 60.999c-36 6 -66.167 20 -90.5 42s-41.833 48.667 -52.5 80c-6.66699 18.667 -9.83398 39 -9.50098 61s2.16602 43.333 5.49902 64l17 95
c3.33301 20.667 9.16602 42.334 17.499 65.001s18.166 43 29.499 61c20.667 32 47.667 58 81 78s73 30 119 30c46.667 0 85.834 -11.5 117.501 -34.5s53.5 -52.5 65.5 -88.5c6.66699 -18.667 9.83398 -39.5 9.50098 -62.5s-2.16602 -44.833 -5.49902 -65.5l-14 -76h-298
l-4 -24c-1.33301 -9.33301 -2.5 -19.166 -3.5 -29.499s-0.833008 -19.833 0.5 -28.5c1.33301 -14 6.83301 -26.167 16.5 -36.5s24.5 -15.5 44.5 -15.5zM244.001 406.003c-5.33301 -8 -9.66602 -16.999 -12.999 -26.999s-6.33301 -20.667 -9 -32h160
c1.33301 9.33301 2.5 18.833 3.5 28.5s0.833008 18.5 -0.5 26.5c-1.33301 14 -6.83301 26.167 -16.5 36.5s-24.5 15.5 -44.5 15.5c-18.667 0 -34.334 -4.33301 -47.001 -13s-23.667 -20.334 -33 -35.001z" />
    <glyph glyph-name="Ecaron" unicode="&#x11a;" horiz-adv-x="555" 
d="M176 750h443l-24 -133h-300l-29 -166h248l-24 -133h-248l-32 -185h300l-23 -133h-443zM359 808l-145 205h114l86 -113l108 113h113l-182 -205h-94z" />
    <glyph glyph-name="ecaron" unicode="&#x11b;" horiz-adv-x="542" 
d="M262 109c21.333 0 38.6689 6.16699 52.002 18.5s24 27.166 32 44.499h140c-4.66699 -13.333 -9.66699 -26.333 -15 -39s-11.666 -24.334 -18.999 -35.001c-20.667 -32 -47.667 -58 -81 -78s-73 -30 -119 -30c-46.667 0 -85.834 12 -117.501 36s-53.5 54 -65.5 90
c-6.66699 18.667 -9.83398 39 -9.50098 61s2.16602 43.333 5.49902 64l17 95c3.33301 20.667 9.16602 42.334 17.499 65.001s18.166 43 29.499 61c20.667 32 47.667 58 81 78s73 30 119 30c46.667 0 85.834 -11.5 117.501 -34.5s53.5 -52.5 65.5 -88.5
c6.66699 -18.667 9.83398 -39.5 9.50098 -62.5s-2.16602 -44.833 -5.49902 -65.5l-14 -76h-298l-4 -24c-1.33301 -9.33301 -2.33301 -19.166 -3 -29.499s-0.333984 -19.833 0.999023 -28.5c1.33301 -14 7.33301 -26.167 18 -36.5s26 -15.5 46 -15.5zM244.003 406
c-5.33301 -8 -9.66602 -16.999 -12.999 -26.999s-6.33301 -20.667 -9 -32h160c1.33301 9.33301 2.5 18.833 3.5 28.5s0.833008 18.5 -0.5 26.5c-1.33301 14 -6.83301 26.167 -16.5 36.5s-24.5 15.5 -44.5 15.5c-18.667 0 -34.334 -4.33301 -47.001 -13
s-23.667 -20.334 -33 -35.001zM314.003 629.001l-145 205h114l86 -113l108 113h113l-182 -205h-94z" />
    <glyph glyph-name="Gcircumflex" unicode="&#x11c;" horiz-adv-x="625" 
d="M280 -10c-28.667 0 -54.9951 4.8291 -78.9951 14.4961s-44.833 22.834 -62.5 39.501s-32 36.334 -43 59.001s-17.833 47.334 -20.5 74.001c-1.33301 13.333 -1.5 28.666 -0.5 45.999s2.83301 33 5.5 47l41 236c6 35.333 16.167 68.5 30.5 99.5s32.833 58 55.5 81
s49.5 41 80.5 54s66.5 19.5 106.5 19.5h8c62 0 111.667 -17.167 149 -51.5s58.666 -79.833 63.999 -136.5c2 -20 2 -41.333 0 -64h-142c0.666992 6.66699 1.16699 13.834 1.5 21.501s0.166016 14.5 -0.500977 20.5c-1.33301 20.667 -8 37.834 -20 51.501s-32 20.5 -60 20.5
h-8c-17.333 0 -33 -3.33301 -47 -10s-26.167 -16 -36.5 -28s-18.833 -25.833 -25.5 -41.5s-11.667 -32.5 -15 -50.5l-41 -232c-1.33301 -9.33301 -2.66602 -19.666 -3.99902 -30.999s-1.33301 -21 0 -29c2 -20.667 9.33301 -37.834 22 -51.501s32.667 -20.5 60 -20.5h7
c13.333 0 26.666 2.33301 39.999 7s25.666 11.667 36.999 21s21.166 21.5 29.499 36.5s14.166 33.167 17.499 54.5l4 22h-111l23 128h252l-70 -397h-62l-10 83h-1c-22 -30 -48.667 -53 -80 -69s-63 -24 -95 -24zM479.005 1013l144 -205h-113l-87 113l-107 -113h-114l183 205
h94z" />
    <glyph glyph-name="gcircumflex" unicode="&#x11d;" horiz-adv-x="571" 
d="M388 318c2 13.333 2.66797 27.1641 2.00098 41.4971s-3.5 27.333 -8.5 39s-12.667 21.334 -23 29.001s-23.5 11.5 -39.5 11.5c-14 0 -26.667 -3.16699 -38 -9.5s-21.166 -14.666 -29.499 -24.999s-15.333 -22.5 -21 -36.5s-9.83398 -28.667 -12.501 -44l-12 -74
c-4 -24 -5.66699 -42.333 -5 -55c1.33301 -17.333 6.16602 -32.166 14.499 -44.499s22.5 -18.5 42.5 -18.5c12.667 0 25.5 3.5 38.5 10.5s25.333 17.167 37 30.5s22 30 31 50s15.5 42.667 19.5 68zM471.001 5.99805c-3.33301 -17.333 -7.00684 -33.667 -11.0068 -49
s-8.33301 -28.666 -13 -39.999c-17.333 -48.667 -45.833 -86.667 -85.5 -114s-85.5 -41 -137.5 -41c-28 0 -53.833 4 -77.5 12s-44.5 19.833 -62.5 35.5s-32.667 35.167 -44 58.5s-18 50.333 -20 81h135c3.33301 -19.333 11.833 -35 25.5 -47s31.5 -18 53.5 -18
c24.667 0 45.334 8.83301 62.001 26.5s28 44.5 34 80.5l2 12c1.33301 6 2.5 12.5 3.5 19.5s2.16699 13.167 3.5 18.5l4 20h-1c-20 -20.667 -40.333 -36 -61 -46s-43.667 -15 -69 -15c-40 0 -73.833 12.5 -101.5 37.5s-44.167 60.167 -49.5 105.5
c-1.33301 12 -1.66602 26.333 -0.999023 43s2.33398 32.667 5.00098 48l17 94l11 49c4 17.333 9.33301 33.666 16 48.999c8.66699 20.667 19.334 39.667 32.001 57s27.334 32.5 44.001 45.5s35.334 23.167 56.001 30.5s43.334 11 68.001 11c32 0 60.833 -7.83301 86.5 -23.5
s44.5 -36.5 56.5 -62.5h1l24 76h91zM434.994 833.997l144 -205h-113l-87 113l-107 -113h-114l183 205h94z" />
    <glyph glyph-name="Gbreve" unicode="&#x11e;" horiz-adv-x="625" 
d="M280 -10c-28.667 0 -54.9951 4.8291 -78.9951 14.4961s-44.833 22.834 -62.5 39.501s-32 36.334 -43 59.001s-17.833 47.334 -20.5 74.001c-1.33301 13.333 -1.5 28.666 -0.5 45.999s2.83301 33 5.5 47l41 236c6 35.333 16.167 68.5 30.5 99.5s32.833 58 55.5 81
s49.5 41 80.5 54s66.5 19.5 106.5 19.5h8c62 0 111.667 -17.167 149 -51.5s58.666 -79.833 63.999 -136.5c2 -20 2 -41.333 0 -64h-142c0.666992 6.66699 1.16699 13.834 1.5 21.501s0.166016 14.5 -0.500977 20.5c-1.33301 20.667 -8 37.834 -20 51.501s-32 20.5 -60 20.5
h-8c-17.333 0 -33 -3.33301 -47 -10s-26.167 -16 -36.5 -28s-18.833 -25.833 -25.5 -41.5s-11.667 -32.5 -15 -50.5l-41 -232c-1.33301 -9.33301 -2.66602 -19.666 -3.99902 -30.999s-1.33301 -21 0 -29c2 -20.667 9.33301 -37.834 22 -51.501s32.667 -20.5 60 -20.5h7
c13.333 0 26.666 2.33301 39.999 7s25.666 11.667 36.999 21s21.166 21.5 29.499 36.5s14.166 33.167 17.499 54.5l4 22h-111l23 128h252l-70 -397h-62l-10 83h-1c-22 -30 -48.667 -53 -80 -69s-63 -24 -95 -24zM427.005 802.996c-53.333 0 -93.999 16.333 -121.999 49
s-40.333 77 -37 133h89c1.33301 -25.333 7.5 -45.666 18.5 -60.999s31.167 -23 60.5 -23c28.667 0 50 7.66699 64 23s24 35.666 30 60.999h89c-8 -56 -28.833 -100.333 -62.5 -133s-76.834 -49 -129.501 -49z" />
    <glyph glyph-name="gbreve" unicode="&#x11f;" horiz-adv-x="571" 
d="M388 318c2 13.333 2.66797 27.1641 2.00098 41.4971s-3.5 27.333 -8.5 39s-12.667 21.334 -23 29.001s-23.5 11.5 -39.5 11.5c-14 0 -26.667 -3.16699 -38 -9.5s-21.166 -14.666 -29.499 -24.999s-15.333 -22.5 -21 -36.5s-9.83398 -28.667 -12.501 -44l-12 -74
c-4 -24 -5.66699 -42.333 -5 -55c1.33301 -17.333 6.16602 -32.166 14.499 -44.499s22.5 -18.5 42.5 -18.5c12.667 0 25.5 3.5 38.5 10.5s25.333 17.167 37 30.5s22 30 31 50s15.5 42.667 19.5 68zM471.001 5.99805c-3.33301 -17.333 -7.00684 -33.667 -11.0068 -49
s-8.33301 -28.666 -13 -39.999c-17.333 -48.667 -45.833 -86.667 -85.5 -114s-85.5 -41 -137.5 -41c-28 0 -53.833 4 -77.5 12s-44.5 19.833 -62.5 35.5s-32.667 35.167 -44 58.5s-18 50.333 -20 81h135c3.33301 -19.333 11.833 -35 25.5 -47s31.5 -18 53.5 -18
c24.667 0 45.334 8.83301 62.001 26.5s28 44.5 34 80.5l2 12c1.33301 6 2.5 12.5 3.5 19.5s2.16699 13.167 3.5 18.5l4 20h-1c-20 -20.667 -40.333 -36 -61 -46s-43.667 -15 -69 -15c-40 0 -73.833 12.5 -101.5 37.5s-44.167 60.167 -49.5 105.5
c-1.33301 12 -1.66602 26.333 -0.999023 43s2.33398 32.667 5.00098 48l17 94l11 49c4 17.333 9.33301 33.666 16 48.999c8.66699 20.667 19.334 39.667 32.001 57s27.334 32.5 44.001 45.5s35.334 23.167 56.001 30.5s43.334 11 68.001 11c32 0 60.833 -7.83301 86.5 -23.5
s44.5 -36.5 56.5 -62.5h1l24 76h91zM368.994 623.997c-53.333 0 -93.999 16.333 -121.999 49s-40.333 77 -37 133h89c1.33301 -25.333 7.5 -45.666 18.5 -60.999s31.167 -23 60.5 -23c28.667 0 50 7.66699 64 23s24 35.666 30 60.999h89c-8 -56 -28.833 -100.333 -62.5 -133
s-76.834 -49 -129.501 -49z" />
    <glyph glyph-name="Gdotaccent" unicode="&#x120;" horiz-adv-x="625" 
d="M280 -10c-28.667 0 -54.9951 4.8291 -78.9951 14.4961s-44.833 22.834 -62.5 39.501s-32 36.334 -43 59.001s-17.833 47.334 -20.5 74.001c-1.33301 13.333 -1.5 28.666 -0.5 45.999s2.83301 33 5.5 47l41 236c6 35.333 16.167 68.5 30.5 99.5s32.833 58 55.5 81
s49.5 41 80.5 54s66.5 19.5 106.5 19.5h8c62 0 111.667 -17.167 149 -51.5s58.666 -79.833 63.999 -136.5c2 -20 2 -41.333 0 -64h-142c0.666992 6.66699 1.16699 13.834 1.5 21.501s0.166016 14.5 -0.500977 20.5c-1.33301 20.667 -8 37.834 -20 51.501s-32 20.5 -60 20.5
h-8c-17.333 0 -33 -3.33301 -47 -10s-26.167 -16 -36.5 -28s-18.833 -25.833 -25.5 -41.5s-11.667 -32.5 -15 -50.5l-41 -232c-1.33301 -9.33301 -2.66602 -19.666 -3.99902 -30.999s-1.33301 -21 0 -29c2 -20.667 9.33301 -37.834 22 -51.501s32.667 -20.5 60 -20.5h7
c13.333 0 26.666 2.33301 39.999 7s25.666 11.667 36.999 21s21.166 21.5 29.499 36.5s14.166 33.167 17.499 54.5l4 22h-111l23 128h252l-70 -397h-62l-10 83h-1c-22 -30 -48.667 -53 -80 -69s-63 -24 -95 -24zM346.005 822.996l25 139h138l-25 -139h-138z" />
    <glyph glyph-name="gdotaccent" unicode="&#x121;" horiz-adv-x="571" 
d="M388 318c2 13.333 2.66797 27.1641 2.00098 41.4971s-3.5 27.333 -8.5 39s-12.667 21.334 -23 29.001s-23.5 11.5 -39.5 11.5c-14 0 -26.667 -3.16699 -38 -9.5s-21.166 -14.666 -29.499 -24.999s-15.333 -22.5 -21 -36.5s-9.83398 -28.667 -12.501 -44l-12 -74
c-4 -24 -5.66699 -42.333 -5 -55c1.33301 -17.333 6.16602 -32.166 14.499 -44.499s22.5 -18.5 42.5 -18.5c12.667 0 25.5 3.5 38.5 10.5s25.333 17.167 37 30.5s22 30 31 50s15.5 42.667 19.5 68zM471.001 5.99805c-3.33301 -17.333 -7.00684 -33.667 -11.0068 -49
s-8.33301 -28.666 -13 -39.999c-17.333 -48.667 -45.833 -86.667 -85.5 -114s-85.5 -41 -137.5 -41c-28 0 -53.833 4 -77.5 12s-44.5 19.833 -62.5 35.5s-32.667 35.167 -44 58.5s-18 50.333 -20 81h135c3.33301 -19.333 11.833 -35 25.5 -47s31.5 -18 53.5 -18
c24.667 0 45.334 8.83301 62.001 26.5s28 44.5 34 80.5l2 12c1.33301 6 2.5 12.5 3.5 19.5s2.16699 13.167 3.5 18.5l4 20h-1c-20 -20.667 -40.333 -36 -61 -46s-43.667 -15 -69 -15c-40 0 -73.833 12.5 -101.5 37.5s-44.167 60.167 -49.5 105.5
c-1.33301 12 -1.66602 26.333 -0.999023 43s2.33398 32.667 5.00098 48l17 94l11 49c4 17.333 9.33301 33.666 16 48.999c8.66699 20.667 19.334 39.667 32.001 57s27.334 32.5 44.001 45.5s35.334 23.167 56.001 30.5s43.334 11 68.001 11c32 0 60.833 -7.83301 86.5 -23.5
s44.5 -36.5 56.5 -62.5h1l24 76h91zM290.994 643.997l25 139h138l-25 -139h-138z" />
    <glyph glyph-name="Gcommaaccent" unicode="&#x122;" horiz-adv-x="625" 
d="M280 -10c-28.667 0 -54.9951 4.8291 -78.9951 14.4961s-44.833 22.834 -62.5 39.501s-32 36.334 -43 59.001s-17.833 47.334 -20.5 74.001c-1.33301 13.333 -1.5 28.666 -0.5 45.999s2.83301 33 5.5 47l41 236c6 35.333 16.167 68.5 30.5 99.5s32.833 58 55.5 81
s49.5 41 80.5 54s66.5 19.5 106.5 19.5h8c62 0 111.667 -17.167 149 -51.5s58.666 -79.833 63.999 -136.5c2 -20 2 -41.333 0 -64h-142c0.666992 6.66699 1.16699 13.834 1.5 21.501s0.166016 14.5 -0.500977 20.5c-1.33301 20.667 -8 37.834 -20 51.501s-32 20.5 -60 20.5
h-8c-17.333 0 -33 -3.33301 -47 -10s-26.167 -16 -36.5 -28s-18.833 -25.833 -25.5 -41.5s-11.667 -32.5 -15 -50.5l-41 -232c-1.33301 -9.33301 -2.66602 -19.666 -3.99902 -30.999s-1.33301 -21 0 -29c2 -20.667 9.33301 -37.834 22 -51.501s32.667 -20.5 60 -20.5h7
c13.333 0 26.666 2.33301 39.999 7s25.666 11.667 36.999 21s21.166 21.5 29.499 36.5s14.166 33.167 17.499 54.5l4 22h-111l23 128h252l-70 -397h-62l-10 83h-1c-22 -30 -48.667 -53 -80 -69s-63 -24 -95 -24zM216.005 -50.0039h120.997l-15 -86
c-2 -9.33301 -4.16699 -18.833 -6.5 -28.5s-5.16602 -18.5 -8.49902 -26.5c-10.667 -24.667 -26.167 -45.5 -46.5 -62.5s-48.166 -28.167 -83.499 -33.5l7 43c13.333 4 24.333 8.83301 33 14.5s15.667 11.667 21 18s9.33301 12.5 12 18.5s4.33398 11 5.00098 15
c1.33301 4 1 6.5 -1 7.5s-4 1.5 -6 1.5h-53z" />
    <glyph glyph-name="gcommaaccent" unicode="&#x123;" horiz-adv-x="571" 
d="M407 641h-121.001l15 86c3.33301 20.667 8 39 14 55c10.667 24.667 26.334 45.5 47.001 62.5s48.334 28.167 83.001 33.5l-7 -43c-13.333 -4 -24.333 -8.83301 -33 -14.5s-15.667 -11.667 -21 -18s-9.33301 -12.5 -12 -18.5s-4.33398 -11 -5.00098 -15s0 -6.5 2 -7.5
s4 -1.5 6 -1.5h53zM387.999 318c2 13.333 2.66797 27.1641 2.00098 41.4971s-3.5 27.333 -8.5 39s-12.667 21.334 -23 29.001s-23.5 11.5 -39.5 11.5c-14 0 -26.667 -3.16699 -38 -9.5s-21.166 -14.666 -29.499 -24.999s-15.333 -22.5 -21 -36.5
s-9.83398 -28.667 -12.501 -44l-12 -74c-4 -24 -5.66699 -42.333 -5 -55c1.33301 -17.333 6.16602 -32.166 14.499 -44.499s22.5 -18.5 42.5 -18.5c12.667 0 25.5 3.5 38.5 10.5s25.333 17.167 37 30.5s22 30 31 50s15.5 42.667 19.5 68zM471 5.99805
c-3.33301 -17.333 -7.00684 -33.667 -11.0068 -49s-8.33301 -28.666 -13 -39.999c-17.333 -48.667 -45.833 -86.667 -85.5 -114s-85.5 -41 -137.5 -41c-28 0 -53.833 4 -77.5 12s-44.5 19.833 -62.5 35.5s-32.667 35.167 -44 58.5s-18 50.333 -20 81h135
c3.33301 -19.333 11.833 -35 25.5 -47s31.5 -18 53.5 -18c24.667 0 45.334 8.83301 62.001 26.5s28 44.5 34 80.5l2 12c1.33301 6 2.5 12.5 3.5 19.5s2.16699 13.167 3.5 18.5l4 20h-1c-20 -20.667 -40.333 -36 -61 -46s-43.667 -15 -69 -15c-40 0 -73.833 12.5 -101.5 37.5
s-44.167 60.167 -49.5 105.5c-1.33301 12 -1.66602 26.333 -0.999023 43s2.33398 32.667 5.00098 48l17 94l11 49c4 17.333 9.33301 33.666 16 48.999c8.66699 20.667 19.334 39.667 32.001 57s27.334 32.5 44.001 45.5s35.334 23.167 56.001 30.5s43.334 11 68.001 11
c32 0 60.833 -7.83301 86.5 -23.5s44.5 -36.5 56.5 -62.5h1l24 76h91z" />
    <glyph glyph-name="Hcircumflex" unicode="&#x124;" horiz-adv-x="655" 
d="M176 750h143l-51 -290h221l51 290h143l-132 -750h-143l56 322h-221l-56 -322h-143zM504 1023l144 -205h-113l-87 113l-107 -113h-114l183 205h94z" />
    <glyph glyph-name="hcircumflex" unicode="&#x125;" horiz-adv-x="585" 
d="M349 0l55.002 320.001c4 24 5.66699 42.333 5 55c-1.33301 17.333 -6 32.166 -14 44.499s-22 18.5 -42 18.5c-25.333 0 -50.333 -13.667 -75 -41s-41.667 -66.666 -51 -117.999l-48 -279h-138l138 785h138l-39 -218c-1.33301 -6.66699 -2.5 -13.334 -3.5 -20.001
s-2.16699 -12.667 -3.5 -18l-4 -20h1c20 20.667 40.5 36 61.5 46s44.167 15 69.5 15c40 0 73.833 -12.5 101.5 -37.5s44.167 -60.167 49.5 -105.5c1.33301 -12 1.66602 -26.333 0.999023 -43s-2.33398 -32.667 -5.00098 -48l-59 -336h-138zM457.002 1033l144 -205h-113
l-87 113l-107 -113h-114l183 205h94z" />
    <glyph glyph-name="Hbar" unicode="&#x126;" horiz-adv-x="676" 
d="M152 560h-94l13 75h94l21 115h143l-21 -115h221l21 115h143l-21 -115h95l-13 -75h-95l-98 -560h-143l56 322h-221l-56 -322h-143zM499 460l17 100h-221l-17 -100h221z" />
    <glyph glyph-name="hbar" unicode="&#x127;" horiz-adv-x="598" 
d="M362 0l55.002 320.001c4 24 5.66699 42.333 5 55c-1.33301 17.333 -6 32.166 -14 44.499s-22 18.5 -42 18.5c-25.333 0 -50.333 -13.667 -75 -41s-41.667 -66.666 -51 -117.999l-48 -279h-138l112 638h-89l13 75h89l13 72h138l-13 -72h162l-13 -75h-163l-12 -71
c-1.33301 -6.66699 -2.5 -13.334 -3.5 -20.001s-2.16699 -12.667 -3.5 -18l-4 -20h1c20 20.667 40.5 36 61.5 46s44.167 15 69.5 15c40 0 73.833 -12.5 101.5 -37.5s44.167 -60.167 49.5 -105.5c1.33301 -12 1.66602 -26.333 0.999023 -43s-2.33398 -32.667 -5.00098 -48
l-59 -336h-138z" />
    <glyph glyph-name="Itilde" unicode="&#x128;" horiz-adv-x="291" 
d="M176 750h143l-132 -750h-143zM260 838l-20.499 17.5c-5.66699 5 -10.834 9 -15.501 12s-9.33398 5.16699 -14.001 6.5s-10.334 2 -17.001 2c-5.33301 0 -12.166 -3.66699 -20.499 -11s-14.5 -21.666 -18.5 -42.999h-86c7.33301 50 23.333 88.667 48 116s54 41 88 41
c30 0 58.667 -11.333 86 -34c8.66699 -6.66699 15.834 -12.5 21.501 -17.5s10.667 -9 15 -12s8.83301 -5.16699 13.5 -6.5s10.334 -2 17.001 -2c6 0 13 3.66699 21 11s14 21.666 18 42.999h87c-7.33301 -50 -23.333 -88.667 -48 -116s-54.334 -41 -89.001 -41
c-30 0 -58.667 11.333 -86 34z" />
    <glyph glyph-name="itilde" unicode="&#x129;" horiz-adv-x="274" 
d="M136 560h138l-98 -560h-138zM219 659l-20.499 17.5c-5.66699 5 -10.834 9 -15.501 12s-9.33398 5.16699 -14.001 6.5s-10.334 2 -17.001 2c-5.33301 0 -12.166 -3.66699 -20.499 -11s-14.5 -21.666 -18.5 -42.999h-86c7.33301 50 23.333 88.667 48 116s54 41 88 41
c30 0 58.667 -11.333 86 -34c8.66699 -6.66699 15.834 -12.5 21.501 -17.5s10.667 -9 15 -12s8.83301 -5.16699 13.5 -6.5s10.334 -2 17.001 -2c6 0 13 3.66699 21 11s14 21.666 18 42.999h87c-7.33301 -50 -23.333 -88.667 -48 -116s-54.334 -41 -89.001 -41
c-30 0 -58.667 11.333 -86 34z" />
    <glyph glyph-name="uni012A" unicode="&#x12a;" horiz-adv-x="291" 
d="M176 750h143l-132 -750h-143zM421 825h-324l16 95h324z" />
    <glyph glyph-name="imacron" unicode="&#x12b;" horiz-adv-x="274" 
d="M136 560h138l-98 -560h-138zM379 646h-324l16 95h324z" />
    <glyph glyph-name="Ibreve" unicode="&#x12c;" horiz-adv-x="291" 
d="M176 750h143l-132 -750h-143zM263 803c-53.333 0 -93.999 16.333 -121.999 49s-40.333 77 -37 133h89c1.33301 -25.333 7.5 -45.666 18.5 -60.999s31.167 -23 60.5 -23c28.667 0 50 7.66699 64 23s24 35.666 30 60.999h89c-8 -56 -28.833 -100.333 -62.5 -133
s-76.834 -49 -129.501 -49z" />
    <glyph glyph-name="uni012D" unicode="&#x12d;" horiz-adv-x="274" 
d="M136 560h138l-98 -560h-138zM221 624c-53.333 0 -93.999 16.333 -121.999 49s-40.333 77 -37 133h89c1.33301 -25.333 7.5 -45.666 18.5 -60.999s31.167 -23 60.5 -23c28.667 0 50 7.66699 64 23s24 35.666 30 60.999h89c-8 -56 -28.833 -100.333 -62.5 -133
s-76.834 -49 -129.501 -49z" />
    <glyph glyph-name="Iogonek" unicode="&#x12e;" horiz-adv-x="291" 
d="M187 0c-40.667 -24.667 -71.166 -47.166 -91.499 -67.499s-31.5 -39.833 -33.5 -58.5c-1.33301 -11.333 2.16699 -20.833 10.5 -28.5s19.166 -11.5 32.499 -11.5c11.333 0 21.5 1.5 30.5 4.5s19.5 7.83301 31.5 14.5l21 -61c-14 -9.33301 -30 -16.833 -48 -22.5
s-35.667 -8.5 -53 -8.5c-16.667 0 -32.5 2.16699 -47.5 6.5s-28 10.666 -39 18.999s-19.667 18.833 -26 31.5s-8.83301 27.667 -7.5 45c2.66699 42 27 79.667 73 113l136 774h143z" />
    <glyph glyph-name="iogonek" unicode="&#x12f;" horiz-adv-x="274" 
d="M176 0c-40.667 -24.667 -71.166 -47.166 -91.499 -67.499s-31.5 -39.833 -33.5 -58.5c-1.33301 -11.333 2.16699 -20.833 10.5 -28.5s19.166 -11.5 32.499 -11.5c11.333 0 21.5 1.5 30.5 4.5s19.5 7.83301 31.5 14.5l21 -61c-14 -9.33301 -30 -16.833 -48 -22.5
s-35.667 -8.5 -53 -8.5c-16.667 0 -32.5 2.16699 -47.5 6.5s-28 10.666 -39 18.999s-19.667 18.833 -26 31.5s-8.83301 27.667 -7.5 45c2.66699 43.333 28.667 82.333 78 117l102 580h138zM175.001 781.001h138l-25 -141h-138z" />
    <glyph glyph-name="Idotaccent" unicode="&#x130;" horiz-adv-x="291" 
d="M176 750h143l-132 -750h-143zM194 823l25 139h138l-25 -139h-138z" />
    <glyph glyph-name="dotlessi" unicode="&#x131;" horiz-adv-x="274" 
d="M136 560h138l-98 -560h-138z" />
    <glyph glyph-name="IJ" unicode="&#x132;" horiz-adv-x="836" 
d="M176 750h143l-132 -750h-143zM726 750l142 -0.00195312l-91 -515c-3.33301 -18.667 -7.33301 -37 -12 -55s-12.334 -37.667 -23.001 -59c-19.333 -40 -45.833 -71.667 -79.5 -95s-76.834 -35 -129.501 -35c-54 0 -98.167 14 -132.5 42s-56.166 64.333 -65.499 109
c-6 33.333 -6 69 0 107l7 42h142l-9 -52c-1.33301 -9.33301 -2.5 -18.666 -3.5 -27.999s-0.833008 -17.666 0.5 -24.999c2 -16.667 8.16699 -30.667 18.5 -42s26.166 -17 47.499 -17c20.667 0 37.834 6 51.501 18s24.167 26.667 31.5 44
c2.66699 5.33301 5.33398 13 8.00098 23s5 21 7 33z" />
    <glyph glyph-name="ij" unicode="&#x133;" horiz-adv-x="556" 
d="M136 560h138l-98 -560h-138zM175 781h138l-25 -141h-138zM456 781h139l-25 -141h-139zM417 560l139 -0.00195312l-105 -593c-6.66699 -38 -17 -70 -31 -96s-31 -46.833 -51 -62.5s-43 -27 -69 -34s-54.667 -10.5 -86 -10.5c-13.333 0 -25 0.333008 -35 1
s-17.333 1.33398 -22 2.00098l24 132c6 -0.666992 11.833 -1.16699 17.5 -1.5s11.5 -0.5 17.5 -0.5c28.667 0 51 6.33301 67 19s26.667 34.334 32 65.001z" />
    <glyph glyph-name="Jcircumflex" unicode="&#x134;" horiz-adv-x="555" 
d="M445 750l142 -0.00195312l-91 -515c-3.33301 -18.667 -7.33301 -37 -12 -55s-12.334 -37.667 -23.001 -59c-19.333 -40 -45.833 -71.667 -79.5 -95s-76.834 -35 -129.501 -35c-54 0 -98.167 14 -132.5 42s-56.166 64.333 -65.499 109c-6 33.333 -6 69 0 107l7 42h142
l-9 -52c-1.33301 -9.33301 -2.5 -18.666 -3.5 -27.999s-0.833008 -17.666 0.5 -24.999c2 -16.667 8.16699 -30.667 18.5 -42s26.166 -17 47.499 -17c20.667 0 37.834 6 51.501 18s24.167 26.667 31.5 44c2.66699 5.33301 5.33398 13 8.00098 23s5 21 7 33zM589 1013
l144 -205h-113l-87 113l-107 -113h-114l183 205h94z" />
    <glyph glyph-name="jcircumflex" unicode="&#x135;" horiz-adv-x="282" 
d="M143 560l139 -0.00195312l-105 -593c-6.66699 -38 -17 -70 -31 -96s-31 -46.833 -51 -62.5s-43 -27 -69 -34s-54.667 -10.5 -86 -10.5c-13.333 0 -25 0.333008 -35 1s-17.333 1.33398 -22 2.00098l24 132c6 -0.666992 11.833 -1.16699 17.5 -1.5s11.5 -0.5 17.5 -0.5
c28.667 0 51 6.33301 67 19s26.667 34.334 32 65.001zM290 833.998l144 -205h-113l-87 113l-107 -113h-114l183 205h94z" />
    <glyph glyph-name="Kcommaaccent" unicode="&#x136;" horiz-adv-x="619" 
d="M540 750l174 0.000976562l-298 -301l170 -449h-153l-124 350l-76 -84l-47 -266h-142l132 750h142l-50 -282l1 -1l13 15l13 15c4.66699 5.33301 9.66699 10.666 15 15.999zM232 -49.999h120.997l-15 -86c-2 -9.33301 -4.16699 -18.833 -6.5 -28.5
s-5.16602 -18.5 -8.49902 -26.5c-10.667 -24.667 -26.167 -45.5 -46.5 -62.5s-48.166 -28.167 -83.499 -33.5l7 43c13.333 4 24.333 8.83301 33 14.5s15.667 11.667 21 18s9.33301 12.5 12 18.5s4.33398 11 5.00098 15c1.33301 4 1 6.5 -1 7.5s-4 1.5 -6 1.5h-53z" />
    <glyph glyph-name="kcommaaccent" unicode="&#x137;" horiz-adv-x="550" 
d="M356 0l-87 274l-50 -46l-40 -228h-138l138 785h138l-69 -390l177 165h180l-223 -199l132 -361h-158zM198 -50h120.997l-15 -86c-2 -9.33301 -4.16699 -18.833 -6.5 -28.5s-5.16602 -18.5 -8.49902 -26.5c-10.667 -24.667 -26.167 -45.5 -46.5 -62.5
s-48.166 -28.167 -83.499 -33.5l7 43c13.333 4 24.333 8.83301 33 14.5s15.667 11.667 21 18s9.33301 12.5 12 18.5s4.33398 11 5.00098 15c1.33301 4 1 6.5 -1 7.5s-4 1.5 -6 1.5h-53z" />
    <glyph glyph-name="kgreenlandic" unicode="&#x138;" horiz-adv-x="550" 
d="M356 0l-87 274l-50 -46l-40 -228h-138l98 560h138l-29 -165l177 165h180l-223 -199l132 -361h-158z" />
    <glyph glyph-name="Lacute" unicode="&#x139;" horiz-adv-x="552" 
d="M176 750h143l-108 -613h307l-24 -137h-450zM454 982l-172 -175h-95l114 187h152z" />
    <glyph glyph-name="lacute" unicode="&#x13a;" horiz-adv-x="280" 
d="M179 785h138l-138 -785h-138zM457 1012l-172 -175h-95l114 187h152z" />
    <glyph glyph-name="Lcommaaccent" unicode="&#x13b;" horiz-adv-x="552" 
d="M176 750h143l-108 -613h307l-24 -137h-450zM210 -50h120.997l-15 -86c-2 -9.33301 -4.16699 -18.833 -6.5 -28.5s-5.16602 -18.5 -8.49902 -26.5c-10.667 -24.667 -26.167 -45.5 -46.5 -62.5s-48.166 -28.167 -83.499 -33.5l7 43c13.333 4 24.333 8.83301 33 14.5
s15.667 11.667 21 18s9.33301 12.5 12 18.5s4.33398 11 5.00098 15c1.33301 4 1 6.5 -1 7.5s-4 1.5 -6 1.5h-53z" />
    <glyph glyph-name="lcommaaccent" unicode="&#x13c;" horiz-adv-x="280" 
d="M179 785h138l-138 -785h-138zM44 -50h120.997l-15 -86c-2 -9.33301 -4.16699 -18.833 -6.5 -28.5s-5.16602 -18.5 -8.49902 -26.5c-10.667 -24.667 -26.167 -45.5 -46.5 -62.5s-48.166 -28.167 -83.499 -33.5l7 43c13.333 4 24.333 8.83301 33 14.5s15.667 11.667 21 18
s9.33301 12.5 12 18.5s4.33398 11 5.00098 15c1.33301 4 1 6.5 -1 7.5s-4 1.5 -6 1.5h-53z" />
    <glyph glyph-name="Lcaron" unicode="&#x13d;" horiz-adv-x="552" 
d="M176 750h143l-108 -613h307l-24 -137h-450zM453 785h120.996l-15 -86c-2 -9.33301 -4.16699 -18.833 -6.5 -28.5s-5.16602 -18.5 -8.49902 -26.5c-10.667 -24.667 -26.167 -45.5 -46.5 -62.5s-48.166 -28.167 -83.499 -33.5l8 43c12.667 4 23.334 8.83301 32.001 14.5
s15.667 11.667 21 18s9.33301 12.5 12 18.5s4.33398 11 5.00098 15c1.33301 4 1 6.5 -1 7.5s-4 1.5 -6 1.5h-53z" />
    <glyph glyph-name="lcaron" unicode="&#x13e;" horiz-adv-x="371" 
d="M179 785h138l-138 -785h-138zM382 785h120.996l-15 -86c-2 -9.33301 -4.16699 -18.833 -6.5 -28.5s-5.16602 -18.5 -8.49902 -26.5c-10.667 -24.667 -26.167 -45.5 -46.5 -62.5s-48.166 -28.167 -83.499 -33.5l8 43c12.667 4 23.334 8.83301 32.001 14.5
s15.667 11.667 21 18s9.33301 12.5 12 18.5s4.33398 11 5.00098 15c1.33301 4 1 6.5 -1 7.5s-4 1.5 -6 1.5h-53z" />
    <glyph glyph-name="Ldot" unicode="&#x13f;" horiz-adv-x="539" 
d="M176 750h143l-108 -613h307l-24 -137h-450zM385 349l25 139h138l-25 -139h-138z" />
    <glyph glyph-name="ldot" unicode="&#x140;" horiz-adv-x="433" 
d="M179 785h138l-138 -785h-138zM321 349l25 139h138l-25 -139h-138z" />
    <glyph glyph-name="Lslash" unicode="&#x141;" horiz-adv-x="593" 
d="M132 268l-113 -60l21 118l113 60l64 364h143l-50 -280l153 82l-21 -118l-152 -82l-38 -215h307l-24 -137h-450z" />
    <glyph glyph-name="lslash" unicode="&#x142;" horiz-adv-x="363" 
d="M292 410l-72 -410h-137l54 311l-112 -72l20 116l113 72l63 358h137l-46 -259l113 72l-21 -116z" />
    <glyph glyph-name="Nacute" unicode="&#x143;" horiz-adv-x="655" 
d="M262 489c-0.666992 -6.66699 -1.66699 -13.335 -3 -20.002c-1.33301 -5.33301 -2.33301 -11.5 -3 -18.5s-1.66699 -13.5 -3 -19.5l-76 -431h-133l132 750h149l138 -489h1c0.666992 6.66699 1.66699 13.334 3 20.001c1.33301 5.33301 2.5 11.333 3.5 18
s2.16699 13.334 3.5 20.001l76 431h133l-132 -750h-151l-137 489h-1zM623 981.999l-172 -175h-95l114 187h152z" />
    <glyph glyph-name="nacute" unicode="&#x144;" horiz-adv-x="585" 
d="M399 570c40 0 73.834 -12.5 101.501 -37.5s44.167 -60.167 49.5 -105.5c1.33301 -12 1.66602 -26.333 0.999023 -43s-2.33398 -32.667 -5.00098 -48l-59 -336h-138l55 320c4 24 5.66699 42.333 5 55c-1.33301 17.333 -6 32.166 -14 44.499s-22 18.5 -42 18.5
c-25.333 0 -50.333 -13.667 -75 -41s-41.667 -66.666 -51 -117.999l-48 -279h-138l98 560h91v-76h1c22 28.667 47.333 50.167 76 64.5s59.334 21.5 92.001 21.5zM529.001 803l-172 -175h-95l114 187h152z" />
    <glyph glyph-name="Ncommaaccent" unicode="&#x145;" horiz-adv-x="655" 
d="M262 489c-0.666992 -6.66699 -1.66699 -13.335 -3 -20.002c-1.33301 -5.33301 -2.33301 -11.5 -3 -18.5s-1.66699 -13.5 -3 -19.5l-76 -431h-133l132 750h149l138 -489h1c0.666992 6.66699 1.66699 13.334 3 20.001c1.33301 5.33301 2.5 11.333 3.5 18
s2.16699 13.334 3.5 20.001l76 431h133l-132 -750h-151l-137 489h-1zM235 -50.001h120.997l-15 -86c-2 -9.33301 -4.16699 -18.833 -6.5 -28.5s-5.16602 -18.5 -8.49902 -26.5c-10.667 -24.667 -26.167 -45.5 -46.5 -62.5s-48.166 -28.167 -83.499 -33.5l7 43
c13.333 4 24.333 8.83301 33 14.5s15.667 11.667 21 18s9.33301 12.5 12 18.5s4.33398 11 5.00098 15c1.33301 4 1 6.5 -1 7.5s-4 1.5 -6 1.5h-53z" />
    <glyph glyph-name="ncommaaccent" unicode="&#x146;" horiz-adv-x="585" 
d="M399 570c40 0 73.834 -12.5 101.501 -37.5s44.167 -60.167 49.5 -105.5c1.33301 -12 1.66602 -26.333 0.999023 -43s-2.33398 -32.667 -5.00098 -48l-59 -336h-138l55 320c4 24 5.66699 42.333 5 55c-1.33301 17.333 -6 32.166 -14 44.499s-22 18.5 -42 18.5
c-25.333 0 -50.333 -13.667 -75 -41s-41.667 -66.666 -51 -117.999l-48 -279h-138l98 560h91v-76h1c22 28.667 47.333 50.167 76 64.5s59.334 21.5 92.001 21.5zM194.001 -50h120.997l-15 -86c-2 -9.33301 -4.16699 -18.833 -6.5 -28.5s-5.16602 -18.5 -8.49902 -26.5
c-10.667 -24.667 -26.167 -45.5 -46.5 -62.5s-48.166 -28.167 -83.499 -33.5l7 43c13.333 4 24.333 8.83301 33 14.5s15.667 11.667 21 18s9.33301 12.5 12 18.5s4.33398 11 5.00098 15c1.33301 4 1 6.5 -1 7.5s-4 1.5 -6 1.5h-53z" />
    <glyph glyph-name="Ncaron" unicode="&#x147;" horiz-adv-x="655" 
d="M262 489c-0.666992 -6.66699 -1.66699 -13.335 -3 -20.002c-1.33301 -5.33301 -2.33301 -11.5 -3 -18.5s-1.66699 -13.5 -3 -19.5l-76 -431h-133l132 750h149l138 -489h1c0.666992 6.66699 1.66699 13.334 3 20.001c1.33301 5.33301 2.5 11.333 3.5 18
s2.16699 13.334 3.5 20.001l76 431h133l-132 -750h-151l-137 489h-1zM379 807.999l-145 205h114l86 -113l108 113h113l-182 -205h-94z" />
    <glyph glyph-name="ncaron" unicode="&#x148;" horiz-adv-x="585" 
d="M399 570c40 0 73.834 -12.5 101.501 -37.5s44.167 -60.167 49.5 -105.5c1.33301 -12 1.66602 -26.333 0.999023 -43s-2.33398 -32.667 -5.00098 -48l-59 -336h-138l55 320c4 24 5.66699 42.333 5 55c-1.33301 17.333 -6 32.166 -14 44.499s-22 18.5 -42 18.5
c-25.333 0 -50.333 -13.667 -75 -41s-41.667 -66.666 -51 -117.999l-48 -279h-138l98 560h91v-76h1c22 28.667 47.333 50.167 76 64.5s59.334 21.5 92.001 21.5zM324.001 629l-145 205h114l86 -113l108 113h113l-182 -205h-94z" />
    <glyph glyph-name="napostrophe" unicode="&#x149;" horiz-adv-x="742" 
d="M556 570c40 0 73.834 -12.5 101.501 -37.5s44.167 -60.167 49.5 -105.5c1.33301 -12 1.66602 -26.333 0.999023 -43s-2.33398 -32.667 -5.00098 -48l-59 -336h-138l55 320c4 24 5.66699 42.333 5 55c-1.33301 17.333 -6 32.166 -14 44.499s-22 18.5 -42 18.5
c-25.333 0 -50.333 -13.667 -75 -41s-41.667 -66.666 -51 -117.999l-48 -279h-138l98 560h91v-76h1c22 28.667 47.333 50.167 76 64.5s59.334 21.5 92.001 21.5zM131.001 806l159.999 0.00488281l-22 -124c-2.66699 -13.333 -5.66699 -26.833 -9 -40.5
s-7.66602 -25.834 -12.999 -36.501c-13.333 -34.667 -34.5 -65.334 -63.5 -92.001s-67.833 -43.334 -116.5 -50.001l10 58c36.667 11.333 62.5 27.166 77.5 47.499s24.167 40.166 27.5 59.499c2 9.33301 -1.33301 14 -10 14h-70z" />
    <glyph glyph-name="Eng" unicode="&#x14a;" horiz-adv-x="655" 
d="M262 489c-0.666992 -6.66699 -1.66699 -13.3369 -3 -20.0039c-1.33301 -5.33301 -2.33301 -11.5 -3 -18.5s-1.66699 -13.5 -3 -19.5l-76 -431h-133l132 750h149l138 -489h1c0.666992 6.66699 1.66699 13.334 3 20.001c1.33301 5.33301 2.5 11.333 3.5 18
s2.16699 13.334 3.5 20.001l76 431h133l-138 -783c-7.33301 -38 -17.833 -70 -31.5 -96s-30.5 -46.833 -50.5 -62.5s-43 -27 -69 -34s-54.667 -10.5 -86 -10.5c-13.333 0 -25 0.333008 -35 1s-17.333 1.33398 -22 2.00098l24 132c6 -0.666992 12.833 -1.16699 20.5 -1.5
s14.5 -0.5 20.5 -0.5c28.667 0 51 6.33301 67 19s26.667 34.334 32 65.001l3 19h-18l-137 489h-1z" />
    <glyph glyph-name="eng" unicode="&#x14b;" horiz-adv-x="585" 
d="M481 -33c-6.66699 -38 -16.999 -70.002 -30.999 -96.002s-31 -46.833 -51 -62.5s-43 -27 -69 -34s-54.667 -10.5 -86 -10.5c-13.333 0 -25 0.333008 -35 1s-17.333 1.33398 -22 2.00098l24 132c6 -0.666992 11.833 -1.16699 17.5 -1.5s11.5 -0.5 17.5 -0.5
c28.667 0 51 6.33301 67 19s26.667 34.334 32 65.001l59 339c4 24 5.66699 42.333 5 55c-1.33301 17.333 -6 32.166 -14 44.499s-22 18.5 -42 18.5c-25.333 0 -50.333 -13.667 -75 -41s-41.667 -66.666 -51 -117.999l-48 -279h-138l98 560h91v-76h1
c22 28.667 47.333 50.167 76 64.5s59.334 21.5 92.001 21.5c40 0 73.833 -12.5 101.5 -37.5s44.167 -60.167 49.5 -105.5c1.33301 -12 1.66602 -26.333 0.999023 -43s-2.33398 -32.667 -5.00098 -48z" />
    <glyph glyph-name="Omacron" unicode="&#x14c;" horiz-adv-x="621" 
d="M121 506c6 35.333 16.167 68.5 30.5 99.5s32.833 58 55.5 81s49.5 41 80.5 54s66.5 19.5 106.5 19.5h8c30.667 0 58.5 -4.83301 83.5 -14.5s46.833 -22.834 65.5 -39.501s33.5 -36.5 44.5 -59.5s17.833 -47.833 20.5 -74.5c1.33301 -12.667 1.66602 -27.667 0.999023 -45
s-2.33398 -33 -5.00098 -47l-41 -236c-6 -35.333 -16.167 -68.5 -30.5 -99.5s-32.833 -58 -55.5 -81s-49.5 -41 -80.5 -54s-66.5 -19.5 -106.5 -19.5h-8c-30.667 0 -58.5 4.83301 -83.5 14.5s-46.833 22.834 -65.5 39.501s-33.5 36.5 -44.5 59.5s-17.833 47.833 -20.5 74.5
c-1.33301 12.667 -1.66602 27.667 -0.999023 45s2.33398 33 5.00098 47zM470 490c1.33301 9.33301 2.66602 19.666 3.99902 30.999s1.33301 21 0 29c-2 20.667 -10.333 37.667 -25 51s-34.334 20 -59.001 20h-4c-35.333 0 -63.166 -12.5 -83.499 -37.5
s-33.833 -55.5 -40.5 -91.5l-40 -232c-1.33301 -9.33301 -2.66602 -19.666 -3.99902 -30.999s-1.33301 -21 0 -29c2 -20.667 10.333 -37.667 25 -51s34.334 -20 59.001 -20h4c35.333 0 63.166 12.5 83.499 37.5s33.833 55.5 40.5 91.5zM590 825h-324l16 95h324z" />
    <glyph glyph-name="omacron" unicode="&#x14d;" horiz-adv-x="543" 
d="M260 121c18.667 0 34.334 4.33301 47.001 13s23.667 20.334 33 35.001c5.33301 9.33301 10 19.833 14 31.5s7.33301 24.167 10 37.5l15 91c1.33301 9.33301 2.5 19.166 3.5 29.499s0.833008 19.833 -0.5 28.5c-1.33301 14 -6.83301 26.167 -16.5 36.5
s-24.5 15.5 -44.5 15.5c-18.667 0 -34.334 -4.33301 -47.001 -13s-23.667 -20.334 -33 -35.001c-5.33301 -9.33301 -10 -19.833 -14 -31.5s-7.33301 -24.167 -10 -37.5l-15 -91c-1.33301 -9.33301 -2.5 -19.166 -3.5 -29.499s-0.833008 -19.833 0.5 -28.5
c1.33301 -14 6.83301 -26.167 16.5 -36.5s24.5 -15.5 44.5 -15.5zM252 -10c-46.667 0 -85.834 12 -117.501 36s-53.5 54 -65.5 90c-6.66699 18.667 -9.83398 39 -9.50098 61s2.16602 43.333 5.49902 64l17 95c3.33301 20.667 9.16602 42.334 17.499 65.001
s18.166 43 29.499 61c20.667 32 47.667 58 81 78s73 30 119 30c46.667 0 85.834 -12 117.501 -36s53.5 -54 65.5 -90c6.66699 -18.667 9.83398 -39 9.50098 -61s-2.16602 -43.333 -5.49902 -64l-17 -95c-3.33301 -20.667 -9.16602 -42.334 -17.499 -65.001
s-18.166 -43 -29.499 -61c-20.667 -32 -47.667 -58 -81 -78s-73 -30 -119 -30zM519 646h-324l16 95h324z" />
    <glyph glyph-name="Obreve" unicode="&#x14e;" horiz-adv-x="621" 
d="M121 506c6 35.333 16.167 68.5 30.5 99.5s32.833 58 55.5 81s49.5 41 80.5 54s66.5 19.5 106.5 19.5h8c30.667 0 58.5 -4.83301 83.5 -14.5s46.833 -22.834 65.5 -39.501s33.5 -36.5 44.5 -59.5s17.833 -47.833 20.5 -74.5c1.33301 -12.667 1.66602 -27.667 0.999023 -45
s-2.33398 -33 -5.00098 -47l-41 -236c-6 -35.333 -16.167 -68.5 -30.5 -99.5s-32.833 -58 -55.5 -81s-49.5 -41 -80.5 -54s-66.5 -19.5 -106.5 -19.5h-8c-30.667 0 -58.5 4.83301 -83.5 14.5s-46.833 22.834 -65.5 39.501s-33.5 36.5 -44.5 59.5s-17.833 47.833 -20.5 74.5
c-1.33301 12.667 -1.66602 27.667 -0.999023 45s2.33398 33 5.00098 47zM470 490c1.33301 9.33301 2.66602 19.666 3.99902 30.999s1.33301 21 0 29c-2 20.667 -10.333 37.667 -25 51s-34.334 20 -59.001 20h-4c-35.333 0 -63.166 -12.5 -83.499 -37.5
s-33.833 -55.5 -40.5 -91.5l-40 -232c-1.33301 -9.33301 -2.66602 -19.666 -3.99902 -30.999s-1.33301 -21 0 -29c2 -20.667 10.333 -37.667 25 -51s34.334 -20 59.001 -20h4c35.333 0 63.166 12.5 83.499 37.5s33.833 55.5 40.5 91.5zM439 803
c-53.333 0 -93.999 16.333 -121.999 49s-40.333 77 -37 133h89c1.33301 -25.333 7.5 -45.666 18.5 -60.999s31.167 -23 60.5 -23c28.667 0 50 7.66699 64 23s24 35.666 30 60.999h89c-8 -56 -28.833 -100.333 -62.5 -133s-76.834 -49 -129.501 -49z" />
    <glyph glyph-name="obreve" unicode="&#x14f;" horiz-adv-x="543" 
d="M260 121c18.667 0 34.334 4.33301 47.001 13s23.667 20.334 33 35.001c5.33301 9.33301 10 19.833 14 31.5s7.33301 24.167 10 37.5l15 91c1.33301 9.33301 2.5 19.166 3.5 29.499s0.833008 19.833 -0.5 28.5c-1.33301 14 -6.83301 26.167 -16.5 36.5
s-24.5 15.5 -44.5 15.5c-18.667 0 -34.334 -4.33301 -47.001 -13s-23.667 -20.334 -33 -35.001c-5.33301 -9.33301 -10 -19.833 -14 -31.5s-7.33301 -24.167 -10 -37.5l-15 -91c-1.33301 -9.33301 -2.5 -19.166 -3.5 -29.499s-0.833008 -19.833 0.5 -28.5
c1.33301 -14 6.83301 -26.167 16.5 -36.5s24.5 -15.5 44.5 -15.5zM252 -10c-46.667 0 -85.834 12 -117.501 36s-53.5 54 -65.5 90c-6.66699 18.667 -9.83398 39 -9.50098 61s2.16602 43.333 5.49902 64l17 95c3.33301 20.667 9.16602 42.334 17.499 65.001
s18.166 43 29.499 61c20.667 32 47.667 58 81 78s73 30 119 30c46.667 0 85.834 -12 117.501 -36s53.5 -54 65.5 -90c6.66699 -18.667 9.83398 -39 9.50098 -61s-2.16602 -43.333 -5.49902 -64l-17 -95c-3.33301 -20.667 -9.16602 -42.334 -17.499 -65.001
s-18.166 -43 -29.499 -61c-20.667 -32 -47.667 -58 -81 -78s-73 -30 -119 -30zM380 624c-53.333 0 -93.999 16.333 -121.999 49s-40.333 77 -37 133h89c1.33301 -25.333 7.5 -45.666 18.5 -60.999s31.167 -23 60.5 -23c28.667 0 50 7.66699 64 23s24 35.666 30 60.999h89
c-8 -56 -28.833 -100.333 -62.5 -133s-76.834 -49 -129.501 -49z" />
    <glyph glyph-name="Ohungarumlaut" unicode="&#x150;" horiz-adv-x="621" 
d="M121 506c6 35.333 16.167 68.5 30.5 99.5s32.833 58 55.5 81s49.5 41 80.5 54s66.5 19.5 106.5 19.5h8c30.667 0 58.5 -4.83301 83.5 -14.5s46.833 -22.834 65.5 -39.501s33.5 -36.5 44.5 -59.5s17.833 -47.833 20.5 -74.5c1.33301 -12.667 1.66602 -27.667 0.999023 -45
s-2.33398 -33 -5.00098 -47l-41 -236c-6 -35.333 -16.167 -68.5 -30.5 -99.5s-32.833 -58 -55.5 -81s-49.5 -41 -80.5 -54s-66.5 -19.5 -106.5 -19.5h-8c-30.667 0 -58.5 4.83301 -83.5 14.5s-46.833 22.834 -65.5 39.501s-33.5 36.5 -44.5 59.5s-17.833 47.833 -20.5 74.5
c-1.33301 12.667 -1.66602 27.667 -0.999023 45s2.33398 33 5.00098 47zM470 490c1.33301 9.33301 2.66602 19.666 3.99902 30.999s1.33301 21 0 29c-2 20.667 -10.333 37.667 -25 51s-34.334 20 -59.001 20h-4c-35.333 0 -63.166 -12.5 -83.499 -37.5
s-33.833 -55.5 -40.5 -91.5l-40 -232c-1.33301 -9.33301 -2.66602 -19.666 -3.99902 -30.999s-1.33301 -21 0 -29c2 -20.667 10.333 -37.667 25 -51s34.334 -20 59.001 -20h4c35.333 0 63.166 12.5 83.499 37.5s33.833 55.5 40.5 91.5zM505 982l-153 -175h-95l115 187h132z
M711 982l-153 -175h-95l115 187h132z" />
    <glyph glyph-name="ohungarumlaut" unicode="&#x151;" horiz-adv-x="543" 
d="M260 121c18.667 0 34.334 4.33301 47.001 13s23.667 20.334 33 35.001c5.33301 9.33301 10 19.833 14 31.5s7.33301 24.167 10 37.5l15 91c1.33301 9.33301 2.5 19.166 3.5 29.499s0.833008 19.833 -0.5 28.5c-1.33301 14 -6.83301 26.167 -16.5 36.5
s-24.5 15.5 -44.5 15.5c-18.667 0 -34.334 -4.33301 -47.001 -13s-23.667 -20.334 -33 -35.001c-5.33301 -9.33301 -10 -19.833 -14 -31.5s-7.33301 -24.167 -10 -37.5l-15 -91c-1.33301 -9.33301 -2.5 -19.166 -3.5 -29.499s-0.833008 -19.833 0.5 -28.5
c1.33301 -14 6.83301 -26.167 16.5 -36.5s24.5 -15.5 44.5 -15.5zM252 -10c-46.667 0 -85.834 12 -117.501 36s-53.5 54 -65.5 90c-6.66699 18.667 -9.83398 39 -9.50098 61s2.16602 43.333 5.49902 64l17 95c3.33301 20.667 9.16602 42.334 17.499 65.001
s18.166 43 29.499 61c20.667 32 47.667 58 81 78s73 30 119 30c46.667 0 85.834 -12 117.501 -36s53.5 -54 65.5 -90c6.66699 -18.667 9.83398 -39 9.50098 -61s-2.16602 -43.333 -5.49902 -64l-17 -95c-3.33301 -20.667 -9.16602 -42.334 -17.499 -65.001
s-18.166 -43 -29.499 -61c-20.667 -32 -47.667 -58 -81 -78s-73 -30 -119 -30zM439 803l-153 -175h-95l115 187h132zM645 803l-153 -175h-95l115 187h132z" />
    <glyph glyph-name="OE" unicode="&#x152;" horiz-adv-x="863" 
d="M927 750l-24.002 -134.998h-273l-29 -163h220l-24 -135h-220l-32 -182h273l-23 -135h-496c-40.667 0 -73.667 5.33301 -99 16c-36 14.667 -64.833 37.167 -86.5 67.5s-34.5 65.166 -38.5 104.499c-1.33301 12.667 -1.66602 27.667 -0.999023 45s2.33398 33 5.00098 47
l38 216c10 57.333 30.333 107.666 61 150.999s72.334 73.333 125.001 90c13.333 4 28.166 7.16699 44.499 9.5s33.5 3.5 51.5 3.5h528zM403.998 139.002l82.999 473h-95c-12.667 0 -25.167 -1.5 -37.5 -4.5s-22.833 -7.16699 -31.5 -12.5
c-17.333 -11.333 -31.5 -26.833 -42.5 -46.5s-18.833 -41.834 -23.5 -66.501l-37 -212c-1.33301 -9.33301 -2.66602 -19.666 -3.99902 -30.999s-1.33301 -21 0 -29c2 -20.667 9.5 -37.667 22.5 -51s35.833 -20 68.5 -20h97z" />
    <glyph glyph-name="oe" unicode="&#x153;" horiz-adv-x="841" 
d="M557 109c21.333 0 39.3369 6.16895 54.0039 18.502s26 27.166 34 44.499h140c-4.66699 -13.333 -9.66699 -26.333 -15 -39s-11.666 -24.334 -18.999 -35.001c-20.667 -32 -47 -58 -79 -78s-69 -30 -111 -30c-38 0 -69.167 7.66699 -93.5 23s-43.166 36 -56.499 62
c-18.667 -25.333 -41.834 -45.833 -69.501 -61.5s-60.834 -23.5 -99.501 -23.5c-20.667 0 -40.167 3.16699 -58.5 9.5s-35 15.166 -50 26.499s-28 24.666 -39 39.999s-19.5 32 -25.5 50c-6.66699 18.667 -9.83398 39 -9.50098 61s2.16602 43.333 5.49902 64l17 95
c3.33301 20.667 9.16602 42.334 17.499 65.001s18.166 43 29.499 61c20.667 32 47.167 58 79.5 78s69.166 30 110.499 30c37.333 0 68.333 -7.66699 93 -23s43.667 -36 57 -62c18.667 25.333 41.667 45.833 69 61.5s60.666 23.5 99.999 23.5c44 0 80.833 -11.5 110.5 -34.5
s50.5 -52.5 62.5 -88.5c6.66699 -18.667 9.83398 -39.5 9.50098 -62.5s-2.16602 -44.833 -5.49902 -65.5l-14 -76h-298l-4 -24c-1.33301 -9.33301 -2.5 -19.166 -3.5 -29.499s-0.833008 -19.833 0.5 -28.5c1.33301 -14 6.83301 -26.167 16.5 -36.5s24.5 -15.5 44.5 -15.5z
M260.004 121.002c18.667 0 34.334 4.33301 47.001 13s23.667 20.334 33 35.001c5.33301 9.33301 10 19.833 14 31.5s7.33301 24.167 10 37.5l15 91c1.33301 9.33301 2.5 19.166 3.5 29.499s0.833008 19.833 -0.5 28.5c-1.33301 14 -6.83301 26.167 -16.5 36.5
s-24.5 15.5 -44.5 15.5c-18.667 0 -34.334 -4.33301 -47.001 -13s-23.667 -20.334 -33 -35.001c-5.33301 -9.33301 -10 -19.833 -14 -31.5s-7.33301 -24.167 -10 -37.5l-15 -91c-1.33301 -9.33301 -2.5 -19.166 -3.5 -29.499s-0.833008 -19.833 0.5 -28.5
c1.33301 -14 6.83301 -26.167 16.5 -36.5s24.5 -15.5 44.5 -15.5zM543.004 406.002c-5.33301 -8 -9.66602 -16.999 -12.999 -26.999s-6.33301 -20.667 -9 -32h160c1.33301 9.33301 2.5 18.833 3.5 28.5s0.833008 18.5 -0.5 26.5c-1.33301 14 -6.83301 26.167 -16.5 36.5
s-24.5 15.5 -44.5 15.5c-18.667 0 -34.334 -4.33301 -47.001 -13s-23.667 -20.334 -33 -35.001z" />
    <glyph glyph-name="Racute" unicode="&#x154;" horiz-adv-x="610" 
d="M608 544c-4 -32.667 -17.001 -64.501 -39.001 -95.501s-55 -56.833 -99 -77.5v-1c30 -11.333 51 -28 63 -50s16.333 -51.667 13 -89l-13 -129c-1.33301 -19.333 -0.666016 -37.5 2.00098 -54.5s10 -30.833 22 -41.5l-1 -6h-152c-7.33301 10 -11.833 23.333 -13.5 40
s-1.83398 33.334 -0.500977 50.001l11 118c3.33301 36 -2.5 61.5 -17.5 76.5s-41.5 22.5 -79.5 22.5h-65l-53 -307h-142l132 750h186c16.667 0 33.834 -0.5 51.501 -1.5s32.5 -2.83301 44.5 -5.5c24.667 -5.33301 47 -13.5 67 -24.5s36.667 -24.833 50 -41.5s23 -36 29 -58
s7.33301 -47 4 -75zM345.999 437.999c36 0 63.832 9.16602 83.499 27.499s30.834 41.833 33.501 70.5c2 20 -1.16699 35.833 -9.5 47.5s-20.833 19.834 -37.5 24.501c-6.66699 2 -14.667 3.33301 -24 4s-20 1 -32 1h-67l-30 -175h83zM567.998 981.998l-172 -175h-95l114 187
h152z" />
    <glyph glyph-name="racute" unicode="&#x155;" horiz-adv-x="434" 
d="M179 0l-137.998 -0.00195312l98 560h91l-1 -92h1c27.333 38.667 55.166 65.334 83.499 80.001s58.833 22 91.5 22c14.667 0 28.167 -0.833008 40.5 -2.5s24.166 -4.16699 35.499 -7.5l-27 -137c-21.333 7.33301 -45 11 -71 11c-18 0 -35.5 -3.66699 -52.5 -11
s-32.333 -17.666 -46 -30.999s-25.5 -29.5 -35.5 -48.5s-17 -40.167 -21 -63.5zM495.002 802.998l-172 -175h-95l114 187h152z" />
    <glyph glyph-name="Rcommaaccent" unicode="&#x156;" horiz-adv-x="610" 
d="M608 544c-4 -32.667 -17.001 -64.501 -39.001 -95.501s-55 -56.833 -99 -77.5v-1c30 -11.333 51 -28 63 -50s16.333 -51.667 13 -89l-13 -129c-1.33301 -19.333 -0.666016 -37.5 2.00098 -54.5s10 -30.833 22 -41.5l-1 -6h-152c-7.33301 10 -11.833 23.333 -13.5 40
s-1.83398 33.334 -0.500977 50.001l11 118c3.33301 36 -2.5 61.5 -17.5 76.5s-41.5 22.5 -79.5 22.5h-65l-53 -307h-142l132 750h186c16.667 0 33.834 -0.5 51.501 -1.5s32.5 -2.83301 44.5 -5.5c24.667 -5.33301 47 -13.5 67 -24.5s36.667 -24.833 50 -41.5s23 -36 29 -58
s7.33301 -47 4 -75zM345.999 437.999c36 0 63.832 9.16602 83.499 27.499s30.834 41.833 33.501 70.5c2 20 -1.16699 35.833 -9.5 47.5s-20.833 19.834 -37.5 24.501c-6.66699 2 -14.667 3.33301 -24 4s-20 1 -32 1h-67l-30 -175h83zM224.998 -50.002h120.997l-15 -86
c-2 -9.33301 -4.16699 -18.833 -6.5 -28.5s-5.16602 -18.5 -8.49902 -26.5c-10.667 -24.667 -26.167 -45.5 -46.5 -62.5s-48.166 -28.167 -83.499 -33.5l7 43c13.333 4 24.333 8.83301 33 14.5s15.667 11.667 21 18s9.33301 12.5 12 18.5s4.33398 11 5.00098 15
c1.33301 4 1 6.5 -1 7.5s-4 1.5 -6 1.5h-53z" />
    <glyph glyph-name="rcommaaccent" unicode="&#x157;" horiz-adv-x="434" 
d="M179 0l-137.998 -0.00195312l98 560h91l-1 -92h1c27.333 38.667 55.166 65.334 83.499 80.001s58.833 22 91.5 22c14.667 0 28.167 -0.833008 40.5 -2.5s24.166 -4.16699 35.499 -7.5l-27 -137c-21.333 7.33301 -45 11 -71 11c-18 0 -35.5 -3.66699 -52.5 -11
s-32.333 -17.666 -46 -30.999s-25.5 -29.5 -35.5 -48.5s-17 -40.167 -21 -63.5zM45.002 -50.002h120.997l-15 -86c-2 -9.33301 -4.16699 -18.833 -6.5 -28.5s-5.16602 -18.5 -8.49902 -26.5c-10.667 -24.667 -26.167 -45.5 -46.5 -62.5s-48.166 -28.167 -83.499 -33.5l7 43
c13.333 4 24.333 8.83301 33 14.5s15.667 11.667 21 18s9.33301 12.5 12 18.5s4.33398 11 5.00098 15c1.33301 4 1 6.5 -1 7.5s-4 1.5 -6 1.5h-53z" />
    <glyph glyph-name="Rcaron" unicode="&#x158;" horiz-adv-x="610" 
d="M608 544c-4 -32.667 -17.001 -64.501 -39.001 -95.501s-55 -56.833 -99 -77.5v-1c30 -11.333 51 -28 63 -50s16.333 -51.667 13 -89l-13 -129c-1.33301 -19.333 -0.666016 -37.5 2.00098 -54.5s10 -30.833 22 -41.5l-1 -6h-152c-7.33301 10 -11.833 23.333 -13.5 40
s-1.83398 33.334 -0.500977 50.001l11 118c3.33301 36 -2.5 61.5 -17.5 76.5s-41.5 22.5 -79.5 22.5h-65l-53 -307h-142l132 750h186c16.667 0 33.834 -0.5 51.501 -1.5s32.5 -2.83301 44.5 -5.5c24.667 -5.33301 47 -13.5 67 -24.5s36.667 -24.833 50 -41.5s23 -36 29 -58
s7.33301 -47 4 -75zM345.999 437.999c36 0 63.832 9.16602 83.499 27.499s30.834 41.833 33.501 70.5c2 20 -1.16699 35.833 -9.5 47.5s-20.833 19.834 -37.5 24.501c-6.66699 2 -14.667 3.33301 -24 4s-20 1 -32 1h-67l-30 -175h83zM349.998 807.998l-145 205h114l86 -113
l108 113h113l-182 -205h-94z" />
    <glyph glyph-name="rcaron" unicode="&#x159;" horiz-adv-x="434" 
d="M179 0l-137.998 -0.00195312l98 560h91l-1 -92h1c27.333 38.667 55.166 65.334 83.499 80.001s58.833 22 91.5 22c14.667 0 28.167 -0.833008 40.5 -2.5s24.166 -4.16699 35.499 -7.5l-27 -137c-21.333 7.33301 -45 11 -71 11c-18 0 -35.5 -3.66699 -52.5 -11
s-32.333 -17.666 -46 -30.999s-25.5 -29.5 -35.5 -48.5s-17 -40.167 -21 -63.5zM283.002 628.998l-145 205h114l86 -113l108 113h113l-182 -205h-94z" />
    <glyph glyph-name="Sacute" unicode="&#x15a;" horiz-adv-x="591" 
d="M596 570c0 -7.33301 -0.503906 -15.1621 -1.50391 -23.4951l-3.5 -29.5h-144c2 14.667 2.16699 28.667 0.5 42s-5.5 25.166 -11.5 35.499s-14.667 18.666 -26 24.999s-25.333 9.5 -42 9.5c-17.333 0 -32.166 -2.33301 -44.499 -7s-22.333 -10.667 -30 -18
s-13.334 -15.666 -17.001 -24.999s-5.83398 -18.333 -6.50098 -27c-2 -24.667 2.83301 -44.334 14.5 -59.001s28.5 -27 50.5 -37l42 -19c22.667 -10 44.834 -22 66.501 -36s40.5 -30.5 56.5 -49.5s28.167 -41.167 36.5 -66.5s10.5 -54 6.5 -86c-4 -34 -13.667 -64 -29 -90
s-34.5 -47.833 -57.5 -65.5s-49 -31 -78 -40s-59.5 -13.5 -91.5 -13.5c-39.333 0 -74.166 6.33301 -104.499 19s-55.5 30.167 -75.5 52.5s-34.667 48.5 -44 78.5s-13 62.333 -11 97h144c-1.33301 -15.333 -0.166016 -30 3.50098 -44s9.5 -26.333 17.5 -37
s18.167 -19.167 30.5 -25.5s26.833 -9.5 43.5 -9.5c30 0 55 8.16699 75 24.5s31.333 39.166 34 68.499c1.33301 13.333 -0.5 25.5 -5.5 36.5s-11.5 20.833 -19.5 29.5s-17 16.167 -27 22.5s-19.667 11.5 -29 15.5l-42 19c-26 11.333 -49.167 24 -69.5 38
s-37.166 30.333 -50.499 49s-22.666 39.667 -27.999 63s-6 49.666 -2 78.999c4.66699 32 14.5 60.167 29.5 84.5s33.5 44.666 55.5 60.999s47 28.5 75 36.5s57.333 12 88 12c32 0 61.5 -4 88.5 -12s50.333 -20 70 -36s35 -35.833 46 -59.5s16.5 -51.167 16.5 -82.5z
M557.996 982.004l-172 -175h-95l114 187h152z" />
    <glyph glyph-name="sacute" unicode="&#x15b;" horiz-adv-x="495" 
d="M238 236c-50.667 18.667 -87.002 40.666 -109.002 65.999s-33 57 -33 95c0 26.667 5.33301 50.667 16 72s25.167 39.5 43.5 54.5s39.5 26.5 63.5 34.5s49.333 12 76 12c24.667 0 48.5 -3.16699 71.5 -9.5s43.333 -16.166 61 -29.499s31.834 -30.666 42.501 -51.999
s16.667 -47 18 -77h-131c-3.33301 18.667 -9.83301 33 -19.5 43s-24.5 15 -44.5 15s-35.5 -5 -46.5 -15s-16.5 -21.333 -16.5 -34c0 -13.333 4.33301 -25 13 -35s25.334 -19.333 50.001 -28c22.667 -8 43.667 -17 63 -27s36 -21.833 50 -35.5s25 -29.834 33 -48.501
s12 -40.667 12 -66c0 -28 -5.83301 -53.167 -17.5 -75.5s-27.167 -41.333 -46.5 -57s-41.5 -27.667 -66.5 -36s-50.833 -12.5 -77.5 -12.5c-61.333 0 -111 16 -149 48s-57.333 78.333 -58 139h131c6 -50 33 -75 81 -75c20.667 0 37.167 6.5 49.5 19.5s18.5 27.5 18.5 43.5
c0 8 -1.16699 15.167 -3.5 21.5s-6.5 12.333 -12.5 18s-14 11 -24 16s-22.667 10.167 -38 15.5zM491.998 802.999l-172 -175h-95l114 187h152z" />
    <glyph glyph-name="Scircumflex" unicode="&#x15c;" horiz-adv-x="591" 
d="M596 570c0 -7.33301 -0.503906 -15.1621 -1.50391 -23.4951l-3.5 -29.5h-144c2 14.667 2.16699 28.667 0.5 42s-5.5 25.166 -11.5 35.499s-14.667 18.666 -26 24.999s-25.333 9.5 -42 9.5c-17.333 0 -32.166 -2.33301 -44.499 -7s-22.333 -10.667 -30 -18
s-13.334 -15.666 -17.001 -24.999s-5.83398 -18.333 -6.50098 -27c-2 -24.667 2.83301 -44.334 14.5 -59.001s28.5 -27 50.5 -37l42 -19c22.667 -10 44.834 -22 66.501 -36s40.5 -30.5 56.5 -49.5s28.167 -41.167 36.5 -66.5s10.5 -54 6.5 -86c-4 -34 -13.667 -64 -29 -90
s-34.5 -47.833 -57.5 -65.5s-49 -31 -78 -40s-59.5 -13.5 -91.5 -13.5c-39.333 0 -74.166 6.33301 -104.499 19s-55.5 30.167 -75.5 52.5s-34.667 48.5 -44 78.5s-13 62.333 -11 97h144c-1.33301 -15.333 -0.166016 -30 3.50098 -44s9.5 -26.333 17.5 -37
s18.167 -19.167 30.5 -25.5s26.833 -9.5 43.5 -9.5c30 0 55 8.16699 75 24.5s31.333 39.166 34 68.499c1.33301 13.333 -0.5 25.5 -5.5 36.5s-11.5 20.833 -19.5 29.5s-17 16.167 -27 22.5s-19.667 11.5 -29 15.5l-42 19c-26 11.333 -49.167 24 -69.5 38
s-37.166 30.333 -50.499 49s-22.666 39.667 -27.999 63s-6 49.666 -2 78.999c4.66699 32 14.5 60.167 29.5 84.5s33.5 44.666 55.5 60.999s47 28.5 75 36.5s57.333 12 88 12c32 0 61.5 -4 88.5 -12s50.333 -20 70 -36s35 -35.833 46 -59.5s16.5 -51.167 16.5 -82.5z
M455.996 1013l144 -205h-113l-87 113l-107 -113h-114l183 205h94z" />
    <glyph glyph-name="scircumflex" unicode="&#x15d;" horiz-adv-x="495" 
d="M238 236c-50.667 18.667 -87.002 40.666 -109.002 65.999s-33 57 -33 95c0 26.667 5.33301 50.667 16 72s25.167 39.5 43.5 54.5s39.5 26.5 63.5 34.5s49.333 12 76 12c24.667 0 48.5 -3.16699 71.5 -9.5s43.333 -16.166 61 -29.499s31.834 -30.666 42.501 -51.999
s16.667 -47 18 -77h-131c-3.33301 18.667 -9.83301 33 -19.5 43s-24.5 15 -44.5 15s-35.5 -5 -46.5 -15s-16.5 -21.333 -16.5 -34c0 -13.333 4.33301 -25 13 -35s25.334 -19.333 50.001 -28c22.667 -8 43.667 -17 63 -27s36 -21.833 50 -35.5s25 -29.834 33 -48.501
s12 -40.667 12 -66c0 -28 -5.83301 -53.167 -17.5 -75.5s-27.167 -41.333 -46.5 -57s-41.5 -27.667 -66.5 -36s-50.833 -12.5 -77.5 -12.5c-61.333 0 -111 16 -149 48s-57.333 78.333 -58 139h131c6 -50 33 -75 81 -75c20.667 0 37.167 6.5 49.5 19.5s18.5 27.5 18.5 43.5
c0 8 -1.16699 15.167 -3.5 21.5s-6.5 12.333 -12.5 18s-14 11 -24 16s-22.667 10.167 -38 15.5zM386.998 833.999l144 -205h-113l-87 113l-107 -113h-114l183 205h94z" />
    <glyph glyph-name="Scedilla" unicode="&#x15e;" horiz-adv-x="591" 
d="M193 -142c3.33301 -21.333 16.3301 -31.9941 38.9971 -31.9941c10 0 18.167 3 24.5 9s9.83301 13 10.5 21c2 19.333 -12.333 33.666 -43 42.999l-24 7c-13.333 4 -22.333 9.16699 -27 15.5s-3 16.833 5 31.5l27 48c-26 8 -49 19.5 -69 34.5s-36.5 32.667 -49.5 53
s-22.5 43.166 -28.5 68.499s-8 52 -6 80h144c-1.33301 -15.333 -0.166016 -30 3.50098 -44s9.5 -26.333 17.5 -37s18.167 -19.167 30.5 -25.5s26.833 -9.5 43.5 -9.5c30 0 55 8.16699 75 24.5s31.333 39.166 34 68.499c1.33301 13.333 -0.5 25.5 -5.5 36.5
s-11.5 20.833 -19.5 29.5s-17 16.167 -27 22.5s-19.667 11.5 -29 15.5l-42 19c-26 11.333 -49.167 24 -69.5 38s-37.166 30.333 -50.499 49s-22.666 39.667 -27.999 63s-6 49.666 -2 78.999c4.66699 32 14.5 60.167 29.5 84.5s33.5 44.666 55.5 60.999s47 28.5 75 36.5
s57.333 12 88 12c32 0 61.5 -4 88.5 -12s50.333 -20 70 -36s35 -35.833 46 -59.5s16.5 -51.167 16.5 -82.5c0 -7.33301 -0.5 -15.166 -1.5 -23.499l-3.5 -29.5h-144c2 14.667 2.16699 28.667 0.5 42s-5.5 25.166 -11.5 35.499s-14.667 18.666 -26 24.999
s-25.333 9.5 -42 9.5c-17.333 0 -32.166 -2.33301 -44.499 -7s-22.333 -10.667 -30 -18s-13.334 -15.666 -17.001 -24.999s-5.83398 -18.333 -6.50098 -27c-2 -24.667 2.83301 -44.334 14.5 -59.001s28.5 -27 50.5 -37l42 -19c22.667 -10 44.834 -22 66.501 -36
s40.5 -30.5 56.5 -49.5s28.167 -41.167 36.5 -66.5s10.5 -54 6.5 -86c-4 -34 -13.667 -64 -29 -90s-34.5 -47.833 -57.5 -65.5s-49 -31 -78 -40s-59.5 -13.5 -91.5 -13.5h-14l-15 -33c12.667 -4 24.667 -8.83301 36 -14.5s21.333 -12.667 30 -21s15.167 -17.833 19.5 -28.5
s5.83301 -23 4.5 -37c-3.33301 -32 -16.166 -56.667 -38.499 -74s-48.833 -26 -79.5 -26c-32.667 0 -59.834 9 -81.501 27s-32.167 43 -31.5 75h76z" />
    <glyph glyph-name="scedilla" unicode="&#x15f;" horiz-adv-x="495" 
d="M238 236c-50.667 18.667 -87 40.667 -109 66s-33 57 -33 95c0 26.667 5.33301 50.667 16 72s25.167 39.5 43.5 54.5s39.5 26.5 63.5 34.5s49.333 12 76 12c24.667 0 48.5 -3.16699 71.5 -9.5s43.333 -16.166 61 -29.499s31.834 -30.666 42.501 -51.999s16.667 -47 18 -77
h-131c-3.33301 18.667 -9.83301 33 -19.5 43s-24.5 15 -44.5 15s-35.5 -5 -46.5 -15s-16.5 -21.333 -16.5 -34c0 -13.333 4.33301 -25 13 -35s25.334 -19.333 50.001 -28c22.667 -8 43.667 -17 63 -27s36 -21.833 50 -35.5s25 -29.834 33 -48.501s12 -40.667 12 -66
c0 -28 -5.83301 -53.167 -17.5 -75.5s-27.167 -41.333 -46.5 -57s-41.5 -27.667 -66.5 -36s-50.833 -12.5 -77.5 -12.5h-5l-15 -33c12.667 -4 24.667 -8.83301 36 -14.5s21.333 -12.667 30 -21s15.167 -17.833 19.5 -28.5s5.83301 -23 4.5 -37
c-3.33301 -32 -16.166 -56.667 -38.499 -74s-48.833 -26 -79.5 -26c-32.667 0 -59.834 9 -81.501 27s-32.167 43 -31.5 75h76c3.33301 -21.333 16.333 -32 39 -32c10 0 18.167 3 24.5 9s9.83301 13 10.5 21c2 19.333 -12.333 33.666 -43 42.999l-24 7
c-13.333 4 -22.333 9.16699 -27 15.5s-3 16.833 5 31.5l26 47c-40.667 10.667 -72.834 31 -96.501 61s-35.834 68.667 -36.501 116h131c6 -50 33 -75 81 -75c20.667 0 37.167 6.5 49.5 19.5s18.5 27.5 18.5 43.5c0 8 -1.16699 15.167 -3.5 21.5s-6.5 12.333 -12.5 18
s-14 11 -24 16s-22.667 10.167 -38 15.5z" />
    <glyph glyph-name="Scaron" unicode="&#x160;" horiz-adv-x="591" 
d="M596 570c0 -7.33301 -0.503906 -15.1621 -1.50391 -23.4951l-3.5 -29.5h-144c2 14.667 2.16699 28.667 0.5 42s-5.5 25.166 -11.5 35.499s-14.667 18.666 -26 24.999s-25.333 9.5 -42 9.5c-17.333 0 -32.166 -2.33301 -44.499 -7s-22.333 -10.667 -30 -18
s-13.334 -15.666 -17.001 -24.999s-5.83398 -18.333 -6.50098 -27c-2 -24.667 2.83301 -44.334 14.5 -59.001s28.5 -27 50.5 -37l42 -19c22.667 -10 44.834 -22 66.501 -36s40.5 -30.5 56.5 -49.5s28.167 -41.167 36.5 -66.5s10.5 -54 6.5 -86c-4 -34 -13.667 -64 -29 -90
s-34.5 -47.833 -57.5 -65.5s-49 -31 -78 -40s-59.5 -13.5 -91.5 -13.5c-39.333 0 -74.166 6.33301 -104.499 19s-55.5 30.167 -75.5 52.5s-34.667 48.5 -44 78.5s-13 62.333 -11 97h144c-1.33301 -15.333 -0.166016 -30 3.50098 -44s9.5 -26.333 17.5 -37
s18.167 -19.167 30.5 -25.5s26.833 -9.5 43.5 -9.5c30 0 55 8.16699 75 24.5s31.333 39.166 34 68.499c1.33301 13.333 -0.5 25.5 -5.5 36.5s-11.5 20.833 -19.5 29.5s-17 16.167 -27 22.5s-19.667 11.5 -29 15.5l-42 19c-26 11.333 -49.167 24 -69.5 38
s-37.166 30.333 -50.499 49s-22.666 39.667 -27.999 63s-6 49.666 -2 78.999c4.66699 32 14.5 60.167 29.5 84.5s33.5 44.666 55.5 60.999s47 28.5 75 36.5s57.333 12 88 12c32 0 61.5 -4 88.5 -12s50.333 -20 70 -36s35 -35.833 46 -59.5s16.5 -51.167 16.5 -82.5z
M351.996 808.004l-145 205h114l86 -113l108 113h113l-182 -205h-94z" />
    <glyph glyph-name="scaron" unicode="&#x161;" horiz-adv-x="495" 
d="M238 236c-50.667 18.667 -87.002 40.666 -109.002 65.999s-33 57 -33 95c0 26.667 5.33301 50.667 16 72s25.167 39.5 43.5 54.5s39.5 26.5 63.5 34.5s49.333 12 76 12c24.667 0 48.5 -3.16699 71.5 -9.5s43.333 -16.166 61 -29.499s31.834 -30.666 42.501 -51.999
s16.667 -47 18 -77h-131c-3.33301 18.667 -9.83301 33 -19.5 43s-24.5 15 -44.5 15s-35.5 -5 -46.5 -15s-16.5 -21.333 -16.5 -34c0 -13.333 4.33301 -25 13 -35s25.334 -19.333 50.001 -28c22.667 -8 43.667 -17 63 -27s36 -21.833 50 -35.5s25 -29.834 33 -48.501
s12 -40.667 12 -66c0 -28 -5.83301 -53.167 -17.5 -75.5s-27.167 -41.333 -46.5 -57s-41.5 -27.667 -66.5 -36s-50.833 -12.5 -77.5 -12.5c-61.333 0 -111 16 -149 48s-57.333 78.333 -58 139h131c6 -50 33 -75 81 -75c20.667 0 37.167 6.5 49.5 19.5s18.5 27.5 18.5 43.5
c0 8 -1.16699 15.167 -3.5 21.5s-6.5 12.333 -12.5 18s-14 11 -24 16s-22.667 10.167 -38 15.5zM277.998 628.999l-145 205h114l86 -113l108 113h113l-182 -205h-94z" />
    <glyph glyph-name="Tcommaaccent" unicode="&#x162;" horiz-adv-x="554" 
d="M636 750l-25 -138h-185l-107 -612h-143l107 612h-186l25 138h514zM179 -50h120.997l-15 -86c-2 -9.33301 -4.16699 -18.833 -6.5 -28.5s-5.16602 -18.5 -8.49902 -26.5c-10.667 -24.667 -26.167 -45.5 -46.5 -62.5s-48.166 -28.167 -83.499 -33.5l7 43
c13.333 4 24.333 8.83301 33 14.5s15.667 11.667 21 18s9.33301 12.5 12 18.5s4.33398 11 5.00098 15c1.33301 4 1 6.5 -1 7.5s-4 1.5 -6 1.5h-53z" />
    <glyph glyph-name="tcommaaccent" unicode="&#x163;" horiz-adv-x="397" 
d="M151 441l-85.998 -0.00195312l21 119h86l25 140h138l-25 -140h117l-21 -119h-117l-37 -216c-2.66699 -14 -4.16699 -27.167 -4.5 -39.5s1.5 -23 5.5 -32s10.667 -16.167 20 -21.5s22.666 -8 39.999 -8c11.333 0 25.666 1 42.999 3l-22 -127
c-10 -1.33301 -20 -2.16602 -30 -2.49902s-18.333 -0.5 -25 -0.5c-57.333 0 -100.333 11.333 -129 34s-43.667 58.334 -45 107.001c-0.666992 22 2 51.333 8 88zM137.002 -50.002h120.997l-15 -86c-2 -9.33301 -4.16699 -18.833 -6.5 -28.5s-5.16602 -18.5 -8.49902 -26.5
c-10.667 -24.667 -26.167 -45.5 -46.5 -62.5s-48.166 -28.167 -83.499 -33.5l7 43c13.333 4 24.333 8.83301 33 14.5s15.667 11.667 21 18s9.33301 12.5 12 18.5s4.33398 11 5.00098 15c1.33301 4 1 6.5 -1 7.5s-4 1.5 -6 1.5h-53z" />
    <glyph glyph-name="Tcaron" unicode="&#x164;" horiz-adv-x="554" 
d="M636 750l-25 -138h-185l-107 -612h-143l107 612h-186l25 138h514zM334 808l-145 205h114l86 -113l108 113h113l-182 -205h-94z" />
    <glyph glyph-name="tcaron" unicode="&#x165;" horiz-adv-x="508" 
d="M151 441l-85.998 -0.00195312l21 119h86l25 140h138l-25 -140h117l-21 -119h-117l-37 -216c-2.66699 -14 -4.16699 -27.167 -4.5 -39.5s1.5 -23 5.5 -32s10.667 -16.167 20 -21.5s22.666 -8 39.999 -8c11.333 0 25.666 1 42.999 3l-22 -127
c-10 -1.33301 -20 -2.16602 -30 -2.49902s-18.333 -0.5 -25 -0.5c-57.333 0 -100.333 11.333 -129 34s-43.667 58.334 -45 107.001c-0.666992 22 2 51.333 8 88zM509.002 784.998h120.996l-15 -86c-2 -9.33301 -4.16699 -18.833 -6.5 -28.5s-5.16602 -18.5 -8.49902 -26.5
c-10.667 -24.667 -26.167 -45.5 -46.5 -62.5s-48.166 -28.167 -83.499 -33.5l8 43c12.667 4 23.334 8.83301 32.001 14.5s15.667 11.667 21 18s9.33301 12.5 12 18.5s4.33398 11 5.00098 15c1.33301 4 1 6.5 -1 7.5s-4 1.5 -6 1.5h-53z" />
    <glyph glyph-name="Tbar" unicode="&#x166;" horiz-adv-x="554" 
d="M636 750l-25 -138h-185l-30 -172h153l-13 -75h-153l-64 -365h-143l64 365h-154l13 75h154l30 172h-186l25 138h514z" />
    <glyph glyph-name="tbar" unicode="&#x167;" horiz-adv-x="407" 
d="M133 282l-85.998 -0.00195312l13 75h86l15 84h-86l21 119h86l25 140h138l-25 -140h117l-21 -119h-117l-15 -84h117l-13 -75h-116l-10 -57c-2.66699 -14 -4.16699 -27.167 -4.5 -39.5s1.5 -23 5.5 -32s10.667 -16.167 20 -21.5s22.666 -8 39.999 -8
c11.333 0 25.666 1 42.999 3l-22 -127c-10 -1.33301 -20 -2.16602 -30 -2.49902s-18.333 -0.5 -25 -0.5c-57.333 0 -100.333 11.333 -129 34s-43.667 58.334 -45 107.001c-0.666992 22 2 51.333 8 88z" />
    <glyph glyph-name="Utilde" unicode="&#x168;" horiz-adv-x="634" 
d="M577 244c-6 -35.333 -16.1699 -68.5029 -30.5029 -99.5029s-32.833 -58 -55.5 -81s-49.5 -41 -80.5 -54s-66.5 -19.5 -106.5 -19.5h-7c-31.333 0 -59.666 4.83301 -84.999 14.5s-47.166 22.834 -65.499 39.501s-33 36.334 -44 59.001s-17.833 47.334 -20.5 74.001
c-1.33301 13.333 -1.5 28.666 -0.5 45.999s2.83301 33 5.5 47l85 480h143l-87 -490c-1.33301 -9.33301 -2.66602 -19.666 -3.99902 -30.999s-1.33301 -21 0 -29c2 -20.667 9.33301 -37.667 22 -51s32.667 -20 60 -20h6c34.667 0 62.5 12.5 83.5 37.5s34.833 55.5 41.5 91.5
l86 492h143zM422.997 837.997l-20.499 17.5c-5.66699 5 -10.834 9 -15.501 12s-9.33398 5.16699 -14.001 6.5s-10.334 2 -17.001 2c-5.33301 0 -12.166 -3.66699 -20.499 -11s-14.5 -21.666 -18.5 -42.999h-86c7.33301 50 23.333 88.667 48 116s54 41 88 41
c30 0 58.667 -11.333 86 -34c8.66699 -6.66699 15.834 -12.5 21.501 -17.5s10.667 -9 15 -12s8.83301 -5.16699 13.5 -6.5s10.334 -2 17.001 -2c6 0 13 3.66699 21 11s14 21.666 18 42.999h87c-7.33301 -50 -23.333 -88.667 -48 -116s-54.334 -41 -89.001 -41
c-30 0 -58.667 11.333 -86 34z" />
    <glyph glyph-name="utilde" unicode="&#x169;" horiz-adv-x="585" 
d="M224 -10c-40 0 -73.834 12.5 -101.501 37.5s-44.167 60.167 -49.5 105.5c-1.33301 12 -1.66602 26.333 -0.999023 43s2.33398 32.667 5.00098 48l59 336h138l-55 -320c-4 -24 -5.66699 -42.333 -5 -55c1.33301 -17.333 6 -32.166 14 -44.499s22 -18.5 42 -18.5
c25.333 0 50.333 13.667 75 41s41.667 66.666 51 117.999l48 279h138l-98 -560h-91v76h-1c-22 -28.667 -47.333 -50.167 -76 -64.5s-59.334 -21.5 -92.001 -21.5zM375.999 659l-20.499 17.5c-5.66699 5 -10.834 9 -15.501 12s-9.33398 5.16699 -14.001 6.5
s-10.334 2 -17.001 2c-5.33301 0 -12.166 -3.66699 -20.499 -11s-14.5 -21.666 -18.5 -42.999h-86c7.33301 50 23.333 88.667 48 116s54 41 88 41c30 0 58.667 -11.333 86 -34c8.66699 -6.66699 15.834 -12.5 21.501 -17.5s10.667 -9 15 -12s8.83301 -5.16699 13.5 -6.5
s10.334 -2 17.001 -2c6 0 13 3.66699 21 11s14 21.666 18 42.999h87c-7.33301 -50 -23.333 -88.667 -48 -116s-54.334 -41 -89.001 -41c-30 0 -58.667 11.333 -86 34z" />
    <glyph glyph-name="Umacron" unicode="&#x16a;" horiz-adv-x="634" 
d="M577 244c-6 -35.333 -16.1699 -68.5029 -30.5029 -99.5029s-32.833 -58 -55.5 -81s-49.5 -41 -80.5 -54s-66.5 -19.5 -106.5 -19.5h-7c-31.333 0 -59.666 4.83301 -84.999 14.5s-47.166 22.834 -65.499 39.501s-33 36.334 -44 59.001s-17.833 47.334 -20.5 74.001
c-1.33301 13.333 -1.5 28.666 -0.5 45.999s2.83301 33 5.5 47l85 480h143l-87 -490c-1.33301 -9.33301 -2.66602 -19.666 -3.99902 -30.999s-1.33301 -21 0 -29c2 -20.667 9.33301 -37.667 22 -51s32.667 -20 60 -20h6c34.667 0 62.5 12.5 83.5 37.5s34.833 55.5 41.5 91.5
l86 492h143zM590.997 824.997h-324l16 95h324z" />
    <glyph glyph-name="umacron" unicode="&#x16b;" horiz-adv-x="585" 
d="M224 -10c-40 0 -73.834 12.5 -101.501 37.5s-44.167 60.167 -49.5 105.5c-1.33301 12 -1.66602 26.333 -0.999023 43s2.33398 32.667 5.00098 48l59 336h138l-55 -320c-4 -24 -5.66699 -42.333 -5 -55c1.33301 -17.333 6 -32.166 14 -44.499s22 -18.5 42 -18.5
c25.333 0 50.333 13.667 75 41s41.667 66.666 51 117.999l48 279h138l-98 -560h-91v76h-1c-22 -28.667 -47.333 -50.167 -76 -64.5s-59.334 -21.5 -92.001 -21.5zM536.999 646h-324l16 95h324z" />
    <glyph glyph-name="Ubreve" unicode="&#x16c;" horiz-adv-x="634" 
d="M577 244c-6 -35.333 -16.1699 -68.5029 -30.5029 -99.5029s-32.833 -58 -55.5 -81s-49.5 -41 -80.5 -54s-66.5 -19.5 -106.5 -19.5h-7c-31.333 0 -59.666 4.83301 -84.999 14.5s-47.166 22.834 -65.499 39.501s-33 36.334 -44 59.001s-17.833 47.334 -20.5 74.001
c-1.33301 13.333 -1.5 28.666 -0.5 45.999s2.83301 33 5.5 47l85 480h143l-87 -490c-1.33301 -9.33301 -2.66602 -19.666 -3.99902 -30.999s-1.33301 -21 0 -29c2 -20.667 9.33301 -37.667 22 -51s32.667 -20 60 -20h6c34.667 0 62.5 12.5 83.5 37.5s34.833 55.5 41.5 91.5
l86 492h143zM429.997 802.997c-53.333 0 -93.999 16.333 -121.999 49s-40.333 77 -37 133h89c1.33301 -25.333 7.5 -45.666 18.5 -60.999s31.167 -23 60.5 -23c28.667 0 50 7.66699 64 23s24 35.666 30 60.999h89c-8 -56 -28.833 -100.333 -62.5 -133
s-76.834 -49 -129.501 -49z" />
    <glyph glyph-name="ubreve" unicode="&#x16d;" horiz-adv-x="585" 
d="M224 -10c-40 0 -73.834 12.5 -101.501 37.5s-44.167 60.167 -49.5 105.5c-1.33301 12 -1.66602 26.333 -0.999023 43s2.33398 32.667 5.00098 48l59 336h138l-55 -320c-4 -24 -5.66699 -42.333 -5 -55c1.33301 -17.333 6 -32.166 14 -44.499s22 -18.5 42 -18.5
c25.333 0 50.333 13.667 75 41s41.667 66.666 51 117.999l48 279h138l-98 -560h-91v76h-1c-22 -28.667 -47.333 -50.167 -76 -64.5s-59.334 -21.5 -92.001 -21.5zM374.999 624c-53.333 0 -93.999 16.333 -121.999 49s-40.333 77 -37 133h89
c1.33301 -25.333 7.5 -45.666 18.5 -60.999s31.167 -23 60.5 -23c28.667 0 50 7.66699 64 23s24 35.666 30 60.999h89c-8 -56 -28.833 -100.333 -62.5 -133s-76.834 -49 -129.501 -49z" />
    <glyph glyph-name="Uring" unicode="&#x16e;" horiz-adv-x="634" 
d="M577 244c-6 -35.333 -16.1699 -68.5029 -30.5029 -99.5029s-32.833 -58 -55.5 -81s-49.5 -41 -80.5 -54s-66.5 -19.5 -106.5 -19.5h-7c-31.333 0 -59.666 4.83301 -84.999 14.5s-47.166 22.834 -65.499 39.501s-33 36.334 -44 59.001s-17.833 47.334 -20.5 74.001
c-1.33301 13.333 -1.5 28.666 -0.5 45.999s2.83301 33 5.5 47l85 480h143l-87 -490c-1.33301 -9.33301 -2.66602 -19.666 -3.99902 -30.999s-1.33301 -21 0 -29c2 -20.667 9.33301 -37.667 22 -51s32.667 -20 60 -20h6c34.667 0 62.5 12.5 83.5 37.5s34.833 55.5 41.5 91.5
l86 492h143zM432.997 866.997c14 0 25.167 5 33.5 15s12.5 21.667 12.5 35s-4.16699 25 -12.5 35s-19.5 15 -33.5 15c-14.667 0 -26 -5 -34 -15s-12 -21.667 -12 -35s4 -25 12 -35s19.333 -15 34 -15zM432.997 1041c16.667 0 32.167 -3.16699 46.5 -9.5
s27 -15.166 38 -26.499s19.667 -24.5 26 -39.5s9.5 -31.167 9.5 -48.5s-3.16699 -33.5 -9.5 -48.5s-15 -28.167 -26 -39.5s-23.667 -20.166 -38 -26.499s-29.833 -9.5 -46.5 -9.5s-32.334 3.16699 -47.001 9.5s-27.5 15.166 -38.5 26.499s-19.667 24.5 -26 39.5
s-9.5 31.167 -9.5 48.5s3.16699 33.5 9.5 48.5s15 28.167 26 39.5s23.833 20.166 38.5 26.499s30.334 9.5 47.001 9.5z" />
    <glyph glyph-name="uring" unicode="&#x16f;" horiz-adv-x="585" 
d="M224 -10c-40 0 -73.834 12.5 -101.501 37.5s-44.167 60.167 -49.5 105.5c-1.33301 12 -1.66602 26.333 -0.999023 43s2.33398 32.667 5.00098 48l59 336h138l-55 -320c-4 -24 -5.66699 -42.333 -5 -55c1.33301 -17.333 6 -32.166 14 -44.499s22 -18.5 42 -18.5
c25.333 0 50.333 13.667 75 41s41.667 66.666 51 117.999l48 279h138l-98 -560h-91v76h-1c-22 -28.667 -47.333 -50.167 -76 -64.5s-59.334 -21.5 -92.001 -21.5zM376.999 688c14 0 25.167 5 33.5 15s12.5 21.667 12.5 35s-4.16699 25 -12.5 35s-19.5 15 -33.5 15
c-14.667 0 -26 -5 -34 -15s-12 -21.667 -12 -35s4 -25 12 -35s19.333 -15 34 -15zM376.999 862c16.667 0 32.167 -3.16699 46.5 -9.5s27 -15.166 38 -26.499s19.667 -24.5 26 -39.5s9.5 -31.167 9.5 -48.5s-3.16699 -33.5 -9.5 -48.5s-15 -28.167 -26 -39.5
s-23.667 -20.166 -38 -26.499s-29.833 -9.5 -46.5 -9.5s-32.334 3.16699 -47.001 9.5s-27.5 15.166 -38.5 26.499s-19.667 24.5 -26 39.5s-9.5 31.167 -9.5 48.5s3.16699 33.5 9.5 48.5s15 28.167 26 39.5s23.833 20.166 38.5 26.499s30.334 9.5 47.001 9.5z" />
    <glyph glyph-name="Uhungarumlaut" unicode="&#x170;" horiz-adv-x="634" 
d="M577 244c-6 -35.333 -16.1699 -68.5029 -30.5029 -99.5029s-32.833 -58 -55.5 -81s-49.5 -41 -80.5 -54s-66.5 -19.5 -106.5 -19.5h-7c-31.333 0 -59.666 4.83301 -84.999 14.5s-47.166 22.834 -65.499 39.501s-33 36.334 -44 59.001s-17.833 47.334 -20.5 74.001
c-1.33301 13.333 -1.5 28.666 -0.5 45.999s2.83301 33 5.5 47l85 480h143l-87 -490c-1.33301 -9.33301 -2.66602 -19.666 -3.99902 -30.999s-1.33301 -21 0 -29c2 -20.667 9.33301 -37.667 22 -51s32.667 -20 60 -20h6c34.667 0 62.5 12.5 83.5 37.5s34.833 55.5 41.5 91.5
l86 492h143zM493.997 981.997l-153 -175h-95l115 187h132zM699.997 981.997l-153 -175h-95l115 187h132z" />
    <glyph glyph-name="uhungarumlaut" unicode="&#x171;" horiz-adv-x="585" 
d="M224 -10c-40 0 -73.834 12.5 -101.501 37.5s-44.167 60.167 -49.5 105.5c-1.33301 12 -1.66602 26.333 -0.999023 43s2.33398 32.667 5.00098 48l59 336h138l-55 -320c-4 -24 -5.66699 -42.333 -5 -55c1.33301 -17.333 6 -32.166 14 -44.499s22 -18.5 42 -18.5
c25.333 0 50.333 13.667 75 41s41.667 66.666 51 117.999l48 279h138l-98 -560h-91v76h-1c-22 -28.667 -47.333 -50.167 -76 -64.5s-59.334 -21.5 -92.001 -21.5zM434.999 803l-153 -175h-95l115 187h132zM640.999 803l-153 -175h-95l115 187h132z" />
    </font>
</defs>
</svg>
